<svg xmlns="http://www.w3.org/2000/svg" xmlns:xlink="http://www.w3.org/1999/xlink" width="60.105" height="90.652" viewBox="0 0 60.105 90.652">
  <defs>
    <clipPath id="clip-path">
      <rect id="長方形_191" data-name="長方形 191" width="89.643" height="58.549" fill="none"/>
    </clipPath>
  </defs>
  <g id="グループ_210" data-name="グループ 210" transform="matrix(0.017, -1, 1, 0.017, 0, 89.63)">
    <g id="グループ_29" data-name="グループ 29" transform="translate(0 0)" clip-path="url(#clip-path)">
      <path id="パス_1294" data-name="パス 1294" d="M61.454,3.352c-.066,1.019,1.02,1.806.362,2.945-.4,1.969-2.906,3.445-6.359,3.734-2.08.174-3.631-.337-4.421-1.811a4.421,4.421,0,0,1-1.252-4.136c-.267-2.376,2.3-2.911,4.193-3.541,1.711-.57,3.835-1.1,4.792.663l.68.535c1.092.2,2.45.2,2,1.611" transform="translate(-0.938 0)" fill="#364350"/>
      <path id="パス_1295" data-name="パス 1295" d="M61.45,33.116A2.2,2.2,0,0,0,63,33.358c1.564-.476,2.408.548,3.013,1.883a4.228,4.228,0,0,1-.285,4.507,8.1,8.1,0,0,1-1.16,1.062c-.946,1.707-3.746,2.561-5.941,1.811-2.253-.4-3.25-2.088-2.614-4.417.779-2.854,3.309-5.224,5.432-5.088" transform="translate(-1.053 -0.624)" fill="#364350"/>
      <path id="パス_1296" data-name="パス 1296" d="M42.236,30.149a1.984,1.984,0,0,0,1.476.2c1.453-.521,2.292.48,2.92,1.8a4.444,4.444,0,0,1-.075,4.518,7.579,7.579,0,0,1-1.047,1.1c-.818,1.736-3.421,2.672-5.523,1.985-2.14-.337-3.152-1.995-2.653-4.344.612-2.878,2.9-5.324,4.9-5.249" transform="translate(-0.702 -0.569)" fill="#364350"/>
      <path id="パス_1297" data-name="パス 1297" d="M50.127,57.164A7.564,7.564,0,0,1,43.982,55.1c-1.166-.423-1.307-1.49-1.061-2.543.316-1.351.855-2.674,2.508-2.739.879-.188,1.769-.323,2.635-.575,2.62-.76,3.216-.557,4.787,1.771,1.369,1.23,1.384,2.763.639,4.464-.7,1.6-2.022,1.675-3.363,1.682" transform="translate(-0.808 -0.921)" fill="#364350"/>
      <path id="パス_1298" data-name="パス 1298" d="M25.814,13.443a10.177,10.177,0,0,1-7.842,1.933,2.312,2.312,0,0,1-2.79-1.758c-.554-1.494-.855-3.1.848-4.214.806-.739,1.656-1.433,2.406-2.224C20.7,4.788,21.465,4.6,24.654,5.833,26.906,6.14,27.932,7.6,28.26,9.7c.311,1.982-1.034,2.887-2.446,3.745" transform="translate(-0.278 -0.096)" fill="#364350"/>
      <path id="パス_1299" data-name="パス 1299" d="M71.119,4.556l2.741.305c1.944.5,2.648,1.558,2.637,3.954a3.569,3.569,0,0,1-3,3.59l-2.76,1.211q-4.093-.219-4.583-3.876A5.253,5.253,0,0,1,69.4,4.366a1.961,1.961,0,0,1,1.717.19" transform="translate(-1.247 -0.08)" fill="#364350"/>
      <path id="パス_1300" data-name="パス 1300" d="M82.63,48.281c-1.214,1.8-3.032,1.838-4.75,1.721-1.988-.135-2.52-2.085-3.063-3.867-.483-2.224,1.188-2.805,2.253-3.849,1.7-1.348,3.413-2.536,5.527-.866,1.665-.175,2.093,1.157,2.322,2.578.238,1.476.272,2.96-1.173,3.753-.36.2-.766.293-1.116.53" transform="translate(-1.41 -0.766)" fill="#364350"/>
      <path id="パス_1301" data-name="パス 1301" d="M78.357,31.67a6.5,6.5,0,0,1-4.513,1.35c-3.524-.073-5.571-3.8-3.929-7.147.432-.883.983-1.541,1.994-1.356a6.082,6.082,0,0,1,3.726-1.491c2.145-.414,3.51.345,4.077,2.268.929,3.16.443,5.447-1.354,6.375" transform="translate(-1.308 -0.432)" fill="#364350"/>
      <path id="パス_1302" data-name="パス 1302" d="M90.745,11.368a6.789,6.789,0,0,1,.145,4.308c.373,2.052-.936,3.045-2.743,3.508-2.649.677-3.983.041-5.182-2.2-1.23-1.383-.969-3.048-.993-4.659.944-2.2,2.366-3.745,5.2-3.644,2.965.1,2.975.055,3.575,2.685" transform="translate(-1.546 -0.164)" fill="#364350"/>
      <path id="パス_1303" data-name="パス 1303" d="M23.166,42.625a8.012,8.012,0,0,1,4.638-1.2c2.141-.878,3.514.212,4.425,1.94,1.335,2.533.949,4.045-1.207,5.811-1.222,1.588-3.085,1.728-4.826,2.143-2.6-.425-4.6-1.5-5.13-4.406-.559-3.043-.615-3.042,2.1-4.292" transform="translate(-0.392 -0.775)" fill="#364350"/>
      <path id="パス_1304" data-name="パス 1304" d="M60.7,25.5l-2.93.952a3.991,3.991,0,0,1-5.175-1.914c-1.3-2.663-.753-4.495,1.775-5.96,2.189-1.819,4.5-1.807,6.9-.459,2.375-.031,2.368,1.781,2.45,3.35.131,2.5-.7,3.51-3.018,4.032" transform="translate(-0.979 -0.323)" fill="#364350"/>
      <path id="パス_1305" data-name="パス 1305" d="M6.9,50.907,9.96,50.9a4.1,4.1,0,0,1,4.436,3.22c.523,2.776-.494,4.27-3.311,4.862A5.888,5.888,0,0,1,4.356,57.4c-2.283-.657-1.785-2.29-1.439-3.728.55-2.293,1.618-2.962,3.98-2.764" transform="translate(-0.049 -0.959)" fill="#364350"/>
      <path id="パス_1306" data-name="パス 1306" d="M64.352,53.316c1.2-1.1,2.822-.546,4.165-1.08,1.56-.38,2.736.1,3.135,1.7.365,1.462.638,3.026-1.269,3.783-1.318,1.069-2.676,2.036-4.516,1.761-1.9,0-3.641-1.221-3.8-2.789-.178-1.713.257-3.116,2.288-3.379" transform="translate(-1.17 -0.983)" fill="#364350"/>
      <path id="パス_1307" data-name="パス 1307" d="M43.72,19.51c-.716,1.278-2.384,1.072-3.4,1.879-2.947,1.788-4.039-.232-5.525-1.6-1.562-1.437-.817-2.706.6-4.007l.423-.6c.679-2.718,3.407-2.719,5.328-2.773,2.161-.061,4.44.705,4.958,2.976.4,1.761-.4,3.2-2.38,4.126" transform="translate(-0.64 -0.234)" fill="#d39c38"/>
      <path id="パス_1308" data-name="パス 1308" d="M18.073,26.571c.419-1.165,1.84-1.236,2.576-2.054,2.209-1.911,3.4-.4,4.833.52,1.5.964,1.06,2.124.06,3.409l-.269.562c-.185,2.352-2.463,2.75-4.057,3.075-1.794.365-3.8.061-4.552-1.745-.583-1.4-.112-2.709,1.409-3.768" transform="translate(-0.31 -0.445)" fill="#d39c38"/>
      <path id="パス_1309" data-name="パス 1309" d="M2.785,37.5c.844-.969,2.178-.41,3.179-.894,2.786-.916,3.285,1.116,4.238,2.659,1,1.623.135,2.575-1.291,3.407l-.47.439c-1.1,2.25-3.351,1.636-4.945,1.25C1.7,43.924-.024,42.733,0,40.609A3.063,3.063,0,0,1,2.785,37.5" transform="translate(0 -0.686)" fill="#364350"/>
    </g>
  </g>
</svg>
