<svg xmlns="http://www.w3.org/2000/svg" width="63.363" height="60.487" viewBox="0 0 63.363 60.487">
  <g id="グループ_243" data-name="グループ 243" transform="translate(-1217.963 -76.226)">
    <text id="CLOSE" transform="translate(1249.645 132.713)" fill="#2d2c2f" font-size="12" font-family="FuturaPT-Medium, Futura PT" font-weight="500" letter-spacing="0.15em"><tspan x="-20.34" y="0">CLOSE</tspan></text>
    <g id="グループ_242" data-name="グループ 242" transform="translate(2816.418 -1112.214)">
      <path id="パス_2605" data-name="パス 2605" d="M86.22,39.6a13.077,13.077,0,0,1-5.406-1.97c-2.3-1.445-2.613-4.085-2.824-5.831a11.059,11.059,0,0,0-.192-1.247c-.134-.541-.758-.93-1.171-1.189-.378-.237-.769-.481-.657-.939.123-.506.718-.555,1.4-.613,1.424-.118,1.762-3.971,1.7-5.815l1.06-.036c.02.66.127,6.287-2.406,6.866a2.7,2.7,0,0,1,1.1,1.469,11.6,11.6,0,0,1,.215,1.377c.208,1.732.468,3.886,2.337,5.064A12.244,12.244,0,0,0,86.3,38.548Z" transform="translate(-1660.867 1186.283)" fill="#2d2c2f"/>
      <path id="パス_2606" data-name="パス 2606" d="M111.108,17l0,.006.014.016a3.651,3.651,0,0,0,2.571,1.566c.923-.02,1.461-.664,2.411-1.759.035-.042,3.43-4.241,8.194-4.241v-1.06c-5.284,0-8.837,4.483-9.029,4.731-.666.76-1.063,1.256-1.6,1.27h-.024c-.756,0-1.485-.847-1.7-1.178h0s.006.006.009.011l0,0c-.636-.975-1.861-3.072-4.367-7.157C101.942.016,98.532.016,96.7.016l-.4,0C94.338-.05,91.014-.1,84.008,6.623c-4.053,3.89-6.689,5.715-9.255,6.584l-.3-.168c-1.806-1.022-3.673-2.077-5.451-2.933-3.511-1.691-5.541-1.23-6.629-.548a2.892,2.892,0,0,0-1.437,2.227,2.487,2.487,0,0,0,.76,1.833c1.06,1.04,3.121,1.5,6.388,1.469a23.43,23.43,0,0,0,6.548-.733c3.756,2.117,7.606,4.212,11.146,4.8.485.081.981.131,1.48.169.126,1.029,1.006,7.073,4.422,7.484a5.486,5.486,0,0,0,3.816-.581,2.81,2.81,0,0,1,1.248-.409,2.094,2.094,0,0,1,1.616.914,2.577,2.577,0,0,1-.041,2.607c-.952,2.039-2.263,3.074-3.892,3.074v1.06c1.428,0,3.43-.639,4.854-3.687a3.515,3.515,0,0,0-.044-3.649,3.118,3.118,0,0,0-2.556-1.375,3.73,3.73,0,0,0-1.676.528,4.579,4.579,0,0,1-3.2.467c-2.219-.267-3.221-4.445-3.474-6.38a50,50,0,0,0,6.506-.429,34.666,34.666,0,0,1,8.049-.287,22.289,22.289,0,0,1,6.4,1.978c-.1,11.751-10.6,15.73-11.05,15.873l.322,1.01c.116-.037,11.382-4.236,11.773-16.4.334.159.664.318.993.478a38.409,38.409,0,0,0,4.566,1.974,19.869,19.869,0,0,0,4.928,1.263.8.8,0,0,0,.206-.021l.01-1.009c-.024.02-1.041.017-4.808-1.24a37.44,37.44,0,0,1-4.441-1.923,27.94,27.94,0,0,0-8.764-3.038,36,36,0,0,0-8.3.284,33.233,33.233,0,0,1-8.771.215c-3.118-.519-6.581-2.316-10-4.228,2.432-1.015,5.055-2.913,8.789-6.495C91.434.967,94.486,1.047,96.28,1.07l.418.006c1.625,0,4.651,0,9.983,8.691,3.342,5.448,4.184,6.83,4.379,7.157l0,0c.018.029.036.054.051.078m-43.04-2.976c-3.629.051-5.053-.6-5.627-1.165A1.42,1.42,0,0,1,62,11.785a1.881,1.881,0,0,1,.941-1.33A3.286,3.286,0,0,1,64.714,10a9.178,9.178,0,0,1,3.83,1.055c1.543.744,3.166,1.648,4.758,2.544a27.124,27.124,0,0,1-5.234.425" transform="translate(-1659.393 1188.44)" fill="#2d2c2f"/>
      <path id="パス_2607" data-name="パス 2607" d="M86.21,28.427a.863.863,0,1,1-.845-1.043.96.96,0,0,1,.845,1.043" transform="translate(-1661.709 1185.751)" fill="#2d2c2f"/>
    </g>
  </g>
</svg>
