<svg xmlns="http://www.w3.org/2000/svg" xmlns:xlink="http://www.w3.org/1999/xlink" width="36.467" height="248.946" viewBox="0 0 36.467 248.946">
  <defs>
    <clipPath id="clip-path">
      <rect id="長方形_570" data-name="長方形 570" width="36.467" height="30.346" transform="translate(0 0)" fill="#2d2c2f"/>
    </clipPath>
    <clipPath id="clip-path-2">
      <rect id="長方形_269" data-name="長方形 269" width="9.262" height="7.617" transform="translate(0 0)" fill="#fff"/>
    </clipPath>
  </defs>
  <g id="グループ_277" data-name="グループ 277" transform="translate(-1297.47 -493.554)">
    <g id="グループ_272" data-name="グループ 272" transform="translate(1297.47 493.554)">
      <g id="グループ_271" data-name="グループ 271" transform="translate(0 0)" clip-path="url(#clip-path)">
        <path id="パス_5910" data-name="パス 5910" d="M27.039,55.9a3.039,3.039,0,1,0,3.039,3.039A3.02,3.02,0,0,0,27.039,55.9m0,4.341a1.3,1.3,0,1,1,1.3-1.3,1.279,1.279,0,0,1-1.3,1.3" transform="translate(-13.581 -31.632)" fill="#2d2c2f"/>
        <path id="パス_5911" data-name="パス 5911" d="M56.039,55.9a3.039,3.039,0,1,0,3.039,3.039A3.02,3.02,0,0,0,56.039,55.9m0,4.341a1.3,1.3,0,1,1,1.3-1.3,1.279,1.279,0,0,1-1.3,1.3" transform="translate(-29.991 -31.632)" fill="#2d2c2f"/>
        <path id="パス_5912" data-name="パス 5912" d="M36.467,6.078v-.26c0-.043,0-.043-.043-.087,0-.043,0-.043-.043-.087,0-.043-.043-.043-.043-.087s-.043-.043-.043-.087a.043.043,0,0,0-.043-.043l-.043-.043-.043-.043c-.043,0-.043-.043-.087-.043s-.043-.043-.087-.043-.043-.043-.087-.043H7.207L6.078.651A.837.837,0,0,0,5.253,0H.868a.868.868,0,0,0,0,1.737H4.515L9.551,21.923a.837.837,0,0,0,.825.651h19.97a.887.887,0,0,0,.825-.608L36.38,6.338v-.13c.087-.087.087-.087.087-.13M29.781,20.795H11.114L7.641,6.9H34.426Z" transform="translate(0 0)" fill="#2d2c2f"/>
        <path id="パス_5913" data-name="パス 5913" d="M46.868,23.9a.871.871,0,0,0-.868.868v5.21a.868.868,0,0,0,1.737,0v-5.21a.871.871,0,0,0-.868-.868" transform="translate(-26.03 -13.524)" fill="#2d2c2f"/>
        <path id="パス_5914" data-name="パス 5914" d="M34.868,23.9a.871.871,0,0,0-.868.868v5.21a.868.868,0,0,0,1.737,0v-5.21a.871.871,0,0,0-.868-.868" transform="translate(-19.24 -13.524)" fill="#2d2c2f"/>
        <path id="パス_5915" data-name="パス 5915" d="M57.868,23.9a.871.871,0,0,0-.868.868v5.21a.868.868,0,0,0,1.737,0v-5.21a.871.871,0,0,0-.868-.868" transform="translate(-32.255 -13.524)" fill="#2d2c2f"/>
      </g>
    </g>
    <path id="パス_5917" data-name="パス 5917" d="M13.4,3.408a10.248,10.248,0,0,1-2.384.72v-2.1c.192-.144.272-.256.272-.368,0-.128-.128-.224-.32-.224L9.316,1.36A12.518,12.518,0,0,1,9.4,2.8c0,1.168,0,1.168.016,1.5-.512.032-1.152.064-1.6.064-.272,0-.512,0-1.056-.032l.016,1.6C7.924,5.92,8.82,5.9,9.428,5.872c.016,1.216.032,1.84.032,1.872,0,.416,0,.416.016,1.2-2.336,1.264-3.392,2.208-3.392,3.008,0,.624.64,1.328,1.792,1.984a3.758,3.758,0,0,0,1.68.624c.96,0,1.44-.656,1.5-2.1.032-.448.048-1.056.064-2.64a9.169,9.169,0,0,1,3.36-.832,2.858,2.858,0,0,1,1.3.352,1.469,1.469,0,0,1,.752,1.344c0,.976-.8,1.616-2.032,1.616a4.509,4.509,0,0,1-1.76-.368,10.81,10.81,0,0,1-.192,1.6,5.394,5.394,0,0,0,1.872.336c2.288,0,3.776-1.3,3.776-3.28a2.659,2.659,0,0,0-.96-2.208,4,4,0,0,0-2.512-.88,10.45,10.45,0,0,0-3.648.752c0-.544-.016-1.392-.032-2.56a14.292,14.292,0,0,0,2.976-.864ZM9.524,11.136c0,1.712-.032,1.856-.352,1.856a1.738,1.738,0,0,1-.752-.3c-.528-.336-.8-.576-.8-.768,0-.24.576-.688,1.568-1.264q.12-.072.336-.192ZM19.908,6.752a4.288,4.288,0,0,0-3.84-2.1c-.544-.016-.544-.016-.736-.016l.048,1.536c.256-.016.4-.016.56-.016a2.847,2.847,0,0,1,2.752,1.7ZM13.3,24.16v-.816c0-3.568,0-3.568.016-4.128.208-.128.288-.208.288-.3,0-.08-.1-.16-.24-.16l-1.7-.112c.064.5.1,2.08.1,4.7v.816H8.6c-.912,0-2.368-.032-3.184-.064V25.68c.864-.032,2.3-.064,3.184-.064h2.32A14.438,14.438,0,0,1,8.74,28.064a21.213,21.213,0,0,1-3.952,2.8,4.537,4.537,0,0,1,.88,1.3,23.516,23.516,0,0,0,3.9-2.816,11.609,11.609,0,0,0,2.192-2.48V28.7c0,2.064-.032,3.632-.08,4.672h1.68C13.316,32.352,13.3,30.8,13.3,28.7V26.88a13.572,13.572,0,0,0,1.616,1.84,17.069,17.069,0,0,0,4.192,2.992,13.654,13.654,0,0,1,.992-1.328,18.884,18.884,0,0,1-4.208-2.768,13.29,13.29,0,0,1-1.84-2H16.42c.976,0,2.336.032,3.184.064V24.1c-.816.032-2.176.064-3.184.064Zm2.3-.32a25.154,25.154,0,0,0,2.24-3.152c.3-.032.432-.1.432-.208,0-.08-.048-.128-.16-.192l-1.488-.768A16.124,16.124,0,0,1,14.42,23.1Zm-8.544-3.5A20.7,20.7,0,0,1,9.236,23.7l1.328-.848a16.4,16.4,0,0,0-2.336-3.3Zm5.712,20.1h.32a5.407,5.407,0,0,1,1.824.384A3.92,3.92,0,0,1,17.6,44.5a3.666,3.666,0,0,1-1.968,3.232,9.687,9.687,0,0,1-3.2,1.152,4.426,4.426,0,0,1,.848,1.6,16.682,16.682,0,0,0,2.976-1.136,5.234,5.234,0,0,0,3.024-4.832,4.852,4.852,0,0,0-2.016-4.144,7.363,7.363,0,0,0-4.4-1.344,7.051,7.051,0,0,0-3.984,1.152A6.321,6.321,0,0,0,5.876,45.36,4.969,4.969,0,0,0,6.5,47.808a2.189,2.189,0,0,0,1.984,1.136c1.344,0,2.384-.976,3.328-3.1a22.447,22.447,0,0,0,1.472-4.64c.144-.08.224-.176.224-.272q0-.1-.192-.192Zm-1.136.08a15.394,15.394,0,0,1-1.6,5.072c-.576,1.2-1.024,1.7-1.536,1.7-.592,0-.96-.7-.96-1.84a5.2,5.2,0,0,1,1.6-3.616A4.3,4.3,0,0,1,11.636,40.512ZM17.6,54.992A9.3,9.3,0,0,1,19.54,56.64l.8-.864a10.314,10.314,0,0,0-2.032-1.6ZM7.8,62.4a4.512,4.512,0,0,0-.7,2.416,2.652,2.652,0,0,0,1.04,2.24c.976.7,2.272.976,4.784.976a19.811,19.811,0,0,0,4.56-.464c-.016-.336-.016-.48-.016-.688a9.7,9.7,0,0,1,.08-1.216,15.988,15.988,0,0,1-4.784.64c-2.944,0-3.984-.48-3.984-1.808a2.314,2.314,0,0,1,.5-1.392Zm.656-4.96c.864,1.392,1.552,1.728,3.392,1.728a17.815,17.815,0,0,0,4.72-.544l-.416-1.616a17.137,17.137,0,0,1-3.952.528c-1.6,0-1.872-.112-2.464-.928Zm7.92-1.008a9.742,9.742,0,0,1,1.92,1.664l.8-.88a10.736,10.736,0,0,0-2.016-1.6ZM11.348,83.52c-.464-.016-.928-.032-1.248-.048v1.312c.32-.016.8-.016,1.248-.032v.912c0,.8,0,1.328-.032,1.712H12.8V84.752h4.464v.384c0,.576-.08.656-.64.656a9.988,9.988,0,0,1-1.152-.064,11.485,11.485,0,0,1,.352,1.632c2.432,0,2.944-.256,2.944-1.44v-.208c-.016-.32-.032-.64-.032-.96.432.016.912.016,1.216.032V83.472c-.32.016-.784.032-1.232.048v-2.4c0-.48.016-1.024.048-1.312-.352.016-.688.032-1.152.032H15.732v-.784h2.3c.528,0,1.424.016,1.92.032V77.712c-.48.016-1.3.032-1.92.032h-.72v-.672c.512,0,1.184.016,1.584.032V75.84c-.4.016-1.024.032-1.584.032v-.624h.32c.528,0,1.424.016,1.9.032V73.9c-.48.032-1.3.048-1.9.048h-.32v-.816c.224-.128.3-.224.3-.32,0-.08-.1-.144-.288-.16l-1.5-.112.016,1.04v.368H14.132v-.816c.224-.128.32-.224.32-.32,0-.08-.112-.144-.3-.16l-1.5-.112c.016.24.016.592.016,1.04v.368h-.448c-.608,0-1.44-.016-1.92-.048V75.28c.5-.016,1.392-.032,1.92-.032h.448v.624c-.576,0-1.3-.016-1.728-.032V77.1c.432-.016,1.2-.032,1.728-.032v.672h-.64c-.608,0-1.44-.016-1.92-.032v1.376c.5-.016,1.392-.032,1.92-.032h2.256v.784H12.468c-.48,0-.8-.016-1.152-.032.016.288.032.912.032,1.424Zm1.456,0v-.608h1.472v.608Zm4.464,0H15.732v-.608h1.536Zm0-1.792H15.732V81.1h1.536ZM14.276,81.1v.624H12.8V81.1Zm-.144-3.36v-.672h1.712v.672Zm1.712-2.5v.624H14.132v-.624Zm-8.9,8.128h1.36v.416H9.8c-.032-.608-.048-1.552-.048-2.816V75.92C9.78,73.9,9.78,73.9,9.8,73.376a8.4,8.4,0,0,1-.944.032H6.4a8.546,8.546,0,0,1-.944-.032c.032.512.048,1.584.048,2.544v5.024c0,1.36-.016,2.272-.048,2.928H6.948Zm1.36-1.344H6.948V80.464h1.36Zm0-2.912H6.948V77.5h1.36Zm0-2.944H6.948v-1.44h1.36ZM6.18,83.952a4.417,4.417,0,0,1-1.536,2.416,3.431,3.431,0,0,1,.96,1.04,5.772,5.772,0,0,0,1.744-2.656l.112-.064a.154.154,0,0,0,.1-.144c0-.08-.032-.128-.144-.16Zm1.712.608a14.261,14.261,0,0,1,1.024,2.432l1.3-.672A11.751,11.751,0,0,0,9.012,84Zm4.448,8.272c.032.544.1,1.072.16,1.616l-1.056-.208a15.245,15.245,0,0,1-2.384,5.872,11.989,11.989,0,0,1-4.208,3.856,5.283,5.283,0,0,1,1.008,1.344,13.955,13.955,0,0,0,5.472-5.84A14.265,14.265,0,0,0,12.676,95.6a14.236,14.236,0,0,0,1.9,4.992,12.551,12.551,0,0,0,4.48,4.336,8.776,8.776,0,0,1,1.024-1.472,9.917,9.917,0,0,1-2-1.344,10.47,10.47,0,0,1-2.416-2.848,15.66,15.66,0,0,1-2-6.816l.128-.032c.192-.064.288-.144.288-.272,0-.08-.032-.128-.144-.224L13,91.088l-.24.288H10.292c-.56,0-.912,0-1.216-.016v1.5c.256-.016.672-.032,1.216-.032Zm2.224,16.784a14.774,14.774,0,0,1,.208,2.528l.016.656c-.512.016-.608.016-1.008.016-1.216,0-1.92-.032-2.9-.112l.016,1.664c.512.016,1.744.016,2.576.016.256,0,.48,0,1.344-.016.1,2.9.1,2.9.112,3.888a8.664,8.664,0,0,0-1.776-.208c-1.76,0-2.928.864-2.928,2.176A2.209,2.209,0,0,0,11,121.872a3.949,3.949,0,0,0,2.528.656c1.936,0,2.864-.656,3.008-2.128a13.715,13.715,0,0,1,2.192,1.7,5.311,5.311,0,0,1,1.04-1.408,12.583,12.583,0,0,0-3.152-1.952,4.046,4.046,0,0,1-.016-.448c-.016-.208-.064-1.52-.144-3.968a23.429,23.429,0,0,0,2.9-.272l-.048-1.632a20.736,20.736,0,0,1-2.864.32c-.064-1.344-.08-2.176-.08-2.48.256-.224.256-.224.256-.336a.236.236,0,0,0-.256-.208Zm.32,10.16a2.535,2.535,0,0,1-.064.624c-.144.48-.576.7-1.392.7-1.024,0-1.584-.3-1.584-.88,0-.5.464-.768,1.28-.768A5,5,0,0,1,14.884,119.776ZM7.108,109.632a6.669,6.669,0,0,1-.112.9,41.616,41.616,0,0,0-.672,6.816,16.6,16.6,0,0,0,.816,5.472,7.565,7.565,0,0,1,1.584-.72,13.061,13.061,0,0,1-.8-4.816,28.75,28.75,0,0,1,.768-6.784c.3-.1.432-.192.432-.352,0-.112-.112-.192-.272-.224ZM7.8,134.4a4.512,4.512,0,0,0-.7,2.416,2.652,2.652,0,0,0,1.04,2.24c.976.7,2.272.976,4.784.976a19.811,19.811,0,0,0,4.56-.464c-.016-.336-.016-.48-.016-.688a9.7,9.7,0,0,1,.08-1.216,15.988,15.988,0,0,1-4.784.64c-2.944,0-3.984-.48-3.984-1.808a2.314,2.314,0,0,1,.5-1.392Zm.656-4.96c.864,1.392,1.552,1.728,3.392,1.728a17.815,17.815,0,0,0,4.72-.544l-.416-1.616a17.138,17.138,0,0,1-3.952.528c-1.6,0-1.872-.112-2.464-.928Zm1.44,15.536A22.922,22.922,0,0,1,9.652,148a1.2,1.2,0,0,1-.032.176c-.192.016-.3.016-.512.016a13.785,13.785,0,0,1-2.688-.256L6.244,149.5a10.628,10.628,0,0,0,2.384.256c.176,0,.352,0,.768-.016a25.612,25.612,0,0,1-1.1,4.88l1.6.544a8.581,8.581,0,0,1,1.248-1.328,5.374,5.374,0,0,1,3.472-1.392c1.056,0,1.792.592,1.792,1.456,0,1.136-.944,2.064-2.784,2.736a17.518,17.518,0,0,1-3.936.864,4.357,4.357,0,0,1,.72,1.616,20.934,20.934,0,0,0,4.048-.928c2.32-.864,3.632-2.352,3.632-4.16,0-1.856-1.3-2.96-3.424-2.96a7.257,7.257,0,0,0-4.016,1.264c.176-.912.272-1.424.448-2.752a12.978,12.978,0,0,0,4.1-1.328l-.64-1.424a13.37,13.37,0,0,1-3.248,1.152c.048-.416.064-.48.256-2.16.32-.16.416-.24.416-.352a.272.272,0,0,0-.24-.24Zm-1.12,19.632A10.525,10.525,0,0,1,12.5,166.5l.96-1.456a11.451,11.451,0,0,0-3.92-1.856ZM8.1,166.24a5.082,5.082,0,0,0-.064.64c-.048.592-.048.736-.1,1.216-.192,1.968-.272,3.344-.272,4.512,0,.368,0,.544.016,1.36L9.332,174a5.115,5.115,0,0,1,1.472-2.4,5.382,5.382,0,0,1,3.872-1.744c1.216,0,1.92.608,1.92,1.68a2.989,2.989,0,0,1-2.144,2.656,13.99,13.99,0,0,1-3.84.8,7.519,7.519,0,0,1,.464,1.76,19.329,19.329,0,0,0,3.968-.944c2.144-.848,3.3-2.32,3.3-4.224,0-2.016-1.392-3.232-3.68-3.232a6.545,6.545,0,0,0-5.3,2.832h-.08a31.073,31.073,0,0,1,.416-4.016c.256-.08.352-.16.352-.272a.253.253,0,0,0-.224-.24Z" transform="translate(1304.203 532)" fill="#2d2c2f"/>
    <g id="グループ_274" data-name="グループ 274" transform="translate(561.703 -819)">
      <circle id="楕円形_2" data-name="楕円形 2" cx="11" cy="11" r="11" transform="translate(745 1539.5)" fill="#2d2c2f"/>
      <g id="グループ_59" data-name="グループ 59" transform="translate(751.369 1546.691)">
        <g id="グループ_58" data-name="グループ 58" clip-path="url(#clip-path-2)">
          <path id="パス_2610" data-name="パス 2610" d="M9.262,3.808a.635.635,0,0,0-.155-.393L6.06.178A.654.654,0,0,0,5.227.13a.6.6,0,0,0,.006.833L7.376,3.237H.571a.571.571,0,0,0,0,1.142h6.8L5.233,6.653a.629.629,0,0,0-.006.833.647.647,0,0,0,.833-.048L9.107,4.2A.549.549,0,0,0,9.262,3.808Z" fill="#fff"/>
        </g>
      </g>
    </g>
  </g>
</svg>
