<svg xmlns="http://www.w3.org/2000/svg" xmlns:xlink="http://www.w3.org/1999/xlink" width="20.713" height="20.713" viewBox="0 0 20.713 20.713">
  <defs>
    <clipPath id="clip-path">
      <rect id="長方形_335" data-name="長方形 335" width="20.713" height="20.713" fill="#d39c38"/>
    </clipPath>
  </defs>
  <g id="グループ_121" data-name="グループ 121" clip-path="url(#clip-path)">
    <path id="パス_2806" data-name="パス 2806" d="M20.838,10.419A10.419,10.419,0,1,0,8.791,20.711V13.431H6.145V10.419H8.791v-2.3A3.677,3.677,0,0,1,12.726,4.07a16.022,16.022,0,0,1,2.332.2V6.837H13.745a1.506,1.506,0,0,0-1.7,1.627v1.954h2.89l-.462,3.012H12.047v7.281a10.421,10.421,0,0,0,8.791-10.292" transform="translate(-0.025 -0.099)" fill="#d39c38"/>
    <path id="パス_2807" data-name="パス 2807" d="M310.329,209.361l.462-3.012H307.9v-1.954a1.506,1.506,0,0,1,1.7-1.627h1.314V200.2a16.022,16.022,0,0,0-2.332-.2,3.677,3.677,0,0,0-3.935,4.054v2.3H302v3.012h2.645v7.281a10.529,10.529,0,0,0,3.256,0v-7.281Z" transform="translate(-295.88 -196.029)" fill="#faf8f5"/>
  </g>
</svg>
