<svg id="グループ_120" data-name="グループ 120" xmlns="http://www.w3.org/2000/svg" xmlns:xlink="http://www.w3.org/1999/xlink" width="20.307" height="20.307" viewBox="0 0 20.307 20.307">
  <defs>
    <clipPath id="clip-path">
      <rect id="長方形_334" data-name="長方形 334" width="20.307" height="20.308" fill="#d39c38"/>
    </clipPath>
  </defs>
  <g id="グループ_119" data-name="グループ 119" clip-path="url(#clip-path)">
    <path id="パス_2803" data-name="パス 2803" d="M10.153,1.83c2.711,0,3.032.01,4.1.059a5.618,5.618,0,0,1,1.885.35A3.146,3.146,0,0,1,17.309,3a3.146,3.146,0,0,1,.76,1.167,5.618,5.618,0,0,1,.35,1.885c.049,1.071.059,1.392.059,4.1s-.01,3.032-.059,4.1a5.618,5.618,0,0,1-.35,1.885,3.363,3.363,0,0,1-1.927,1.927,5.618,5.618,0,0,1-1.885.35c-1.07.049-1.392.059-4.1.059s-3.032-.01-4.1-.059a5.618,5.618,0,0,1-1.885-.35A3.147,3.147,0,0,1,3,17.31a3.146,3.146,0,0,1-.76-1.167,5.619,5.619,0,0,1-.35-1.885c-.049-1.071-.059-1.392-.059-4.1s.01-3.032.059-4.1a5.619,5.619,0,0,1,.35-1.885A3.146,3.146,0,0,1,3,3a3.147,3.147,0,0,1,1.167-.76,5.618,5.618,0,0,1,1.885-.35c1.071-.049,1.392-.059,4.1-.059m0-1.83C7.4,0,7.049.012,5.966.061A7.454,7.454,0,0,0,3.5.533,4.977,4.977,0,0,0,1.7,1.7,4.977,4.977,0,0,0,.532,3.5,7.453,7.453,0,0,0,.06,5.967C.011,7.05,0,7.4,0,10.154s.012,3.1.061,4.186A7.453,7.453,0,0,0,.532,16.8,4.977,4.977,0,0,0,1.7,18.6a4.977,4.977,0,0,0,1.8,1.171,7.454,7.454,0,0,0,2.465.472c1.083.049,1.429.061,4.186.061s3.1-.012,4.186-.061a7.453,7.453,0,0,0,2.465-.472,5.192,5.192,0,0,0,2.97-2.97,7.453,7.453,0,0,0,.472-2.465c.049-1.083.061-1.429.061-4.186s-.012-3.1-.061-4.186A7.453,7.453,0,0,0,19.773,3.5,4.978,4.978,0,0,0,18.6,1.7,4.978,4.978,0,0,0,16.8.533,7.453,7.453,0,0,0,14.339.061C13.256.012,12.91,0,10.153,0" transform="translate(0.001 0)" fill="#d39c38"/>
    <path id="パス_2804" data-name="パス 2804" d="M127.769,122.556a5.214,5.214,0,1,0,5.214,5.214,5.214,5.214,0,0,0-5.214-5.214m0,8.6a3.385,3.385,0,1,1,3.385-3.385,3.385,3.385,0,0,1-3.385,3.385" transform="translate(-117.615 -117.616)" fill="#d39c38"/>
    <path id="パス_2805" data-name="パス 2805" d="M358.6,88.433a1.218,1.218,0,1,1-1.218-1.218,1.218,1.218,0,0,1,1.218,1.218" transform="translate(-341.811 -83.7)" fill="#d39c38"/>
  </g>
</svg>
