<?xml version="1.0" encoding="UTF-8"?>
<svg id="Layer_2" data-name="Layer 2" xmlns="http://www.w3.org/2000/svg" xmlns:xlink="http://www.w3.org/1999/xlink" viewBox="0 0 297.02 291.52">
  <defs>
    <style>
      .cls-1, .cls-2, .cls-3 {
        fill: #2b653a;
      }

      .cls-2 {
        font-size: 21px;
      }

      .cls-2, .cls-3 {
        font-family: Jun101Pro-Light, 'Jun101Pro Light-90ms-RKSJ-H';
        font-weight: 300;
      }

      .cls-4 {
        clip-path: url(#clippath);
      }

      .cls-5 {
        fill: none;
      }

      .cls-3 {
        font-size: 72px;
      }
    </style>
    <clipPath id="clippath">
      <rect class="cls-5" width="297.02" height="291.52"/>
    </clipPath>
  </defs>
  <g id="_ƒŒƒCƒ__1" data-name="ƒŒƒCƒ„[_1">
    <g class="cls-4">
      <g>
        <g>
          <path class="cls-1" d="m277.2,204.09s.09,0,.13.01c-.02-.07-.03-.15-.05-.22-.03.07-.05.14-.08.21Z"/>
          <path class="cls-1" d="m268.39,156.97c-.55-.26-1.09-.2-1.62.15-.91.63-1.8,2.26-1.58,4.37.48,4.54,1.91,7.68,3.9,8.62.59.27,1.22.37,1.93.3.7-.26,2.05-2.18.43-8.17-1.03-3.82-2.36-4.94-3.07-5.27Z"/>
          <path class="cls-1" d="m268.93,146.79c-1.13-2.34-2.41-3.94-3.6-4.5-.69-.32-1.31-.27-1.84.16-.89.73-1.51,2.63-.88,4.69,1.2,3.98,2.92,6.67,4.84,7.56.81.38,1.65.44,2.57.18.64-.38,1.61-2.5-1.09-8.1Z"/>
          <path class="cls-1" d="m270.09,176.55c-1.26-3.89-2.64-5.02-3.34-5.35-.51-.24-.97-.21-1.42.09-.83.55-1.66,2.13-1.49,4.28.35,4.63,1.72,7.82,3.73,8.77.54.25,1.11.36,1.76.32.45-.25,2.78-1.87.76-8.1Z"/>
          <path class="cls-1" d="m263.95,197.28c.47.22.98.33,1.56.33.46-.22,2.9-1.69,1.28-8.04-1.08-4.26-2.53-5.34-3.1-5.6-.47-.22-.92-.19-1.36.09-.84.52-1.74,2.04-1.72,4.15.06,4.8,1.27,8.11,3.34,9.08h0Z"/>
          <path class="cls-1" d="m260.66,197.4c-.42-.19-.84-.17-1.3.08-.89.48-1.88,1.87-2.09,3.89-.41,3.76,0,6.65,1.14,8.31.03.01.06.01.09.03.49.23,1.01.63,1.46,1.29.32.14.67.23,1.05.28.3-.1,1.39-.6,1.99-2.46.04-.14.07-.28.12-.42.3-1.15.41-2.74.12-4.97-.6-4.62-2-5.74-2.58-6.01Z"/>
          <path class="cls-1" d="m259.31,220.26c.12-.74.2-1.58.22-2.56.05-2.89-.4-4.49-.88-5.38-.51-.29-.96-.67-1.35-1.13-.27-.03-.56.02-.87.16-1.09.5-2.07,1.87-2.49,3.5-.17.65-.37,1.55-.52,2.53.02.99-.06,1.83-.2,2.56,0,2.12.52,4.16,2.28,4.98.21.1.44.18.69.25.05-.01.14-.03.24-.07.21-.59.44-1.19.71-1.82.52-1.22,1.29-2.27,2.19-3.03Z"/>
          <path class="cls-1" d="m257.68,211.3c-.13-.06-.26-.09-.39-.1.39.46.84.84,1.35,1.13-.37-.68-.76-.94-.96-1.03Z"/>
          <path class="cls-1" d="m283.03,171.21c-1.02-3.84-2.35-4.96-3.05-5.29-.55-.26-1.09-.2-1.62.15-.92.62-1.81,2.26-1.59,4.37.46,4.56,1.88,7.71,3.88,8.64.58.27,1.21.37,1.92.3.7-.26,2.06-2.17.47-8.17Z"/>
          <path class="cls-1" d="m281.87,152.39c-.6-.28-1.17-.23-1.69.16-.93.69-1.69,2.46-1.31,4.51.79,4.38,2.32,7.3,4.3,8.23h0c.67.31,1.38.4,2.18.26.68-.31,1.88-2.31-.17-8.17-1.25-3.58-2.61-4.66-3.31-4.98Z"/>
          <path class="cls-1" d="m279.25,137.62c-.93.69-1.68,2.47-1.29,4.53.82,4.36,2.36,7.27,4.34,8.19.67.31,1.39.4,2.19.26.68-.32,1.87-2.33-.21-8.17-1.27-3.55-2.63-4.63-3.33-4.96-.11-.05-.22-.08-.33-.11-.16,0-.31-.04-.47-.06-.31.01-.61.11-.9.32Z"/>
          <path class="cls-1" d="m280.21,185.39c-1.08-4.26-2.52-5.35-3.09-5.61-.47-.22-.91-.19-1.36.09-.84.52-1.74,2.04-1.72,4.15.05,4.8,1.26,8.12,3.33,9.09.46.21.98.33,1.55.33.07-.03.18-.09.32-.19.28-.42.59-.81.93-1.14.58-1.13.94-3.16.05-6.7Z"/>
          <path class="cls-1" d="m269.74,195.6c-.39,5.01.62,8.45,2.77,9.46.38.18.8.29,1.27.33.48-.18,3.04-1.44,2-7.91-.73-4.53-2.14-5.65-2.71-5.92-.43-.2-.86-.17-1.31.08-.88.5-1.85,1.91-2.01,3.95Z"/>
          <path class="cls-1" d="m264.67,209.67c-.47,2.47-1.21,8.36,2.01,9.87.28.13.58.23.91.29.43-.11,2.41-.86,2.81-5.08.01-.24.03-.48.05-.73.03-.57.03-1.18,0-1.86-.24-4.96-1.73-6.03-2.18-6.24-.39-.18-.82-.16-1.27.07-.75.37-1.62,1.36-2.1,2.82-.05.21-.11.43-.17.62-.02.08-.04.16-.06.24Z"/>
          <path class="cls-1" d="m264.89,208.81c-.06.2-.12.4-.17.62.06-.19.12-.41.17-.62Z"/>
          <path class="cls-1" d="m257.92,226.37c-.61,1.95-1.06,4.31-.44,6.06.14-.28.29-.58.43-.86.21-.43.74-.62,1.19-.41,0,0,0,0,0,0,.44.21.62.72.41,1.14-.28.57-.58,1.16-.87,1.75.19.15.41.28.65.39h0s.1.05.15.07c.52-.02,3.35-.46,4.46-6.91.73-4.25-.04-6.25-1-6.7-.44-.21-.94-.1-1.28.02-.22.08-.43.2-.65.34-.63,3.01-1.95,4.45-3.07,5.12Z"/>
          <path class="cls-1" d="m258.52,224.66c-.2.5-.41,1.08-.61,1.7,1.11-.67,2.43-2.1,3.07-5.12-.44.28-.87.68-1.24,1.15-.34,1-.77,1.73-1.21,2.26Z"/>
          <path class="cls-1" d="m258.81,223.97c-.09.21-.19.44-.29.7.44-.53.87-1.26,1.21-2.26-.36.46-.68.98-.93,1.56Z"/>
          <path class="cls-1" d="m280.63,127.39c-1.74-2.72-3.12-3.76-3.97-4.16-.76-.36-1.38-.33-1.85.06-.79.68-1.23,2.53-.5,4.64,1.32,3.82,3.1,6.41,5,7.3h0c.3.14.61.23.92.28.21,0,.41.01.62.05.36,0,.73-.05,1.11-.16.37-.35,2.22-2.48-1.33-8.02Z"/>
          <path class="cls-1" d="m280.85,135.57c-.21-.04-.42-.05-.62-.05.21.04.41.05.62.05Z"/>
          <path class="cls-1" d="m296.53,154.72c-.86-4.15-2.28-5.22-2.85-5.49-.52-.24-1.05-.19-1.58.15-.93.59-1.87,2.17-1.78,4.25.17,3.76,1.04,6.59,2.42,8.06.11.04.23.06.34.11.38.18.79.46,1.19.89.41.13.86.19,1.34.16.72-.22,2.17-2.06.92-8.13Z"/>
          <path class="cls-1" d="m294.13,138.73c-1.35-3.44-2.72-4.5-3.42-4.83-.63-.29-1.2-.24-1.73.16-.93.71-1.63,2.51-1.17,4.58.94,4.25,2.53,7.1,4.48,8.01.71.33,1.47.41,2.3.23.67-.33,1.8-2.38-.47-8.16Z"/>
          <path class="cls-1" d="m287.15,119.16c-.92.74-1.55,2.58-.98,4.66,1.12,4.07,2.8,6.81,4.73,7.71h0c.78.37,1.59.43,2.48.2.65-.37,1.67-2.46-.89-8.12-1.48-3.25-2.86-4.28-3.55-4.6-.08-.04-.14-.05-.22-.08-.31,0-.61-.02-.92-.07-.23.05-.45.14-.65.31Z"/>
          <path class="cls-1" d="m290.25,116.79c.57-.48,1.18-2.72-2.43-7.81-1.66-2.34-2.98-3.29-3.79-3.67-.92-.43-1.66-.38-2.2.14-.87.84-1.17,2.89-.19,4.87,1.63,3.3,3.55,5.59,5.38,6.45.27.12.53.22.79.28.36-.04.74,0,1.11.08.44-.04.88-.13,1.32-.34Z"/>
          <path class="cls-1" d="m288.92,117.12c-.37-.08-.75-.12-1.11-.08.37.09.74.1,1.11.08Z"/>
          <path class="cls-1" d="m291.79,163.28c-.27-.02-.53.04-.82.19-.89.48-1.89,1.85-2.12,3.86-.6,5.09.31,8.59,2.49,9.61h0c.34.16.72.27,1.14.32.49-.16,3.09-1.33,2.31-7.83-.35-2.95-1.05-4.48-1.65-5.28-.03-.01-.06-.02-.08-.03-.46-.21-.88-.5-1.27-.85Z"/>
          <path class="cls-1" d="m291.79,163.28c.39.35.82.64,1.27.85.02.01.05.02.08.03-.35-.45-.67-.67-.87-.77-.16-.07-.32-.1-.48-.11Z"/>
          <path class="cls-1" d="m285.64,182.45c-.58,2.49-1.58,8.45,1.73,10h0c.24.11.5.2.78.27.5-.11,3.22-1,3.17-7.55-.04-5.07-1.52-6.16-1.98-6.38-.37-.18-.8-.15-1.26.06-1.09.51-2.05,1.93-2.44,3.6Z"/>
          <path class="cls-1" d="m279.96,195.83c-.87,2.64-2.51,9.12,1.57,10.44.51-.07,3.3-.73,3.84-7.26.43-5.23-1.04-6.34-1.49-6.55-.36-.17-.79-.16-1.27.04-.32.14-.64.35-.94.62-.33.55-.69.97-1.04,1.27-.27.44-.5.92-.67,1.43Z"/>
          <path class="cls-1" d="m281.66,193.14c-.38.34-.74.77-1.04,1.27.35-.3.71-.71,1.04-1.27Z"/>
          <path class="cls-1" d="m276.25,206.01c-1.09.44-2.16,1.7-2.72,3.21-.94,2.55-2.75,8.66.85,10.35.11.05.22.1.34.14.51-.05,3.32-.62,4.09-7.13.5-4.2-.34-6.17-1.29-6.62-.36-.17-.78-.16-1.27.04Z"/>
          <path class="cls-1" d="m256.26,194.6c.68-.31,1.9-2.31-.13-8.17-1.24-3.59-2.6-4.68-3.3-5-.59-.28-1.16-.23-1.68.16-.94.69-1.69,2.45-1.33,4.51.78,4.39,2.3,7.32,4.28,8.25.66.31,1.37.39,2.16.26Z"/>
          <path class="cls-1" d="m256.01,171.68c-1.38-3.41-2.75-4.46-3.44-4.79-.64-.3-1.21-.25-1.74.16-.93.72-1.62,2.52-1.14,4.6.97,4.22,2.58,7.05,4.54,7.96.72.34,1.49.41,2.33.23.66-.34,1.77-2.39-.55-8.16Z"/>
          <path class="cls-1" d="m254.3,200.47c-1.33-3.81-2.71-4.93-3.42-5.26-.52-.24-1-.21-1.44.09-.83.56-1.63,2.15-1.41,4.32.45,4.56,1.87,7.72,3.87,8.65.56.26,1.16.36,1.84.31.44-.26,2.74-1.93.58-8.11Z"/>
          <path class="cls-1" d="m248.37,208.73c-.44-.21-.87-.18-1.33.08-.88.51-1.81,1.96-1.9,4.03-.23,4.93.86,8.33,2.98,9.32.41.19.87.3,1.38.33.29-.12,1.38-.69,1.86-2.65,0-.8.07-1.65.21-2.56-.03-.79-.12-1.7-.33-2.75-.86-4.44-2.29-5.54-2.86-5.81Z"/>
          <path class="cls-1" d="m251.56,217.28c-.14.91-.21,1.77-.21,2.56.16-.67.25-1.52.21-2.56Z"/>
          <path class="cls-1" d="m245.02,237.85c.5-.13,3.18-1.13,2.87-7.66-.24-4.96-1.73-6.04-2.18-6.25-.39-.18-.82-.16-1.27.07-.89.44-1.96,1.75-2.33,3.68-.47,2.46-1.23,8.36,2.01,9.87.28.13.58.23.91.29Z"/>
          <path class="cls-1" d="m243.02,239.01c-.52-.28-.98-.64-1.37-1.08-.06.06-.13.13-.17.21-12.39,24.54-15.19,27.75-30.54,40.33,2.27-1.03,4.5-2.13,6.69-3.3,10.96-9.38,14.53-14.67,25.39-36.16Z"/>
          <path class="cls-1" d="m243.08,238.89c.22-.43.03-.95-.41-1.15-.36-.17-.76-.07-1.02.19.39.44.85.8,1.37,1.08.02-.04.04-.08.06-.12Z"/>
          <path class="cls-1" d="m256.48,234.41c-4.39,8.61-10.45,19.09-18.11,26.48,3.87-3.34,7.58-6.97,11.14-10.89,3.22-4.81,5.99-9.8,8.31-14.32-.53-.34-.97-.77-1.34-1.27Z"/>
          <path class="cls-1" d="m259.1,231.16s0,0,0,0c-.44-.2-.98-.02-1.19.41-.14.28-.28.57-.43.86.23.64.6,1.2,1.16,1.62.3-.59.59-1.18.87-1.75.21-.43.03-.94-.41-1.14Z"/>
          <path class="cls-1" d="m256.48,234.41c.36.5.8.92,1.34,1.27.14-.28.28-.55.42-.82-.55-.37-.97-.83-1.28-1.38-.15.31-.32.62-.48.93Z"/>
          <path class="cls-1" d="m258.64,234.05c-.56-.43-.93-.98-1.16-1.62-.17.35-.34.69-.52,1.05.31.55.73,1.01,1.28,1.38.13-.27.27-.54.41-.8Z"/>
          <path class="cls-1" d="m220.92,276.45c.15-.12.3-.25.45-.37-.33.19-.67.37-1,.56.19,0,.39-.06.55-.19Z"/>
          <path class="cls-1" d="m254.09,228.21c.11-.47-.19-.93-.67-1.03-.48-.1-.96.19-1.07.65-2.74,11.56-13.94,30.49-28.11,43.49,2.58-1.62,5.11-3.35,7.59-5.2,11.33-12.52,19.88-27.91,22.26-37.92Z"/>
          <path class="cls-1" d="m265.72,227.88c-1.03,5.94-3.51,7.69-5.13,8.2-1.56,2.25-3.27,4.57-5.16,6.95-1.92,2.42-3.9,4.74-5.92,6.96-4.47,6.67-9.79,12.96-15.96,17.06-.28.18-.62.2-.9.07-.13-.06-.25-.16-.34-.29-.28-.39-.17-.93.24-1.2,2.03-1.35,3.97-2.96,5.82-4.74-2.13,1.84-4.31,3.58-6.54,5.24-3.28,3.63-6.79,7.02-10.46,9.96,13.52-7.68,25.61-18.2,36.21-31.54,6.66-8.39,11.38-16.09,14.02-22.9.26-.67-.1-1.41-.78-1.66-.12-.04-.23-.06-.35-.07-.53.64-1.08,1.05-1.56,1.3-.85,2.13-1.92,4.35-3.19,6.66Z"/>
          <path class="cls-1" d="m219.66,276.33c-.31-.37-.25-.91.13-1.21,1.51-1.2,3-2.47,4.45-3.8-2.17,1.36-4.37,2.64-6.61,3.84-2,1.71-4.25,3.56-6.83,5.67-.28.23-.66.27-.97.12-.11-.05-.21-.12-.29-.22-.32-.36-.27-.91.11-1.22.44-.36.87-.71,1.29-1.05-2.55,1.15-5.16,2.2-7.8,3.17-12.7,7.84-29.89,9.77-48.9,9.72l-3.19-2.11c-4.17.18-8.39.09-12.61-.28-17.6-1.52-36.2-7.14-52.79-14.88.12.24.3.46.57.59.41.2.87.42,1.38.66,9.98,4.67,39.09,16.65,74.06,16.19,21.79-.28,41.4-5.27,58.72-14.87-.14,0-.28-.02-.4-.08-.11-.05-.22-.13-.3-.23Z"/>
          <path class="cls-1" d="m269.1,220.76c-.06.15-.13.31-.19.46.48-.25,1.04-.66,1.56-1.3-.58-.05-1.16.28-1.37.84Z"/>
          <path class="cls-1" d="m261.7,234.46c-.36.53-.73,1.08-1.11,1.62,1.62-.51,4.1-2.27,5.13-8.2-.53.97-1.1,1.95-1.71,2.96-.67,1.86-1.51,2.97-2.31,3.62Z"/>
          <path class="cls-1" d="m264.01,230.84c-.72,1.19-1.49,2.39-2.31,3.62.8-.65,1.64-1.76,2.31-3.62Z"/>
          <path class="cls-1" d="m209.54,280.74c.08.1.18.17.29.22.31.15.69.11.97-.12,2.58-2.11,4.83-3.96,6.83-5.67-2.19,1.17-4.42,2.28-6.69,3.3-.42.34-.84.69-1.29,1.05-.38.31-.43.85-.11,1.22Z"/>
          <path class="cls-1" d="m232.54,265.63c-.41.27-.51.81-.24,1.2.09.13.21.23.34.29.28.13.62.11.9-.07,6.17-4.1,11.49-10.39,15.96-17.06-3.56,3.92-7.27,7.56-11.14,10.89-1.85,1.78-3.79,3.39-5.82,4.74Z"/>
          <path class="cls-1" d="m224.24,271.32c-1.45,1.33-2.94,2.6-4.45,3.8-.38.3-.44.85-.13,1.21.08.1.19.18.3.23.12.06.26.08.4.08.33-.19.67-.37,1-.56,3.67-2.95,7.18-6.33,10.46-9.96-2.47,1.84-5,3.57-7.59,5.2Z"/>
          <path class="cls-1" d="m85.64,272.93c.33-.64,1.09-.91,1.8-.58,7.37,3.57,31.84,14.31,62.68,16.27l-4.24-2.8c15.96-.03,27.69-.81,39.97-4.87,4.31-2.07,8.23-4.49,11.65-7.21,15.19-12.12,11.72-22.88,11.72-22.88,0,0-5.78,14.32-26.07,22.57-18.72,7.61-30.99,11.08-52.54,9.32-34.73-2.83-69.67-20.72-90.19-48.24-5.27-7.06-10.07-13.51-13.27-21.64-2.03-5.15-3.4-18.55-9.19-21.07-.65-.29-1.35-.31-2.1,0-6.69,2.78.94,16.82,2.73,19.88,8.76,15,20,29.98,33.32,41.29,9.08,7.72,20.81,15.06,33.74,21.11-.18-.35-.21-.77-.01-1.15Z"/>
          <path class="cls-1" d="m151.05,289.24l-.94-.62c-30.83-1.96-55.31-12.7-62.68-16.27-.7-.33-1.46-.06-1.8.58-.2.38-.17.79.01,1.15,16.59,7.75,35.18,13.37,52.79,14.88,4.22.36,8.45.45,12.61.28Z"/>
          <path class="cls-1" d="m156.2,288.89c1.8.04,3.61.06,5.44.04,14.88-.19,28.73-2.64,41.5-7.29,2.46-1.52,4.75-3.26,6.86-5.25,24.01-22.74,22.56-39.44,22.56-39.44,0,0-13.7,28.4-33.2,38.31-4.72,2.4-9.15,4.25-13.52,5.7-8.66,4.16-18.87,6.92-29.64,7.94Z"/>
          <path class="cls-1" d="m161.64,288.92c-1.83.02-3.64,0-5.44-.04-1.7.16-3.42.28-5.15.35l3.19,2.11c19.01.05,36.2-1.88,48.9-9.72-12.77,4.65-26.61,7.09-41.5,7.29Z"/>
          <path class="cls-1" d="m150.11,288.62c2,.13,4.03.22,6.09.27,10.77-1.02,20.98-3.77,29.64-7.94-12.27,4.06-24,4.83-39.97,4.87l4.24,2.8Z"/>
          <path class="cls-1" d="m150.11,288.62l.94.62c1.73-.07,3.45-.19,5.15-.35-2.05-.05-4.08-.14-6.09-.27Z"/>
        </g>
        <g>
          <path class="cls-1" d="m19.82,87.43s-.09,0-.13-.01c.02.07.04.15.05.22.03-.07.05-.14.08-.21Z"/>
          <path class="cls-1" d="m28.63,134.55c.55.26,1.09.2,1.62-.15.91-.63,1.8-2.26,1.58-4.37-.48-4.54-1.91-7.68-3.9-8.62-.59-.28-1.22-.37-1.93-.3-.7.26-2.05,2.18-.43,8.17,1.03,3.82,2.36,4.94,3.07,5.27Z"/>
          <path class="cls-1" d="m28.09,144.73c1.13,2.34,2.41,3.94,3.6,4.5.69.32,1.31.27,1.83-.16.89-.73,1.5-2.63.88-4.7-1.2-3.98-2.92-6.66-4.84-7.56-.82-.38-1.66-.44-2.57-.18-.64.38-1.61,2.5,1.09,8.1Z"/>
          <path class="cls-1" d="m26.93,114.97c1.26,3.89,2.64,5.02,3.35,5.35.51.24.97.21,1.42-.09.84-.55,1.66-2.13,1.49-4.28-.36-4.63-1.72-7.82-3.74-8.77-.53-.25-1.11-.35-1.76-.31-.45.24-2.78,1.87-.76,8.1Z"/>
          <path class="cls-1" d="m33.07,94.24c-.47-.22-.98-.33-1.56-.33-.46.22-2.89,1.69-1.28,8.04,1.08,4.26,2.52,5.34,3.1,5.61.47.22.91.19,1.36-.09.84-.52,1.74-2.04,1.72-4.15-.05-4.8-1.27-8.11-3.34-9.08h0Z"/>
          <path class="cls-1" d="m36.36,94.13c.42.19.84.17,1.3-.08.89-.48,1.87-1.87,2.09-3.89.4-3.76,0-6.65-1.14-8.3-.03-.01-.06-.02-.09-.03-.49-.23-1.01-.62-1.47-1.29-.32-.14-.67-.23-1.05-.28-.3.1-1.38.6-1.99,2.46-.04.14-.07.28-.12.42-.29,1.15-.42,2.74-.12,4.97.6,4.62,2,5.74,2.58,6.01Z"/>
          <path class="cls-1" d="m37.71,71.26c-.11.74-.2,1.58-.21,2.55-.05,2.89.4,4.49.88,5.38.51.3.96.67,1.35,1.13.27.03.56-.02.87-.16,1.09-.5,2.07-1.87,2.49-3.5.17-.65.37-1.55.52-2.53-.03-.99.06-1.83.2-2.56,0-2.12-.52-4.16-2.28-4.98-.21-.1-.45-.18-.69-.25-.06,0-.14.03-.24.07-.21.59-.44,1.19-.71,1.82-.53,1.22-1.3,2.27-2.2,3.03Z"/>
          <path class="cls-1" d="m39.34,80.23c.13.06.26.09.39.1-.39-.46-.84-.84-1.35-1.13.37.68.76.94.96,1.03Z"/>
          <path class="cls-1" d="m13.99,120.31c1.01,3.84,2.35,4.96,3.05,5.29.55.26,1.09.2,1.62-.15.92-.62,1.81-2.26,1.59-4.36-.46-4.55-1.88-7.7-3.88-8.64-.58-.27-1.21-.37-1.91-.3-.7.26-2.06,2.17-.47,8.17Z"/>
          <path class="cls-1" d="m15.16,139.14c.59.28,1.16.22,1.68-.16.94-.69,1.69-2.46,1.31-4.51-.8-4.38-2.32-7.3-4.3-8.23h0c-.67-.31-1.38-.4-2.18-.26-.68.31-1.88,2.32.17,8.17,1.25,3.58,2.61,4.66,3.31,4.99Z"/>
          <path class="cls-1" d="m17.77,153.9c.93-.69,1.68-2.47,1.29-4.52-.82-4.36-2.36-7.27-4.33-8.2-.67-.31-1.39-.4-2.19-.25-.68.31-1.87,2.33.21,8.17,1.27,3.55,2.63,4.63,3.33,4.96.11.05.22.08.33.11.16,0,.31.04.46.06.31-.01.61-.11.9-.33Z"/>
          <path class="cls-1" d="m16.82,106.14c1.07,4.26,2.52,5.35,3.09,5.61.47.22.91.19,1.36-.09.84-.52,1.74-2.04,1.72-4.15-.05-4.8-1.26-8.11-3.33-9.08-.46-.22-.98-.33-1.55-.33-.07.03-.18.1-.31.19-.28.42-.6.81-.93,1.15-.58,1.13-.94,3.15-.05,6.7Z"/>
          <path class="cls-1" d="m27.28,95.93c.39-5.01-.61-8.45-2.77-9.46-.38-.18-.8-.29-1.27-.33-.48.18-3.03,1.44-1.99,7.9.73,4.54,2.14,5.65,2.71,5.92.43.2.86.17,1.31-.08.88-.5,1.85-1.91,2.01-3.95Z"/>
          <path class="cls-1" d="m32.35,81.85c.47-2.46,1.22-8.36-2.02-9.87-.27-.13-.58-.23-.91-.29-.42.11-2.41.86-2.81,5.08-.01.24-.03.48-.05.73-.02.57-.03,1.17,0,1.86.24,4.96,1.73,6.03,2.18,6.24.39.18.82.16,1.27-.07.75-.37,1.62-1.36,2.1-2.82.05-.21.1-.43.17-.62.02-.08.04-.16.06-.24Z"/>
          <path class="cls-1" d="m32.13,82.72c.07-.2.12-.4.17-.62-.06.19-.11.41-.17.62Z"/>
          <path class="cls-1" d="m39.11,65.16c.61-1.94,1.06-4.31.43-6.06-.14.28-.29.58-.43.86-.21.43-.74.62-1.19.41,0,0,0,0,0,0-.44-.2-.62-.72-.41-1.14.28-.57.57-1.16.87-1.75-.19-.15-.41-.28-.65-.39h0c-.05-.03-.1-.05-.15-.07-.52.02-3.35.46-4.46,6.91-.73,4.25.04,6.25,1,6.7.44.2.94.1,1.28-.03.22-.08.44-.2.65-.34.64-3.01,1.96-4.45,3.07-5.11Z"/>
          <path class="cls-1" d="m38.5,66.86c.2-.5.41-1.08.61-1.71-1.11.67-2.43,2.1-3.07,5.11.44-.28.87-.67,1.25-1.15.34-1,.77-1.73,1.21-2.26Z"/>
          <path class="cls-1" d="m38.21,67.56c.09-.21.19-.45.29-.7-.45.53-.88,1.26-1.21,2.26.36-.46.68-.98.92-1.56Z"/>
          <path class="cls-1" d="m16.39,164.13c1.74,2.72,3.12,3.76,3.97,4.16.76.36,1.38.34,1.85-.06.79-.68,1.24-2.53.5-4.64-1.32-3.82-3.1-6.41-5-7.3h0c-.3-.14-.61-.23-.92-.28-.21,0-.41-.01-.62-.05-.36,0-.73.05-1.11.17-.37.35-2.22,2.48,1.33,8.02Z"/>
          <path class="cls-1" d="m16.17,155.95c.21.04.42.05.62.05-.2-.03-.41-.05-.62-.05Z"/>
          <path class="cls-1" d="m.49,136.81c.86,4.15,2.28,5.22,2.85,5.49.52.25,1.05.2,1.58-.15.92-.59,1.87-2.18,1.78-4.24-.17-3.76-1.04-6.59-2.42-8.06-.11-.04-.23-.06-.34-.11-.38-.18-.79-.46-1.19-.89-.41-.13-.85-.19-1.34-.17-.71.23-2.17,2.06-.92,8.13Z"/>
          <path class="cls-1" d="m2.89,152.8c1.35,3.44,2.72,4.5,3.41,4.83.63.3,1.2.24,1.73-.16.93-.71,1.63-2.51,1.17-4.58-.93-4.25-2.53-7.1-4.49-8.02-.71-.33-1.46-.41-2.3-.23-.67.33-1.8,2.38.47,8.16Z"/>
          <path class="cls-1" d="m9.87,172.36c.92-.74,1.55-2.58.97-4.66-1.12-4.07-2.8-6.8-4.73-7.71h0c-.78-.36-1.59-.43-2.48-.2-.65.37-1.68,2.46.89,8.12,1.48,3.25,2.86,4.28,3.54,4.6.08.04.15.05.23.08.3,0,.61.02.92.07.23-.05.45-.14.66-.31Z"/>
          <path class="cls-1" d="m6.77,174.74c-.57.48-1.18,2.71,2.43,7.81,1.66,2.34,2.98,3.29,3.79,3.67.92.43,1.66.38,2.2-.14.87-.84,1.18-2.89.19-4.87-1.63-3.3-3.54-5.59-5.38-6.45-.27-.12-.53-.22-.79-.28-.36.04-.74,0-1.11-.08-.44.03-.88.13-1.32.34Z"/>
          <path class="cls-1" d="m8.1,174.4c.38.09.75.12,1.11.08-.37-.09-.74-.11-1.11-.08Z"/>
          <path class="cls-1" d="m5.23,128.24c.27.02.53-.04.82-.19.89-.48,1.88-1.85,2.12-3.86.6-5.09-.31-8.59-2.49-9.61h0c-.34-.16-.72-.27-1.14-.32-.49.16-3.09,1.33-2.31,7.83.36,2.95,1.05,4.48,1.65,5.27.03,0,.06.02.08.03.46.21.88.5,1.27.85Z"/>
          <path class="cls-1" d="m5.23,128.24c-.39-.35-.82-.64-1.27-.85-.03-.01-.05-.02-.08-.03.35.45.67.67.88.77.15.07.31.1.47.12Z"/>
          <path class="cls-1" d="m11.38,109.08c.58-2.49,1.58-8.45-1.73-10h0c-.24-.11-.5-.2-.78-.27-.5.11-3.22,1-3.17,7.55.04,5.07,1.52,6.16,1.98,6.38.38.17.8.15,1.26-.06,1.09-.51,2.05-1.92,2.44-3.6Z"/>
          <path class="cls-1" d="m17.07,95.69c.87-2.65,2.51-9.12-1.57-10.44-.51.07-3.3.73-3.84,7.26-.43,5.22,1.04,6.33,1.49,6.55.37.17.79.15,1.27-.05.32-.13.64-.35.94-.62.32-.56.69-.97,1.04-1.27.26-.44.49-.92.66-1.43Z"/>
          <path class="cls-1" d="m15.36,98.38c.38-.34.73-.77,1.04-1.27-.35.3-.72.71-1.04,1.27Z"/>
          <path class="cls-1" d="m20.77,85.52c1.09-.44,2.16-1.7,2.72-3.21.94-2.55,2.75-8.67-.85-10.35-.11-.05-.22-.1-.34-.14-.51.05-3.32.62-4.09,7.12-.5,4.2.34,6.17,1.29,6.62.36.17.79.15,1.27-.04Z"/>
          <path class="cls-1" d="m40.76,96.92c-.68.31-1.89,2.3.13,8.17,1.24,3.59,2.6,4.68,3.3,5,.59.28,1.16.22,1.68-.16.93-.68,1.7-2.45,1.33-4.51-.78-4.39-2.3-7.32-4.28-8.25-.66-.31-1.37-.4-2.16-.26Z"/>
          <path class="cls-1" d="m41.01,119.84c1.38,3.41,2.75,4.47,3.44,4.79.64.3,1.21.25,1.74-.16.93-.71,1.62-2.52,1.14-4.59-.97-4.22-2.58-7.05-4.54-7.96-.72-.34-1.49-.42-2.33-.23-.66.34-1.77,2.39.55,8.15Z"/>
          <path class="cls-1" d="m42.72,91.05c1.33,3.81,2.71,4.93,3.42,5.26.52.24,1,.21,1.44-.09.83-.56,1.63-2.16,1.41-4.32-.45-4.56-1.87-7.72-3.87-8.66-.56-.26-1.16-.36-1.84-.31-.44.26-2.74,1.93-.58,8.11Z"/>
          <path class="cls-1" d="m48.65,82.8c.44.21.87.18,1.32-.08.88-.51,1.81-1.96,1.91-4.03.23-4.93-.86-8.33-2.98-9.32-.41-.19-.87-.3-1.37-.33-.3.12-1.38.69-1.86,2.65,0,.79-.07,1.65-.21,2.56.03.79.12,1.7.33,2.75.86,4.44,2.29,5.54,2.86,5.81Z"/>
          <path class="cls-1" d="m45.46,74.24c.13-.91.21-1.77.21-2.56-.16.67-.25,1.52-.21,2.56Z"/>
          <path class="cls-1" d="m52.01,53.68c-.5.13-3.18,1.13-2.87,7.66.23,4.96,1.73,6.04,2.18,6.25.39.18.82.16,1.28-.07.89-.44,1.96-1.75,2.33-3.68.47-2.46,1.23-8.36-2-9.87-.28-.13-.58-.23-.91-.29Z"/>
          <path class="cls-1" d="m54,52.52c.52.28.98.65,1.37,1.09.07-.06.13-.13.17-.21,12.39-24.54,15.19-27.75,30.54-40.33-2.27,1.03-4.5,2.13-6.69,3.31-10.96,9.38-14.54,14.66-25.39,36.15Z"/>
          <path class="cls-1" d="m53.94,52.64c-.21.43-.03.95.41,1.15.35.16.76.07,1.02-.19-.39-.44-.85-.8-1.37-1.09-.02.04-.04.08-.06.12Z"/>
          <path class="cls-1" d="m40.54,57.12c4.39-8.61,10.45-19.09,18.11-26.48-3.87,3.34-7.58,6.97-11.14,10.89-3.22,4.81-5.99,9.8-8.31,14.32.53.34.97.77,1.34,1.27Z"/>
          <path class="cls-1" d="m37.92,60.36s0,0,0,0c.44.2.98.02,1.19-.41.14-.28.29-.57.43-.86-.23-.64-.6-1.2-1.16-1.62-.3.59-.59,1.18-.87,1.75-.21.43-.03.94.41,1.14Z"/>
          <path class="cls-1" d="m40.54,57.12c-.36-.5-.8-.93-1.34-1.27-.14.27-.28.55-.42.82.54.37.97.83,1.28,1.38.15-.31.31-.62.47-.93Z"/>
          <path class="cls-1" d="m38.38,57.47c.56.42.93.98,1.16,1.62.17-.35.35-.69.53-1.05-.31-.54-.74-1.01-1.28-1.38-.14.27-.27.54-.41.8Z"/>
          <path class="cls-1" d="m76.1,15.07c-.15.12-.3.24-.45.36.33-.19.67-.37,1-.55-.19,0-.39.06-.55.19Z"/>
          <path class="cls-1" d="m42.93,63.31c-.11.47.19.93.67,1.03.48.1.96-.19,1.07-.65,2.75-11.56,13.95-30.49,28.11-43.49-2.59,1.62-5.11,3.35-7.59,5.2-11.33,12.52-19.88,27.91-22.26,37.92Z"/>
          <path class="cls-1" d="m31.3,63.65c1.02-5.94,3.51-7.69,5.13-8.2,1.56-2.25,3.27-4.57,5.16-6.95,1.92-2.42,3.9-4.73,5.92-6.96,4.47-6.67,9.79-12.96,15.96-17.06.27-.18.61-.2.89-.06.13.06.25.16.35.29.27.39.17.93-.24,1.2-2.04,1.35-3.97,2.96-5.82,4.74,2.13-1.84,4.31-3.58,6.54-5.24,3.28-3.63,6.8-7.01,10.46-9.96-13.52,7.67-25.62,18.2-36.21,31.53-6.66,8.39-11.37,16.09-14.02,22.9-.26.67.1,1.41.78,1.66.12.04.23.06.35.07.52-.64,1.08-1.05,1.56-1.3.85-2.13,1.91-4.35,3.18-6.66Z"/>
          <path class="cls-1" d="m77.35,15.19c.31.37.25.91-.13,1.21-1.51,1.19-2.99,2.47-4.44,3.8,2.16-1.36,4.37-2.64,6.61-3.84,2-1.71,4.25-3.56,6.83-5.67.28-.23.66-.26.97-.12.11.05.21.13.29.22.31.36.26.91-.11,1.22-.44.36-.86.71-1.29,1.05,2.55-1.15,5.16-2.2,7.8-3.17C106.59,2.05,123.77.12,142.78.17l3.19,2.11c4.16-.17,8.38-.09,12.61.28,17.6,1.52,36.2,7.14,52.78,14.89-.12-.24-.3-.46-.57-.59-.41-.2-.86-.42-1.37-.66C199.45,11.53,170.33-.45,135.36.01c-21.79.28-41.4,5.27-58.71,14.87.14,0,.28.02.4.08.11.05.22.13.3.23Z"/>
          <path class="cls-1" d="m27.92,70.77c.06-.15.13-.31.19-.46-.48.25-1.04.66-1.56,1.3.58.04,1.16-.28,1.37-.84Z"/>
          <path class="cls-1" d="m35.32,57.07c.36-.54.73-1.08,1.11-1.62-1.62.51-4.1,2.27-5.13,8.2.53-.97,1.1-1.95,1.71-2.96.67-1.86,1.51-2.97,2.31-3.62Z"/>
          <path class="cls-1" d="m33.01,60.69c.72-1.18,1.49-2.39,2.31-3.62-.8.65-1.64,1.76-2.31,3.62Z"/>
          <path class="cls-1" d="m87.48,10.79c-.08-.09-.18-.17-.29-.22-.31-.14-.69-.11-.97.12-2.58,2.11-4.83,3.96-6.83,5.67,2.19-1.17,4.42-2.28,6.69-3.31.42-.34.85-.69,1.29-1.05.38-.31.43-.85.11-1.22Z"/>
          <path class="cls-1" d="m64.48,25.9c.41-.27.51-.81.24-1.2-.09-.13-.21-.23-.35-.29-.28-.13-.62-.12-.89.06-6.17,4.1-11.5,10.39-15.96,17.06,3.56-3.92,7.27-7.56,11.14-10.89,1.85-1.78,3.79-3.39,5.82-4.74Z"/>
          <path class="cls-1" d="m72.78,20.2c1.45-1.33,2.93-2.6,4.44-3.8.38-.3.44-.85.13-1.21-.08-.1-.18-.18-.3-.23-.12-.06-.26-.08-.4-.08-.33.18-.67.37-1,.55-3.66,2.95-7.18,6.33-10.46,9.96,2.47-1.84,5-3.57,7.59-5.2Z"/>
          <path class="cls-1" d="m211.38,18.59c-.33.64-1.1.91-1.8.58-7.37-3.57-31.85-14.31-62.68-16.27l4.24,2.8c-15.96.04-27.7.81-39.97,4.87-4.3,2.07-8.23,4.49-11.65,7.21-15.19,12.12-11.72,22.88-11.72,22.88,0,0,5.79-14.32,26.08-22.57,18.72-7.61,30.98-11.08,52.54-9.32,34.73,2.83,69.67,20.71,90.19,48.24,5.26,7.06,10.07,13.51,13.26,21.64,2.03,5.15,3.4,18.55,9.19,21.07.65.28,1.35.31,2.09,0,6.7-2.77-.94-16.82-2.72-19.88-8.76-15.01-20-29.98-33.32-41.3-9.09-7.72-20.81-15.06-33.75-21.11.18.35.21.77.01,1.15Z"/>
          <path class="cls-1" d="m145.97,2.28l.94.62c30.83,1.96,55.31,12.7,62.68,16.27.7.32,1.46.06,1.8-.58.2-.38.16-.8-.01-1.15-16.59-7.75-35.18-13.37-52.78-14.89-4.23-.37-8.45-.45-12.61-.28Z"/>
          <path class="cls-1" d="m140.82,2.64c-1.8-.04-3.61-.06-5.44-.04-14.88.19-28.73,2.64-41.5,7.29-2.46,1.52-4.76,3.26-6.86,5.25-24.01,22.74-22.56,39.44-22.56,39.44,0,0,13.71-28.4,33.2-38.31,4.72-2.4,9.15-4.25,13.52-5.69,8.66-4.16,18.87-6.92,29.64-7.94Z"/>
          <path class="cls-1" d="m135.38,2.6c1.83-.03,3.64,0,5.44.04,1.7-.16,3.42-.28,5.15-.36l-3.19-2.11c-19.01-.05-36.19,1.88-48.9,9.72,12.77-4.65,26.62-7.09,41.5-7.29Z"/>
          <path class="cls-1" d="m146.91,2.91c-2-.13-4.04-.22-6.09-.26-10.77,1.02-20.98,3.77-29.64,7.94,12.27-4.06,24-4.83,39.97-4.87l-4.24-2.8Z"/>
          <path class="cls-1" d="m146.91,2.91l-.94-.62c-1.73.07-3.45.19-5.15.36,2.05.05,4.09.14,6.09.26Z"/>
        </g>
      </g>
      <text class="cls-3" transform="translate(76.51 115.03)"><tspan x="0" y="0">橋本</tspan><tspan x="0" y="72">農場</tspan></text>
      <rect class="cls-1" x="61.52" y="206.02" width="173.99" height="2.83"/>
      <text class="cls-2" transform="translate(73.68 235.68)"><tspan x="0" y="0">hashimoto farm</tspan></text>
    </g>
  </g>
</svg>