<svg xmlns="http://www.w3.org/2000/svg" xmlns:xlink="http://www.w3.org/1999/xlink" width="42.146" height="42.146" viewBox="0 0 42.146 42.146">
  <defs>
    <clipPath id="clip-path">
      <rect id="長方形_562" data-name="長方形 562" width="18" height="18" transform="translate(0.339 0.339)" fill="#faf8f5"/>
    </clipPath>
  </defs>
  <g id="グループ_302" data-name="グループ 302" transform="translate(-487.148 -811.816)">
    <circle id="楕円形_34" data-name="楕円形 34" cx="21.073" cy="21.073" r="21.073" transform="translate(487.148 811.816)" fill="#2d2c2f"/>
    <g id="グループ_252" data-name="グループ 252" transform="translate(498.882 823.55)">
      <g id="グループ_251" data-name="グループ 251" clip-path="url(#clip-path)">
        <path id="パス_5399" data-name="パス 5399" d="M14.768,11.993a.865.865,0,0,0-.914.162,22.851,22.851,0,0,0-1.916,2.053.7.7,0,0,1-.876.159,16.861,16.861,0,0,1-3.641-2.78A16.733,16.733,0,0,1,4.644,7.946.7.7,0,0,1,4.8,7.071a22.9,22.9,0,0,0,2.05-1.917.864.864,0,0,0,.162-.913A11.1,11.1,0,0,0,4.16.031a3.6,3.6,0,0,0-3.131,1.3A3.827,3.827,0,0,0,.008,4.211c.186,2.954,2,6.594,5.1,9.693s6.739,4.91,9.693,5.1a3.827,3.827,0,0,0,2.881-1.02,3.6,3.6,0,0,0,1.3-3.131,11.1,11.1,0,0,0-4.21-2.856" transform="translate(0 0)" fill="#faf8f5"/>
      </g>
    </g>
  </g>
</svg>
