<svg xmlns="http://www.w3.org/2000/svg" xmlns:xlink="http://www.w3.org/1999/xlink" width="1366" height="75.587" viewBox="0 0 1366 75.587">
  <defs>
    <clipPath id="clip-path">
      <rect width="605.189" height="8.847" fill="none"/>
    </clipPath>
    <clipPath id="clip-path-2">
      <rect width="610.711" height="8.847" fill="none"/>
    </clipPath>
  </defs>
  <g id="グループ_285" data-name="グループ 285" transform="translate(0 -2417.127)">
    <text id="HOW_TO_MAKE" data-name="HOW TO MAKE" transform="translate(683.5 2488.713)" fill="#2d2c2f" font-size="12" font-family="FuturaPT-Medium, Futura PT" font-weight="500" letter-spacing="0.15em"><tspan x="-48.708" y="0">HOW TO MAKE</tspan></text>
    <g id="グループ_98" data-name="グループ 98" transform="translate(2239.735 1228.687)">
      <path id="パス_2605" data-name="パス 2605" d="M89.559,45.338a17.328,17.328,0,0,1-7.164-2.61c-3.042-1.914-3.463-5.413-3.742-7.727a14.652,14.652,0,0,0-.255-1.653c-.178-.717-1-1.232-1.552-1.576-.5-.314-1.019-.637-.871-1.244.163-.67.951-.735,1.861-.813,1.887-.157,2.335-5.262,2.255-7.705l1.4-.048c.026.875.169,8.332-3.188,9.1a3.577,3.577,0,0,1,1.454,1.947,15.362,15.362,0,0,1,.284,1.825c.276,2.3.62,5.149,3.1,6.71a16.225,16.225,0,0,0,6.529,2.4Z" transform="translate(-1656.466 1192.723)" fill="#2d2c2f"/>
      <path id="パス_2606" data-name="パス 2606" d="M127.418,22.532l.006.008.018.022c.341.467,1.7,2.082,3.407,2.076,1.224-.026,1.936-.88,3.194-2.331.047-.056,4.545-5.62,10.858-5.62v-1.4c-7,0-11.71,5.94-11.964,6.269-.883,1.007-1.409,1.665-2.114,1.683h-.032c-1,0-1.968-1.122-2.259-1.561h0c.006,0,.008.008.012.014l-.006,0c-.842-1.292-2.466-4.071-5.786-9.484C115.272.021,110.754.021,108.324.021L107.8.015c-2.6-.082-7.006-.145-16.289,8.761-5.37,5.155-8.863,7.573-12.264,8.725l-.394-.222c-2.394-1.354-4.867-2.752-7.223-3.886-4.652-2.241-7.342-1.63-8.784-.727a3.832,3.832,0,0,0-1.9,2.95,3.3,3.3,0,0,0,1.007,2.429c1.4,1.378,4.136,1.991,8.464,1.947a31.048,31.048,0,0,0,8.677-.972c4.977,2.806,10.079,5.582,14.769,6.363.643.108,1.3.173,1.961.223.167,1.363,1.332,9.372,5.859,9.917a7.269,7.269,0,0,0,5.057-.77,3.723,3.723,0,0,1,1.654-.543,2.775,2.775,0,0,1,2.141,1.212,3.415,3.415,0,0,1-.054,3.455c-1.262,2.7-3,4.074-5.158,4.074v1.4c1.893,0,4.545-.847,6.431-4.885,1.085-2.327.566-3.914-.059-4.835a4.131,4.131,0,0,0-3.387-1.822,4.943,4.943,0,0,0-2.222.7,6.068,6.068,0,0,1-4.236.619c-2.941-.354-4.269-5.89-4.6-8.455a66.259,66.259,0,0,0,8.621-.569,45.936,45.936,0,0,1,10.665-.38,29.535,29.535,0,0,1,8.486,2.621c-.128,15.571-14.047,20.844-14.642,21.033l.427,1.338c.154-.049,15.082-5.613,15.6-21.726.442.21.88.422,1.316.633a50.9,50.9,0,0,0,6.05,2.616c4.275,1.422,5.91,1.674,6.529,1.674a1.054,1.054,0,0,0,.272-.027l.013-1.337c-.032.026-1.379.023-6.371-1.643a49.612,49.612,0,0,1-5.884-2.548c-3.485-1.685-7.086-3.427-11.613-4.026a47.7,47.7,0,0,0-11,.376c-3.949.435-8.032.885-11.623.284-4.132-.687-8.721-3.069-13.251-5.6,3.223-1.346,6.7-3.86,11.646-8.606,8.867-8.508,12.911-8.4,15.289-8.372l.554.008c2.153,0,6.163,0,13.229,11.516,4.429,7.219,5.545,9.051,5.8,9.484l-.006,0c.024.038.048.072.068.1M70.386,18.588c-4.809.068-6.7-.793-7.457-1.544a1.882,1.882,0,0,1-.587-1.428,2.493,2.493,0,0,1,1.248-1.763,4.355,4.355,0,0,1,2.352-.6,12.162,12.162,0,0,1,5.075,1.4c2.045.986,4.2,2.183,6.3,3.371a35.941,35.941,0,0,1-6.936.563" transform="translate(-1659.393 1188.44)" fill="#2d2c2f"/>
      <path id="パス_2607" data-name="パス 2607" d="M86.759,28.767a1.144,1.144,0,1,1-1.12-1.383,1.272,1.272,0,0,1,1.12,1.383" transform="translate(-1654.795 1193.78)" fill="#2d2c2f"/>
    </g>
    <g id="リピートグリッド_2" data-name="リピートグリッド 2" transform="translate(760.811 2441.988)" clip-path="url(#clip-path)">
      <g id="グループ_106" data-name="グループ 106" transform="translate(-760.811 -2427.988)">
        <rect id="長方形_260" data-name="長方形 260" width="2.304" height="8.847" transform="translate(760.811 2427.988)" fill="#2d2c2f"/>
        <rect id="長方形_261" data-name="長方形 261" width="2.304" height="8.847" transform="translate(765.822 2427.988)" fill="#2d2c2f"/>
      </g>
      <g id="グループ_106-2" data-name="グループ 106" transform="translate(-740.811 -2427.988)">
        <rect id="長方形_260-2" data-name="長方形 260" width="2.304" height="8.847" transform="translate(760.811 2427.988)" fill="#2d2c2f"/>
        <rect id="長方形_261-2" data-name="長方形 261" width="2.304" height="8.847" transform="translate(765.822 2427.988)" fill="#2d2c2f"/>
      </g>
      <g id="グループ_106-3" data-name="グループ 106" transform="translate(-720.811 -2427.988)">
        <rect id="長方形_260-3" data-name="長方形 260" width="2.304" height="8.847" transform="translate(760.811 2427.988)" fill="#2d2c2f"/>
        <rect id="長方形_261-3" data-name="長方形 261" width="2.304" height="8.847" transform="translate(765.822 2427.988)" fill="#2d2c2f"/>
      </g>
      <g id="グループ_106-4" data-name="グループ 106" transform="translate(-700.811 -2427.988)">
        <rect id="長方形_260-4" data-name="長方形 260" width="2.304" height="8.847" transform="translate(760.811 2427.988)" fill="#2d2c2f"/>
        <rect id="長方形_261-4" data-name="長方形 261" width="2.304" height="8.847" transform="translate(765.822 2427.988)" fill="#2d2c2f"/>
      </g>
      <g id="グループ_106-5" data-name="グループ 106" transform="translate(-680.811 -2427.988)">
        <rect id="長方形_260-5" data-name="長方形 260" width="2.304" height="8.847" transform="translate(760.811 2427.988)" fill="#2d2c2f"/>
        <rect id="長方形_261-5" data-name="長方形 261" width="2.304" height="8.847" transform="translate(765.822 2427.988)" fill="#2d2c2f"/>
      </g>
      <g id="グループ_106-6" data-name="グループ 106" transform="translate(-660.811 -2427.988)">
        <rect id="長方形_260-6" data-name="長方形 260" width="2.304" height="8.847" transform="translate(760.811 2427.988)" fill="#2d2c2f"/>
        <rect id="長方形_261-6" data-name="長方形 261" width="2.304" height="8.847" transform="translate(765.822 2427.988)" fill="#2d2c2f"/>
      </g>
      <g id="グループ_106-7" data-name="グループ 106" transform="translate(-640.811 -2427.988)">
        <rect id="長方形_260-7" data-name="長方形 260" width="2.304" height="8.847" transform="translate(760.811 2427.988)" fill="#2d2c2f"/>
        <rect id="長方形_261-7" data-name="長方形 261" width="2.304" height="8.847" transform="translate(765.822 2427.988)" fill="#2d2c2f"/>
      </g>
      <g id="グループ_106-8" data-name="グループ 106" transform="translate(-620.811 -2427.988)">
        <rect id="長方形_260-8" data-name="長方形 260" width="2.304" height="8.847" transform="translate(760.811 2427.988)" fill="#2d2c2f"/>
        <rect id="長方形_261-8" data-name="長方形 261" width="2.304" height="8.847" transform="translate(765.822 2427.988)" fill="#2d2c2f"/>
      </g>
      <g id="グループ_106-9" data-name="グループ 106" transform="translate(-600.811 -2427.988)">
        <rect id="長方形_260-9" data-name="長方形 260" width="2.304" height="8.847" transform="translate(760.811 2427.988)" fill="#2d2c2f"/>
        <rect id="長方形_261-9" data-name="長方形 261" width="2.304" height="8.847" transform="translate(765.822 2427.988)" fill="#2d2c2f"/>
      </g>
      <g id="グループ_106-10" data-name="グループ 106" transform="translate(-580.811 -2427.988)">
        <rect id="長方形_260-10" data-name="長方形 260" width="2.304" height="8.847" transform="translate(760.811 2427.988)" fill="#2d2c2f"/>
        <rect id="長方形_261-10" data-name="長方形 261" width="2.304" height="8.847" transform="translate(765.822 2427.988)" fill="#2d2c2f"/>
      </g>
      <g id="グループ_106-11" data-name="グループ 106" transform="translate(-560.811 -2427.988)">
        <rect id="長方形_260-11" data-name="長方形 260" width="2.304" height="8.847" transform="translate(760.811 2427.988)" fill="#2d2c2f"/>
        <rect id="長方形_261-11" data-name="長方形 261" width="2.304" height="8.847" transform="translate(765.822 2427.988)" fill="#2d2c2f"/>
      </g>
      <g id="グループ_106-12" data-name="グループ 106" transform="translate(-540.811 -2427.988)">
        <rect id="長方形_260-12" data-name="長方形 260" width="2.304" height="8.847" transform="translate(760.811 2427.988)" fill="#2d2c2f"/>
        <rect id="長方形_261-12" data-name="長方形 261" width="2.304" height="8.847" transform="translate(765.822 2427.988)" fill="#2d2c2f"/>
      </g>
      <g id="グループ_106-13" data-name="グループ 106" transform="translate(-520.811 -2427.988)">
        <rect id="長方形_260-13" data-name="長方形 260" width="2.304" height="8.847" transform="translate(760.811 2427.988)" fill="#2d2c2f"/>
        <rect id="長方形_261-13" data-name="長方形 261" width="2.304" height="8.847" transform="translate(765.822 2427.988)" fill="#2d2c2f"/>
      </g>
      <g id="グループ_106-14" data-name="グループ 106" transform="translate(-500.811 -2427.988)">
        <rect id="長方形_260-14" data-name="長方形 260" width="2.304" height="8.847" transform="translate(760.811 2427.988)" fill="#2d2c2f"/>
        <rect id="長方形_261-14" data-name="長方形 261" width="2.304" height="8.847" transform="translate(765.822 2427.988)" fill="#2d2c2f"/>
      </g>
      <g id="グループ_106-15" data-name="グループ 106" transform="translate(-480.811 -2427.988)">
        <rect id="長方形_260-15" data-name="長方形 260" width="2.304" height="8.847" transform="translate(760.811 2427.988)" fill="#2d2c2f"/>
        <rect id="長方形_261-15" data-name="長方形 261" width="2.304" height="8.847" transform="translate(765.822 2427.988)" fill="#2d2c2f"/>
      </g>
      <g id="グループ_106-16" data-name="グループ 106" transform="translate(-460.811 -2427.988)">
        <rect id="長方形_260-16" data-name="長方形 260" width="2.304" height="8.847" transform="translate(760.811 2427.988)" fill="#2d2c2f"/>
        <rect id="長方形_261-16" data-name="長方形 261" width="2.304" height="8.847" transform="translate(765.822 2427.988)" fill="#2d2c2f"/>
      </g>
      <g id="グループ_106-17" data-name="グループ 106" transform="translate(-440.811 -2427.988)">
        <rect id="長方形_260-17" data-name="長方形 260" width="2.304" height="8.847" transform="translate(760.811 2427.988)" fill="#2d2c2f"/>
        <rect id="長方形_261-17" data-name="長方形 261" width="2.304" height="8.847" transform="translate(765.822 2427.988)" fill="#2d2c2f"/>
      </g>
      <g id="グループ_106-18" data-name="グループ 106" transform="translate(-420.811 -2427.988)">
        <rect id="長方形_260-18" data-name="長方形 260" width="2.304" height="8.847" transform="translate(760.811 2427.988)" fill="#2d2c2f"/>
        <rect id="長方形_261-18" data-name="長方形 261" width="2.304" height="8.847" transform="translate(765.822 2427.988)" fill="#2d2c2f"/>
      </g>
      <g id="グループ_106-19" data-name="グループ 106" transform="translate(-400.811 -2427.988)">
        <rect id="長方形_260-19" data-name="長方形 260" width="2.304" height="8.847" transform="translate(760.811 2427.988)" fill="#2d2c2f"/>
        <rect id="長方形_261-19" data-name="長方形 261" width="2.304" height="8.847" transform="translate(765.822 2427.988)" fill="#2d2c2f"/>
      </g>
      <g id="グループ_106-20" data-name="グループ 106" transform="translate(-380.811 -2427.988)">
        <rect id="長方形_260-20" data-name="長方形 260" width="2.304" height="8.847" transform="translate(760.811 2427.988)" fill="#2d2c2f"/>
        <rect id="長方形_261-20" data-name="長方形 261" width="2.304" height="8.847" transform="translate(765.822 2427.988)" fill="#2d2c2f"/>
      </g>
      <g id="グループ_106-21" data-name="グループ 106" transform="translate(-360.811 -2427.988)">
        <rect id="長方形_260-21" data-name="長方形 260" width="2.304" height="8.847" transform="translate(760.811 2427.988)" fill="#2d2c2f"/>
        <rect id="長方形_261-21" data-name="長方形 261" width="2.304" height="8.847" transform="translate(765.822 2427.988)" fill="#2d2c2f"/>
      </g>
      <g id="グループ_106-22" data-name="グループ 106" transform="translate(-340.811 -2427.988)">
        <rect id="長方形_260-22" data-name="長方形 260" width="2.304" height="8.847" transform="translate(760.811 2427.988)" fill="#2d2c2f"/>
        <rect id="長方形_261-22" data-name="長方形 261" width="2.304" height="8.847" transform="translate(765.822 2427.988)" fill="#2d2c2f"/>
      </g>
      <g id="グループ_106-23" data-name="グループ 106" transform="translate(-320.811 -2427.988)">
        <rect id="長方形_260-23" data-name="長方形 260" width="2.304" height="8.847" transform="translate(760.811 2427.988)" fill="#2d2c2f"/>
        <rect id="長方形_261-23" data-name="長方形 261" width="2.304" height="8.847" transform="translate(765.822 2427.988)" fill="#2d2c2f"/>
      </g>
      <g id="グループ_106-24" data-name="グループ 106" transform="translate(-300.811 -2427.988)">
        <rect id="長方形_260-24" data-name="長方形 260" width="2.304" height="8.847" transform="translate(760.811 2427.988)" fill="#2d2c2f"/>
        <rect id="長方形_261-24" data-name="長方形 261" width="2.304" height="8.847" transform="translate(765.822 2427.988)" fill="#2d2c2f"/>
      </g>
      <g id="グループ_106-25" data-name="グループ 106" transform="translate(-280.811 -2427.988)">
        <rect id="長方形_260-25" data-name="長方形 260" width="2.304" height="8.847" transform="translate(760.811 2427.988)" fill="#2d2c2f"/>
        <rect id="長方形_261-25" data-name="長方形 261" width="2.304" height="8.847" transform="translate(765.822 2427.988)" fill="#2d2c2f"/>
      </g>
      <g id="グループ_106-26" data-name="グループ 106" transform="translate(-260.811 -2427.988)">
        <rect id="長方形_260-26" data-name="長方形 260" width="2.304" height="8.847" transform="translate(760.811 2427.988)" fill="#2d2c2f"/>
        <rect id="長方形_261-26" data-name="長方形 261" width="2.304" height="8.847" transform="translate(765.822 2427.988)" fill="#2d2c2f"/>
      </g>
      <g id="グループ_106-27" data-name="グループ 106" transform="translate(-240.811 -2427.988)">
        <rect id="長方形_260-27" data-name="長方形 260" width="2.304" height="8.847" transform="translate(760.811 2427.988)" fill="#2d2c2f"/>
        <rect id="長方形_261-27" data-name="長方形 261" width="2.304" height="8.847" transform="translate(765.822 2427.988)" fill="#2d2c2f"/>
      </g>
      <g id="グループ_106-28" data-name="グループ 106" transform="translate(-220.811 -2427.988)">
        <rect id="長方形_260-28" data-name="長方形 260" width="2.304" height="8.847" transform="translate(760.811 2427.988)" fill="#2d2c2f"/>
        <rect id="長方形_261-28" data-name="長方形 261" width="2.304" height="8.847" transform="translate(765.822 2427.988)" fill="#2d2c2f"/>
      </g>
      <g id="グループ_106-29" data-name="グループ 106" transform="translate(-200.811 -2427.988)">
        <rect id="長方形_260-29" data-name="長方形 260" width="2.304" height="8.847" transform="translate(760.811 2427.988)" fill="#2d2c2f"/>
        <rect id="長方形_261-29" data-name="長方形 261" width="2.304" height="8.847" transform="translate(765.822 2427.988)" fill="#2d2c2f"/>
      </g>
      <g id="グループ_106-30" data-name="グループ 106" transform="translate(-180.811 -2427.988)">
        <rect id="長方形_260-30" data-name="長方形 260" width="2.304" height="8.847" transform="translate(760.811 2427.988)" fill="#2d2c2f"/>
        <rect id="長方形_261-30" data-name="長方形 261" width="2.304" height="8.847" transform="translate(765.822 2427.988)" fill="#2d2c2f"/>
      </g>
      <g id="グループ_106-31" data-name="グループ 106" transform="translate(-160.811 -2427.988)">
        <rect id="長方形_260-31" data-name="長方形 260" width="2.304" height="8.847" transform="translate(760.811 2427.988)" fill="#2d2c2f"/>
        <rect id="長方形_261-31" data-name="長方形 261" width="2.304" height="8.847" transform="translate(765.822 2427.988)" fill="#2d2c2f"/>
      </g>
    </g>
    <g id="リピートグリッド_3" data-name="リピートグリッド 3" transform="translate(610.711 2450.834) rotate(180)" clip-path="url(#clip-path-2)">
      <g id="グループ_106-32" data-name="グループ 106" transform="translate(-760.811 -2427.988)">
        <rect id="長方形_260-32" data-name="長方形 260" width="2.304" height="8.847" transform="translate(760.811 2427.988)" fill="#2d2c2f"/>
        <rect id="長方形_261-32" data-name="長方形 261" width="2.304" height="8.847" transform="translate(765.822 2427.988)" fill="#2d2c2f"/>
      </g>
      <g id="グループ_106-33" data-name="グループ 106" transform="translate(-740.811 -2427.988)">
        <rect id="長方形_260-33" data-name="長方形 260" width="2.304" height="8.847" transform="translate(760.811 2427.988)" fill="#2d2c2f"/>
        <rect id="長方形_261-33" data-name="長方形 261" width="2.304" height="8.847" transform="translate(765.822 2427.988)" fill="#2d2c2f"/>
      </g>
      <g id="グループ_106-34" data-name="グループ 106" transform="translate(-720.811 -2427.988)">
        <rect id="長方形_260-34" data-name="長方形 260" width="2.304" height="8.847" transform="translate(760.811 2427.988)" fill="#2d2c2f"/>
        <rect id="長方形_261-34" data-name="長方形 261" width="2.304" height="8.847" transform="translate(765.822 2427.988)" fill="#2d2c2f"/>
      </g>
      <g id="グループ_106-35" data-name="グループ 106" transform="translate(-700.811 -2427.988)">
        <rect id="長方形_260-35" data-name="長方形 260" width="2.304" height="8.847" transform="translate(760.811 2427.988)" fill="#2d2c2f"/>
        <rect id="長方形_261-35" data-name="長方形 261" width="2.304" height="8.847" transform="translate(765.822 2427.988)" fill="#2d2c2f"/>
      </g>
      <g id="グループ_106-36" data-name="グループ 106" transform="translate(-680.811 -2427.988)">
        <rect id="長方形_260-36" data-name="長方形 260" width="2.304" height="8.847" transform="translate(760.811 2427.988)" fill="#2d2c2f"/>
        <rect id="長方形_261-36" data-name="長方形 261" width="2.304" height="8.847" transform="translate(765.822 2427.988)" fill="#2d2c2f"/>
      </g>
      <g id="グループ_106-37" data-name="グループ 106" transform="translate(-660.811 -2427.988)">
        <rect id="長方形_260-37" data-name="長方形 260" width="2.304" height="8.847" transform="translate(760.811 2427.988)" fill="#2d2c2f"/>
        <rect id="長方形_261-37" data-name="長方形 261" width="2.304" height="8.847" transform="translate(765.822 2427.988)" fill="#2d2c2f"/>
      </g>
      <g id="グループ_106-38" data-name="グループ 106" transform="translate(-640.811 -2427.988)">
        <rect id="長方形_260-38" data-name="長方形 260" width="2.304" height="8.847" transform="translate(760.811 2427.988)" fill="#2d2c2f"/>
        <rect id="長方形_261-38" data-name="長方形 261" width="2.304" height="8.847" transform="translate(765.822 2427.988)" fill="#2d2c2f"/>
      </g>
      <g id="グループ_106-39" data-name="グループ 106" transform="translate(-620.811 -2427.988)">
        <rect id="長方形_260-39" data-name="長方形 260" width="2.304" height="8.847" transform="translate(760.811 2427.988)" fill="#2d2c2f"/>
        <rect id="長方形_261-39" data-name="長方形 261" width="2.304" height="8.847" transform="translate(765.822 2427.988)" fill="#2d2c2f"/>
      </g>
      <g id="グループ_106-40" data-name="グループ 106" transform="translate(-600.811 -2427.988)">
        <rect id="長方形_260-40" data-name="長方形 260" width="2.304" height="8.847" transform="translate(760.811 2427.988)" fill="#2d2c2f"/>
        <rect id="長方形_261-40" data-name="長方形 261" width="2.304" height="8.847" transform="translate(765.822 2427.988)" fill="#2d2c2f"/>
      </g>
      <g id="グループ_106-41" data-name="グループ 106" transform="translate(-580.811 -2427.988)">
        <rect id="長方形_260-41" data-name="長方形 260" width="2.304" height="8.847" transform="translate(760.811 2427.988)" fill="#2d2c2f"/>
        <rect id="長方形_261-41" data-name="長方形 261" width="2.304" height="8.847" transform="translate(765.822 2427.988)" fill="#2d2c2f"/>
      </g>
      <g id="グループ_106-42" data-name="グループ 106" transform="translate(-560.811 -2427.988)">
        <rect id="長方形_260-42" data-name="長方形 260" width="2.304" height="8.847" transform="translate(760.811 2427.988)" fill="#2d2c2f"/>
        <rect id="長方形_261-42" data-name="長方形 261" width="2.304" height="8.847" transform="translate(765.822 2427.988)" fill="#2d2c2f"/>
      </g>
      <g id="グループ_106-43" data-name="グループ 106" transform="translate(-540.811 -2427.988)">
        <rect id="長方形_260-43" data-name="長方形 260" width="2.304" height="8.847" transform="translate(760.811 2427.988)" fill="#2d2c2f"/>
        <rect id="長方形_261-43" data-name="長方形 261" width="2.304" height="8.847" transform="translate(765.822 2427.988)" fill="#2d2c2f"/>
      </g>
      <g id="グループ_106-44" data-name="グループ 106" transform="translate(-520.811 -2427.988)">
        <rect id="長方形_260-44" data-name="長方形 260" width="2.304" height="8.847" transform="translate(760.811 2427.988)" fill="#2d2c2f"/>
        <rect id="長方形_261-44" data-name="長方形 261" width="2.304" height="8.847" transform="translate(765.822 2427.988)" fill="#2d2c2f"/>
      </g>
      <g id="グループ_106-45" data-name="グループ 106" transform="translate(-500.811 -2427.988)">
        <rect id="長方形_260-45" data-name="長方形 260" width="2.304" height="8.847" transform="translate(760.811 2427.988)" fill="#2d2c2f"/>
        <rect id="長方形_261-45" data-name="長方形 261" width="2.304" height="8.847" transform="translate(765.822 2427.988)" fill="#2d2c2f"/>
      </g>
      <g id="グループ_106-46" data-name="グループ 106" transform="translate(-480.811 -2427.988)">
        <rect id="長方形_260-46" data-name="長方形 260" width="2.304" height="8.847" transform="translate(760.811 2427.988)" fill="#2d2c2f"/>
        <rect id="長方形_261-46" data-name="長方形 261" width="2.304" height="8.847" transform="translate(765.822 2427.988)" fill="#2d2c2f"/>
      </g>
      <g id="グループ_106-47" data-name="グループ 106" transform="translate(-460.811 -2427.988)">
        <rect id="長方形_260-47" data-name="長方形 260" width="2.304" height="8.847" transform="translate(760.811 2427.988)" fill="#2d2c2f"/>
        <rect id="長方形_261-47" data-name="長方形 261" width="2.304" height="8.847" transform="translate(765.822 2427.988)" fill="#2d2c2f"/>
      </g>
      <g id="グループ_106-48" data-name="グループ 106" transform="translate(-440.811 -2427.988)">
        <rect id="長方形_260-48" data-name="長方形 260" width="2.304" height="8.847" transform="translate(760.811 2427.988)" fill="#2d2c2f"/>
        <rect id="長方形_261-48" data-name="長方形 261" width="2.304" height="8.847" transform="translate(765.822 2427.988)" fill="#2d2c2f"/>
      </g>
      <g id="グループ_106-49" data-name="グループ 106" transform="translate(-420.811 -2427.988)">
        <rect id="長方形_260-49" data-name="長方形 260" width="2.304" height="8.847" transform="translate(760.811 2427.988)" fill="#2d2c2f"/>
        <rect id="長方形_261-49" data-name="長方形 261" width="2.304" height="8.847" transform="translate(765.822 2427.988)" fill="#2d2c2f"/>
      </g>
      <g id="グループ_106-50" data-name="グループ 106" transform="translate(-400.811 -2427.988)">
        <rect id="長方形_260-50" data-name="長方形 260" width="2.304" height="8.847" transform="translate(760.811 2427.988)" fill="#2d2c2f"/>
        <rect id="長方形_261-50" data-name="長方形 261" width="2.304" height="8.847" transform="translate(765.822 2427.988)" fill="#2d2c2f"/>
      </g>
      <g id="グループ_106-51" data-name="グループ 106" transform="translate(-380.811 -2427.988)">
        <rect id="長方形_260-51" data-name="長方形 260" width="2.304" height="8.847" transform="translate(760.811 2427.988)" fill="#2d2c2f"/>
        <rect id="長方形_261-51" data-name="長方形 261" width="2.304" height="8.847" transform="translate(765.822 2427.988)" fill="#2d2c2f"/>
      </g>
      <g id="グループ_106-52" data-name="グループ 106" transform="translate(-360.811 -2427.988)">
        <rect id="長方形_260-52" data-name="長方形 260" width="2.304" height="8.847" transform="translate(760.811 2427.988)" fill="#2d2c2f"/>
        <rect id="長方形_261-52" data-name="長方形 261" width="2.304" height="8.847" transform="translate(765.822 2427.988)" fill="#2d2c2f"/>
      </g>
      <g id="グループ_106-53" data-name="グループ 106" transform="translate(-340.811 -2427.988)">
        <rect id="長方形_260-53" data-name="長方形 260" width="2.304" height="8.847" transform="translate(760.811 2427.988)" fill="#2d2c2f"/>
        <rect id="長方形_261-53" data-name="長方形 261" width="2.304" height="8.847" transform="translate(765.822 2427.988)" fill="#2d2c2f"/>
      </g>
      <g id="グループ_106-54" data-name="グループ 106" transform="translate(-320.811 -2427.988)">
        <rect id="長方形_260-54" data-name="長方形 260" width="2.304" height="8.847" transform="translate(760.811 2427.988)" fill="#2d2c2f"/>
        <rect id="長方形_261-54" data-name="長方形 261" width="2.304" height="8.847" transform="translate(765.822 2427.988)" fill="#2d2c2f"/>
      </g>
      <g id="グループ_106-55" data-name="グループ 106" transform="translate(-300.811 -2427.988)">
        <rect id="長方形_260-55" data-name="長方形 260" width="2.304" height="8.847" transform="translate(760.811 2427.988)" fill="#2d2c2f"/>
        <rect id="長方形_261-55" data-name="長方形 261" width="2.304" height="8.847" transform="translate(765.822 2427.988)" fill="#2d2c2f"/>
      </g>
      <g id="グループ_106-56" data-name="グループ 106" transform="translate(-280.811 -2427.988)">
        <rect id="長方形_260-56" data-name="長方形 260" width="2.304" height="8.847" transform="translate(760.811 2427.988)" fill="#2d2c2f"/>
        <rect id="長方形_261-56" data-name="長方形 261" width="2.304" height="8.847" transform="translate(765.822 2427.988)" fill="#2d2c2f"/>
      </g>
      <g id="グループ_106-57" data-name="グループ 106" transform="translate(-260.811 -2427.988)">
        <rect id="長方形_260-57" data-name="長方形 260" width="2.304" height="8.847" transform="translate(760.811 2427.988)" fill="#2d2c2f"/>
        <rect id="長方形_261-57" data-name="長方形 261" width="2.304" height="8.847" transform="translate(765.822 2427.988)" fill="#2d2c2f"/>
      </g>
      <g id="グループ_106-58" data-name="グループ 106" transform="translate(-240.811 -2427.988)">
        <rect id="長方形_260-58" data-name="長方形 260" width="2.304" height="8.847" transform="translate(760.811 2427.988)" fill="#2d2c2f"/>
        <rect id="長方形_261-58" data-name="長方形 261" width="2.304" height="8.847" transform="translate(765.822 2427.988)" fill="#2d2c2f"/>
      </g>
      <g id="グループ_106-59" data-name="グループ 106" transform="translate(-220.811 -2427.988)">
        <rect id="長方形_260-59" data-name="長方形 260" width="2.304" height="8.847" transform="translate(760.811 2427.988)" fill="#2d2c2f"/>
        <rect id="長方形_261-59" data-name="長方形 261" width="2.304" height="8.847" transform="translate(765.822 2427.988)" fill="#2d2c2f"/>
      </g>
      <g id="グループ_106-60" data-name="グループ 106" transform="translate(-200.811 -2427.988)">
        <rect id="長方形_260-60" data-name="長方形 260" width="2.304" height="8.847" transform="translate(760.811 2427.988)" fill="#2d2c2f"/>
        <rect id="長方形_261-60" data-name="長方形 261" width="2.304" height="8.847" transform="translate(765.822 2427.988)" fill="#2d2c2f"/>
      </g>
      <g id="グループ_106-61" data-name="グループ 106" transform="translate(-180.811 -2427.988)">
        <rect id="長方形_260-61" data-name="長方形 260" width="2.304" height="8.847" transform="translate(760.811 2427.988)" fill="#2d2c2f"/>
        <rect id="長方形_261-61" data-name="長方形 261" width="2.304" height="8.847" transform="translate(765.822 2427.988)" fill="#2d2c2f"/>
      </g>
      <g id="グループ_106-62" data-name="グループ 106" transform="translate(-160.811 -2427.988)">
        <rect id="長方形_260-62" data-name="長方形 260" width="2.304" height="8.847" transform="translate(760.811 2427.988)" fill="#2d2c2f"/>
        <rect id="長方形_261-62" data-name="長方形 261" width="2.304" height="8.847" transform="translate(765.822 2427.988)" fill="#2d2c2f"/>
      </g>
    </g>
  </g>
</svg>
