<svg xmlns="http://www.w3.org/2000/svg" xmlns:xlink="http://www.w3.org/1999/xlink" width="92.487" height="77.36" viewBox="0 0 92.487 77.36">
  <defs>
    <clipPath id="clip-path">
      <rect id="長方形_191" data-name="長方形 191" width="78.924" height="51.548" fill="none"/>
    </clipPath>
  </defs>
  <g id="グループ_160" data-name="グループ 160" transform="matrix(-0.927, -0.375, 0.375, -0.927, 73.177, 77.359)">
    <g id="グループ_29" data-name="グループ 29" transform="translate(0 0)" clip-path="url(#clip-path)">
      <path id="パス_1294" data-name="パス 1294" d="M60.048,2.951c-.058.9.9,1.59.319,2.593-.351,1.734-2.559,3.033-5.6,3.288-1.831.153-3.2-.3-3.892-1.595a3.892,3.892,0,0,1-1.1-3.642C49.539,1.5,51.8,1.032,53.466.478c1.506-.5,3.377-.966,4.219.584l.6.471c.961.178,2.157.172,1.765,1.418" transform="translate(-6.769 0)" fill="#364350"/>
      <path id="パス_1295" data-name="パス 1295" d="M60.778,33.115a1.941,1.941,0,0,0,1.368.213c1.377-.419,2.12.483,2.653,1.658a3.722,3.722,0,0,1-.251,3.968,7.134,7.134,0,0,1-1.021.935c-.833,1.5-3.3,2.255-5.23,1.595-1.983-.354-2.861-1.838-2.3-3.889.686-2.513,2.914-4.6,4.782-4.48" transform="translate(-7.603 -4.509)" fill="#364350"/>
      <path id="パス_1296" data-name="パス 1296" d="M41.635,30.149a1.747,1.747,0,0,0,1.3.174c1.279-.459,2.018.422,2.571,1.583a3.912,3.912,0,0,1-.066,3.978,6.673,6.673,0,0,1-.922.965A4.165,4.165,0,0,1,39.655,38.6c-1.884-.3-2.775-1.756-2.336-3.825.539-2.534,2.549-4.687,4.316-4.621" transform="translate(-5.068 -4.106)" fill="#364350"/>
      <path id="パス_1297" data-name="パス 1297" d="M49.253,56.17a6.66,6.66,0,0,1-5.41-1.813c-1.026-.372-1.151-1.312-.934-2.239.278-1.189.752-2.354,2.208-2.412.774-.166,1.557-.284,2.32-.506,2.306-.669,2.832-.491,4.215,1.559,1.205,1.083,1.219,2.432.562,3.93-.62,1.412-1.78,1.475-2.961,1.481" transform="translate(-5.831 -6.653)" fill="#364350"/>
      <path id="パス_1298" data-name="パス 1298" d="M24.491,12.444a8.96,8.96,0,0,1-6.9,1.7A2.036,2.036,0,0,1,15.13,12.6c-.488-1.316-.752-2.73.746-3.71.709-.65,1.458-1.262,2.118-1.958,2-2.106,2.667-2.269,5.475-1.186,1.983.27,2.886,1.553,3.175,3.4.274,1.745-.91,2.541-2.153,3.3" transform="translate(-2.008 -0.693)" fill="#364350"/>
      <path id="パス_1299" data-name="パス 1299" d="M70.521,4.519l2.413.269c1.711.443,2.331,1.372,2.322,3.481a3.142,3.142,0,0,1-2.642,3.161L70.185,12.5q-3.6-.193-4.035-3.413a4.625,4.625,0,0,1,2.859-4.731,1.726,1.726,0,0,1,1.512.168" transform="translate(-9.005 -0.578)" fill="#364350"/>
      <path id="パス_1300" data-name="パス 1300" d="M81.686,47.363c-1.069,1.589-2.669,1.618-4.182,1.515-1.75-.119-2.218-1.836-2.7-3.4-.425-1.958,1.046-2.47,1.983-3.389,1.493-1.187,3.005-2.233,4.866-.763,1.466-.154,1.843,1.018,2.045,2.27.21,1.3.239,2.606-1.033,3.3-.317.174-.675.258-.982.466" transform="translate(-10.178 -5.529)" fill="#364350"/>
      <path id="パス_1301" data-name="パス 1301" d="M77.278,30.623A5.719,5.719,0,0,1,73.3,31.812c-3.1-.064-4.9-3.341-3.46-6.292.38-.777.866-1.357,1.755-1.194a5.355,5.355,0,0,1,3.281-1.313c1.888-.365,3.091.3,3.589,2,.818,2.782.39,4.8-1.192,5.613" transform="translate(-9.443 -3.121)" fill="#364350"/>
      <path id="パス_1302" data-name="パス 1302" d="M89.7,11.047a5.978,5.978,0,0,1,.128,3.793c.328,1.806-.824,2.681-2.415,3.088-2.332.6-3.507.036-4.563-1.935-1.083-1.218-.853-2.684-.874-4.1.831-1.941,2.083-3.3,4.576-3.208,2.61.092,2.619.048,3.148,2.364" transform="translate(-11.163 -1.182)" fill="#364350"/>
      <path id="パス_1303" data-name="パス 1303" d="M22.878,42.445a7.054,7.054,0,0,1,4.083-1.052c1.885-.773,3.094.187,3.9,1.708,1.176,2.23.835,3.561-1.062,5.116-1.075,1.4-2.716,1.521-4.249,1.887-2.293-.374-4.047-1.319-4.517-3.879-.492-2.68-.542-2.679,1.849-3.779" transform="translate(-2.827 -5.6)" fill="#364350"/>
      <path id="パス_1304" data-name="パス 1304" d="M59.649,24.5l-2.579.838a3.514,3.514,0,0,1-4.557-1.685c-1.143-2.344-.663-3.957,1.563-5.248a4.943,4.943,0,0,1,6.073-.4c2.091-.028,2.084,1.568,2.157,2.949.116,2.2-.615,3.09-2.657,3.55" transform="translate(-7.07 -2.336)" fill="#364350"/>
      <path id="パス_1305" data-name="パス 1305" d="M6.385,50.9l2.7-.01a3.612,3.612,0,0,1,3.905,2.835c.46,2.444-.435,3.759-2.915,4.28a5.184,5.184,0,0,1-5.924-1.389c-2.01-.579-1.571-2.016-1.267-3.282.485-2.019,1.424-2.608,3.5-2.433" transform="translate(-0.356 -6.928)" fill="#364350"/>
      <path id="パス_1306" data-name="パス 1306" d="M64.074,53.172c1.055-.966,2.484-.481,3.667-.951,1.373-.334,2.409.091,2.76,1.5.321,1.287.561,2.664-1.117,3.331-1.16.942-2.356,1.792-3.976,1.551-1.673,0-3.206-1.075-3.348-2.456-.156-1.508.226-2.743,2.014-2.975" transform="translate(-8.448 -7.097)" fill="#364350"/>
      <path id="パス_1307" data-name="パス 1307" d="M42.548,18.661c-.631,1.126-2.1.944-3,1.654-2.595,1.574-3.556-.2-4.864-1.406-1.375-1.265-.72-2.382.528-3.528l.372-.531c.6-2.393,3-2.394,4.69-2.441,1.9-.054,3.909.621,4.365,2.62.355,1.551-.353,2.813-2.1,3.632" transform="translate(-4.62 -1.689)" fill="#d39c38"/>
      <path id="パス_1308" data-name="パス 1308" d="M17.876,26.215c.369-1.025,1.62-1.088,2.268-1.808,1.944-1.683,3-.349,4.255.458,1.324.849.933,1.87.053,3l-.237.495c-.163,2.071-2.168,2.421-3.572,2.707-1.58.321-3.348.054-4.008-1.537-.513-1.234-.1-2.385,1.24-3.317" transform="translate(-2.237 -3.214)" fill="#d39c38"/>
      <path id="パス_1309" data-name="パス 1309" d="M2.452,37.363c.743-.853,1.918-.361,2.8-.787,2.453-.807,2.892.982,3.731,2.341.883,1.429.119,2.268-1.137,3l-.414.386c-.968,1.981-2.95,1.44-4.354,1.1C1.5,43.021-.021,41.972,0,40.1a2.7,2.7,0,0,1,2.452-2.739" transform="translate(0 -4.954)" fill="#364350"/>
    </g>
  </g>
</svg>
