<svg xmlns="http://www.w3.org/2000/svg" xmlns:xlink="http://www.w3.org/1999/xlink" width="214.524" height="56.103" viewBox="0 0 214.524 56.103">
  <defs>
    <clipPath id="clip-path">
      <rect id="長方形_193" data-name="長方形 193" width="214.524" height="56.103" fill="none"/>
    </clipPath>
  </defs>
  <g id="グループ_150" data-name="グループ 150" transform="translate(939.524 4570.67) rotate(180)">
    <g id="グループ_35" data-name="グループ 35" transform="translate(725 4514.567)">
      <g id="グループ_34" data-name="グループ 34" transform="translate(0 0)" clip-path="url(#clip-path)">
        <path id="パス_1310" data-name="パス 1310" d="M118.192,31.623a16.443,16.443,0,0,1-5.607.074,39.581,39.581,0,0,0-7.742.364c-4.122.441-8.257.819-12.436.86-4.273.043-8.526.3-12.868-.6-1.6-.33-3.192-.615-4.788-.921l-.019-.577c1.528.012,3.058.034,4.584.035,3.372,0,6.732-.156,10.119.037,2.5.142,4.962-.108,7.462.019,1.692.085,3.3-.446,5-.409,2.925.063,5.807-.338,8.729-.318,2.629.017,5.286.332,7.934.535a2.616,2.616,0,0,1,.7.293c-.046,1.055-.621.663-1.076.6" transform="translate(40.505 16.364)" fill="#d39c38"/>
        <path id="パス_1311" data-name="パス 1311" d="M109.22,36.359a6.155,6.155,0,0,1-3.363-.017,14.317,14.317,0,0,0-4.6.234,45.632,45.632,0,0,1-7.334.64c-2.566-.025-5.079.16-7.857-.78-1.021-.347-2.034-.648-3.05-.97-.039-.187-.077-.373-.114-.56.922.035,1.846.08,2.766.1,2.031.056,4.026-.045,6.1.194,1.534.177,2.968-.026,4.5.136,1.035.109,1.907-.381,2.941-.318,1.773.106,3.436-.237,5.2-.173a45.748,45.748,0,0,1,4.874.645c.142.02.318.193.478.295.162,1.024-.256.634-.54.569" transform="translate(44.935 18.885)" fill="#364350"/>
        <path id="パス_1312" data-name="パス 1312" d="M155.058,9.6a22.879,22.879,0,0,1-6.159-.072,55.651,55.651,0,0,0-8.532.126c-4.566.281-9.139.507-13.73.441-4.692-.066-9.383.054-14.055-.828-1.716-.325-3.439-.609-5.158-.913.012-.165.026-.332.039-.5,1.675.048,3.349.1,5.024.142,3.7.083,7.4.029,11.1.278,2.734.183,5.454.028,8.183.2,1.847.114,3.664-.3,5.531-.231,3.2.126,6.406-.15,9.608-.062,2.884.079,5.767.415,8.649.655a3,3,0,0,1,.743.27c-.157.911-.749.558-1.241.495" transform="translate(58.225 4.256)" fill="#d39c38"/>
        <path id="パス_1313" data-name="パス 1313" d="M97.625,27.875q-13.131.342-26.26.688a.9.9,0,0,1-.106-1.238,205.152,205.152,0,0,1,36.615-1.112c.111.6.123,1.076-.515.7-2.62,1.1-5.457-.048-8.1.82q-.817.072-1.633.146" transform="translate(38.515 14.006)" fill="#364350"/>
        <path id="パス_1314" data-name="パス 1314" d="M68.171,28.462c-3.14-.305-6.219,1.069-9.386-.074a1.313,1.313,0,0,0,.043-.6c6.3-1.169,12.725-.62,19.082-.988q.053.62.106,1.237c-2.156.859-4.419-.569-6.584.083q-1.631.171-3.261.339" transform="translate(31.862 14.527)" fill="#364350"/>
        <path id="パス_1315" data-name="パス 1315" d="M94.6,26.81l.515-.7A149.792,149.792,0,0,1,128.059,28.5l-.014,1.243c-4.06-.5-8.119-1.141-12.18-1.453-3.968-.305-7.924-1.19-11.91-.924A27.405,27.405,0,0,1,94.6,26.81" transform="translate(51.274 14.102)" fill="#364350"/>
        <path id="パス_1316" data-name="パス 1316" d="M111.61,20.3c5.306-1.141,10.806-.719,16.22-.924,7.836-.3,15.7-.332,23.547-.472,6.9-.123,13.795-.484,20.694-.267,4.143.131,8.237-.74,12.4.076a1.482,1.482,0,0,0,1.948-1.53,41.811,41.811,0,0,0-10.379-.614c-5.272.392-10.6.532-15.914.424-3.041-.062-6.035.86-9.095,0l-.739-.069c-3.429,1.494-7.144-.051-10.749.406-3.468.439-7.249-.7-10.76-.369-4.939.472-9.836-.224-14.734-.313-4.3-.077-8.538.4-12.857.207-5.94-.271-11.9-.077-17.83.114-10.927.353-21.893-.305-32.826.182-6.547.293-13.193-.4-19.8-.609-1.286-.042-2.629-.46-4.134.2.751,1.178,1.92.782,2.87.9a169.306,169.306,0,0,1,18.52,1.281c8.187-.376,16.376.985,24.592.638,6.566-.279,13.207.046,19.809.378,3.146.159,6.182-.423,9.391-.13,2.46.224,5.064.045,7.61.335l2.214.159" transform="translate(14.42 8.876)" fill="#364350"/>
        <path id="パス_1317" data-name="パス 1317" d="M46.986,18.528a64.833,64.833,0,0,0-18.52-1.281l18.52,1.281" transform="translate(15.429 9.27)" fill="#364350"/>
        <path id="パス_1318" data-name="パス 1318" d="M113.256,5.575c7.042-1.038,14.375-.506,21.579-.6,10.429-.142,20.894-.02,31.344-.006,9.183.014,18.359-.211,27.548.143,5.52.213,10.954-.58,16.513.321,1.471.239,2.476-.245,2.563-1.493a74.058,74.058,0,0,0-13.83-.82c-7.013.288-14.108.322-21.183.109-4.049-.122-8.018.742-12.109-.177l-.984-.083c-4.537,1.428-9.514-.193-14.305.193-4.609.372-9.665-.85-14.335-.581-6.569.375-13.1-.419-19.625-.6-5.733-.163-11.362.233-17.116-.049C91.4,1.535,83.474,1.61,75.577,1.684c-14.543.137-29.156-.739-43.705-.467C23.159,1.38,14.3.558,5.5.215,3.786.148,1.991-.3,0,.332c1.021,1.194,2.572.82,3.838.953Q16.2,1.609,28.523,2.933c10.894-.214,21.824,1.312,32.758,1.126,8.735-.148,17.585.308,26.382.773,4.193.221,8.222-.3,12.5.054,3.278.273,6.743.146,10.137.486l2.953.2" transform="translate(0 0)" fill="#364350"/>
        <path id="パス_1319" data-name="パス 1319" d="M27.173,2.5A114.814,114.814,0,0,0,2.489.855L27.173,2.5" transform="translate(1.349 0.431)" fill="#364350"/>
        <path id="パス_1320" data-name="パス 1320" d="M159.712,22.126a14.138,14.138,0,0,1,9.539,1.392q.113.384.23.768c.282,1.568-1.3,1.38-2.816.984a29.37,29.37,0,0,0-8.854-1.035,152.8,152.8,0,0,0-15.5-.211c-3.992-.171-7.981.029-11.974-.119-1.633-.06-3.26-.1-4.45-.95l-9.087-.126c-7.15-.41-14.259.157-21.4.062-3.465.421-7.013-.228-10.479.171-3.482-.662-6.936.065-10.427-.026-6.264-.162-12.538.082-18.809.02-3.314-.032-6.629-.347-9.944-.54a1.942,1.942,0,0,1-1.588-.722c11.075.02,22.1.29,33.047-.426l3.9.049c6.819.311,13.619.205,20.422-.023a20.358,20.358,0,0,1,5.5.419c3.9-.418,7.87.233,11.772-.148,6.609-.057,13.218-.134,19.829-.153a13.425,13.425,0,0,1,4.728.356c5.456-.085,10.91-.068,16.361.256" transform="translate(23.935 11.582)" fill="#364350"/>
        <path id="パス_1321" data-name="パス 1321" d="M70.6,22.573c3.453-.572,6.984-.148,10.48-.171-3.448.66-6.982.183-10.48.171" transform="translate(38.266 12.071)" fill="#364350"/>
        <path id="パス_1322" data-name="パス 1322" d="M124.847,22.048l-16.361-.256a85.433,85.433,0,0,1,16.361.256" transform="translate(58.8 11.66)" fill="#364350"/>
        <path id="パス_1323" data-name="パス 1323" d="M96.7,21.632c-3.881.685-7.852.046-11.772.148,3.878-.715,7.847-.1,11.772-.148" transform="translate(46.032 11.616)" fill="#364350"/>
        <path id="パス_1324" data-name="パス 1324" d="M123.992,22.8q-8.172-.125-16.344-.251a84.884,84.884,0,0,1,16.344.251" transform="translate(58.346 12.075)" fill="#364350"/>
        <path id="パス_1325" data-name="パス 1325" d="M114.11,10.969c5.965,1.086,12.142.686,18.223.882,8.8.287,17.634.321,26.453.456,7.749.12,15.5.466,23.247.261,4.655-.122,9.255.706,13.93-.066,1.237-.205,2.094.268,2.191,1.453a55.27,55.27,0,0,1-11.658.578c-5.924-.373-11.912-.507-17.88-.407-3.414.057-6.78-.819-10.216-.006l-.83.066c-3.855-1.42-8.026.045-12.075-.39-3.9-.419-8.142.668-12.086.347-5.551-.452-11.052.208-16.552.29-4.834.074-9.593-.384-14.444-.2-6.671.254-13.365.069-20.031-.116-12.276-.339-24.594.282-36.876-.185-7.357-.279-14.822.373-22.237.572-1.446.039-2.953.436-4.645-.19.839-1.118,2.154-.742,3.22-.848q10.429-.13,20.8-1.21c9.2.359,18.395-.93,27.625-.6,7.375.267,14.836-.04,22.251-.353,3.534-.15,6.945.4,10.55.128,2.762-.211,5.688-.042,8.547-.315l2.487-.151" transform="translate(10.096 5.945)" fill="#364350"/>
        <path id="パス_1326" data-name="パス 1326" d="M41.517,11.8a85.728,85.728,0,0,1-20.8,1.209l20.8-1.209" transform="translate(11.228 6.398)" fill="#364350"/>
        <path id="パス_1327" data-name="パス 1327" d="M26.394,6.97c8.919.148,17.84.347,26.755.429,8.126.074,16.248.025,24.37.014a2.841,2.841,0,0,0,.851-.279,9,9,0,0,1,3.567.43c4.575-.62,9.269-.125,13.915-.08,1.562.29,4.06-.435,4.355,1.229-2.708.729-5.391.988-7.989-.313l-3.658-.119c-6.049-.467-11.954.208-17.946.23-5.733.023-11.383.527-17.149.506-7.278-.029-14.581.154-21.818-.435-6.054-.492-12.231-.518-18.188-1.7,3.479-.645,7.164.079,10.706-.1.777-.091,1.375.625,2.228.194" transform="translate(7.295 3.581)" fill="#364350"/>
        <path id="パス_1328" data-name="パス 1328" d="M60.133,7.013l11.747.512.509.211-.6.094q-6.962-.243-13.924-.487l2.265-.33" transform="translate(31.365 3.801)" fill="#364350"/>
        <path id="パス_1329" data-name="パス 1329" d="M66.9,7.651q.042-.153.088-.305c3.753.125,7.506.251,11.718.393a20.777,20.777,0,0,1-7.446.413,18.679,18.679,0,0,0-4.359-.5" transform="translate(36.259 3.981)" fill="#364350"/>
        <path id="パス_1330" data-name="パス 1330" d="M108.919,8.973c-5.243-.341-10.466-.065-15.7-.063-5.064,0-10.151.08-15.167-.962a4.23,4.23,0,0,1-.774-.484c11.493-.486,22.64.211,33.747.02A33.758,33.758,0,0,1,117,8.011q1.154.287,2.31.575c.455.273.242.7.373,1.044-.322.751-.831.506-1.527.281a14.575,14.575,0,0,0-2.5-.364,40.824,40.824,0,0,0-6.742-.574" transform="translate(41.887 3.95)" fill="#364350"/>
        <path id="パス_1331" data-name="パス 1331" d="M97.8,8.425A17.17,17.17,0,0,1,104.54,9L97.8,8.425" transform="translate(53.007 4.499)" fill="#364350"/>
        <path id="パス_1332" data-name="パス 1332" d="M105.14,7.985l-5.975-.527a13.436,13.436,0,0,1,5.975.527" transform="translate(53.748 3.976)" fill="#364350"/>
      </g>
    </g>
  </g>
</svg>
