<svg xmlns="http://www.w3.org/2000/svg" xmlns:xlink="http://www.w3.org/1999/xlink" width="334.638" height="170.95" viewBox="0 0 334.638 170.95">
  <defs>
    <clipPath id="clip-path">
      <rect id="長方形_191" data-name="長方形 191" width="74.225" height="48.479" fill="none"/>
    </clipPath>
    <clipPath id="clip-path-2">
      <rect id="長方形_191-2" data-name="長方形 191" width="101.686" height="66.415" fill="none"/>
    </clipPath>
  </defs>
  <g id="グループ_278" data-name="グループ 278" transform="translate(45.013 -3206.302)">
    <g id="グループ_159" data-name="グループ 159" transform="translate(-27.64 3206.302) rotate(21)">
      <g id="グループ_29" data-name="グループ 29" transform="translate(0 0)" clip-path="url(#clip-path)">
        <path id="パス_1294" data-name="パス 1294" d="M59.432,2.775c-.054.844.845,1.5.3,2.439-.33,1.63-2.406,2.852-5.265,3.092-1.722.144-3.007-.279-3.661-1.5A3.66,3.66,0,0,1,49.77,3.381C49.549,1.413,51.675.971,53.242.449,54.659-.023,56.417-.459,57.21,1l.563.443c.9.167,2.029.162,1.66,1.334" transform="translate(-9.325 0)" fill="#364350"/>
        <path id="パス_1295" data-name="パス 1295" d="M60.483,33.115a1.825,1.825,0,0,0,1.287.2c1.295-.394,1.994.454,2.495,1.559a3.5,3.5,0,0,1-.236,3.732,6.71,6.71,0,0,1-.96.879c-.783,1.414-3.1,2.12-4.919,1.5-1.865-.333-2.691-1.729-2.164-3.657.645-2.363,2.74-4.325,4.5-4.213" transform="translate(-10.475 -6.212)" fill="#364350"/>
        <path id="パス_1296" data-name="パス 1296" d="M41.372,30.149a1.643,1.643,0,0,0,1.222.163c1.2-.431,1.9.4,2.418,1.488a3.679,3.679,0,0,1-.062,3.741,6.276,6.276,0,0,1-.867.907,3.917,3.917,0,0,1-4.573,1.643c-1.772-.279-2.61-1.652-2.2-3.6.507-2.383,2.4-4.408,4.059-4.346" transform="translate(-6.981 -5.656)" fill="#364350"/>
        <path id="パス_1297" data-name="パス 1297" d="M48.87,55.734a6.263,6.263,0,0,1-5.088-1.705c-.965-.35-1.082-1.234-.878-2.106.262-1.119.708-2.214,2.076-2.268.728-.156,1.465-.267,2.182-.476,2.169-.63,2.663-.461,3.964,1.466,1.133,1.019,1.146,2.288.529,3.7-.583,1.328-1.674,1.387-2.785,1.392" transform="translate(-8.034 -9.165)" fill="#364350"/>
        <path id="パス_1298" data-name="パス 1298" d="M23.911,12.006a8.426,8.426,0,0,1-6.493,1.6,1.914,1.914,0,0,1-2.31-1.456c-.459-1.237-.708-2.567.7-3.489C16.476,8.05,17.18,7.474,17.8,6.82c1.877-1.981,2.509-2.134,5.149-1.115a3.341,3.341,0,0,1,2.986,3.2c.258,1.641-.856,2.39-2.025,3.1" transform="translate(-2.767 -0.954)" fill="#364350"/>
        <path id="パス_1299" data-name="パス 1299" d="M70.259,4.5l2.27.253c1.609.417,2.193,1.29,2.184,3.274A2.955,2.955,0,0,1,72.228,11l-2.285,1q-3.389-.182-3.795-3.21a4.349,4.349,0,0,1,2.689-4.449,1.624,1.624,0,0,1,1.422.158" transform="translate(-12.405 -0.797)" fill="#364350"/>
        <path id="パス_1300" data-name="パス 1300" d="M81.272,46.96c-1,1.494-2.51,1.522-3.933,1.425-1.646-.112-2.086-1.726-2.536-3.2-.4-1.842.984-2.323,1.865-3.187,1.4-1.116,2.826-2.1,4.576-.717,1.379-.145,1.733.958,1.923,2.135.2,1.222.225,2.451-.972,3.107-.3.163-.634.243-.924.439" transform="translate(-14.021 -7.618)" fill="#364350"/>
        <path id="パス_1301" data-name="パス 1301" d="M76.806,30.164a5.379,5.379,0,0,1-3.737,1.118c-2.918-.06-4.613-3.142-3.254-5.917.357-.731.814-1.276,1.651-1.123a5.036,5.036,0,0,1,3.085-1.235c1.776-.343,2.907.286,3.375,1.878.769,2.617.367,4.51-1.121,5.279" transform="translate(-13.009 -4.299)" fill="#364350"/>
        <path id="パス_1302" data-name="パス 1302" d="M89.235,10.906a5.622,5.622,0,0,1,.12,3.567c.309,1.7-.775,2.522-2.271,2.9-2.193.561-3.3.034-4.291-1.82-1.019-1.145-.8-2.524-.822-3.858.782-1.825,1.959-3.1,4.3-3.017,2.455.087,2.463.045,2.96,2.223" transform="translate(-15.378 -1.628)" fill="#364350"/>
        <path id="パス_1303" data-name="パス 1303" d="M22.751,42.366a6.634,6.634,0,0,1,3.84-.989c1.773-.727,2.91.175,3.664,1.606,1.106,2.1.786,3.349-1,4.812-1.011,1.315-2.554,1.431-4,1.774-2.157-.352-3.806-1.241-4.248-3.648-.463-2.52-.509-2.519,1.739-3.554" transform="translate(-3.894 -7.715)" fill="#364350"/>
        <path id="パス_1304" data-name="パス 1304" d="M59.188,24.065l-2.426.788a3.3,3.3,0,0,1-4.285-1.585c-1.075-2.2-.623-3.722,1.47-4.935a4.649,4.649,0,0,1,5.712-.38c1.967-.026,1.96,1.474,2.029,2.773.109,2.072-.578,2.906-2.5,3.339" transform="translate(-9.74 -3.218)" fill="#364350"/>
        <path id="パス_1305" data-name="パス 1305" d="M6.16,50.9l2.536-.01a3.4,3.4,0,0,1,3.673,2.666c.433,2.3-.409,3.535-2.742,4.025a4.875,4.875,0,0,1-5.571-1.306c-1.89-.544-1.478-1.9-1.192-3.087.456-1.9,1.34-2.453,3.3-2.288" transform="translate(-0.491 -9.545)" fill="#364350"/>
        <path id="パス_1306" data-name="パス 1306" d="M63.953,53.109c.992-.908,2.336-.452,3.449-.894A1.887,1.887,0,0,1,70,53.626c.3,1.21.528,2.505-1.05,3.133-1.091.885-2.215,1.686-3.739,1.458a3.024,3.024,0,0,1-3.149-2.31c-.147-1.418.213-2.58,1.894-2.8" transform="translate(-11.638 -9.777)" fill="#364350"/>
        <path id="パス_1307" data-name="パス 1307" d="M42.034,18.288c-.593,1.059-1.974.888-2.817,1.556-2.44,1.48-3.345-.192-4.574-1.323-1.293-1.19-.677-2.241.5-3.318l.35-.5c.562-2.25,2.821-2.251,4.411-2.3,1.79-.05,3.676.584,4.1,2.464.334,1.458-.332,2.646-1.971,3.416" transform="translate(-6.364 -2.327)" fill="#d39c38"/>
        <path id="パス_1308" data-name="パス 1308" d="M17.789,26.059c.347-.964,1.523-1.024,2.133-1.7,1.829-1.583,2.817-.328,4,.431,1.245.8.877,1.759.05,2.823l-.223.465c-.154,1.947-2.039,2.277-3.359,2.546-1.486.3-3.149.05-3.769-1.445-.483-1.161-.093-2.243,1.167-3.12" transform="translate(-3.081 -4.427)" fill="#d39c38"/>
        <path id="パス_1309" data-name="パス 1309" d="M2.306,37.3c.7-.8,1.8-.34,2.632-.74,2.307-.759,2.72.924,3.509,2.2.83,1.344.112,2.132-1.069,2.821l-.389.363c-.911,1.863-2.774,1.354-4.094,1.035C1.409,42.625-.02,41.639,0,39.88A2.536,2.536,0,0,1,2.306,37.3" transform="translate(0 -6.825)" fill="#364350"/>
      </g>
    </g>
    <g id="グループ_160" data-name="グループ 160" transform="matrix(-0.927, -0.375, 0.375, -0.927, 264.746, 3377.252)">
      <g id="グループ_29-2" data-name="グループ 29" transform="translate(0 0)" clip-path="url(#clip-path-2)">
        <path id="パス_1294-2" data-name="パス 1294" d="M63.033,3.8c-.075,1.156,1.157,2.049.411,3.341-.452,2.234-3.3,3.908-7.213,4.236-2.359.2-4.119-.382-5.015-2.054A5.015,5.015,0,0,1,49.8,4.632c-.3-2.7,2.61-3.3,4.757-4.017,1.941-.647,4.351-1.244,5.436.752l.771.607C62,2.2,63.538,2.2,63.033,3.8" transform="translate(5.613 0)" fill="#364350"/>
        <path id="パス_1295-2" data-name="パス 1295" d="M62.2,33.117a2.5,2.5,0,0,0,1.763.275c1.774-.54,2.731.622,3.418,2.136a4.8,4.8,0,0,1-.323,5.113,9.192,9.192,0,0,1-1.315,1.2c-1.073,1.937-4.249,2.9-6.739,2.054-2.555-.456-3.686-2.368-2.965-5.01.884-3.238,3.754-5.925,6.161-5.772" transform="translate(6.306 3.74)" fill="#364350"/>
        <path id="パス_1296-2" data-name="パス 1296" d="M42.912,30.149a2.251,2.251,0,0,0,1.674.224c1.648-.591,2.6.544,3.312,2.039a5.041,5.041,0,0,1-.085,5.125,8.6,8.6,0,0,1-1.188,1.243c-.928,1.969-3.881,3.031-6.265,2.251-2.427-.382-3.576-2.263-3.009-4.928.694-3.264,3.284-6.039,5.56-5.954" transform="translate(4.203 3.405)" fill="#364350"/>
        <path id="パス_1297-2" data-name="パス 1297" d="M51.108,58.281a8.581,8.581,0,0,1-6.97-2.336c-1.322-.48-1.482-1.691-1.2-2.885.358-1.533.969-3.033,2.845-3.107,1-.214,2.007-.366,2.989-.652,2.972-.863,3.648-.632,5.43,2.009,1.553,1.4,1.57,3.134.725,5.064-.8,1.82-2.294,1.9-3.815,1.908" transform="translate(4.836 5.518)" fill="#364350"/>
        <path id="パス_1298-2" data-name="パス 1298" d="M27.3,14.566a11.544,11.544,0,0,1-8.9,2.193c-1.711.382-2.676-.674-3.165-1.994-.629-1.7-.969-3.517.962-4.78.914-.838,1.879-1.626,2.729-2.523,2.571-2.713,3.437-2.924,7.054-1.528,2.555.348,3.718,2,4.091,4.385.353,2.248-1.173,3.274-2.775,4.248" transform="translate(1.666 0.575)" fill="#364350"/>
        <path id="パス_1299-2" data-name="パス 1299" d="M71.791,4.6l3.11.346c2.2.571,3,1.767,2.992,4.485a4.048,4.048,0,0,1-3.4,4.072l-3.131,1.373q-4.643-.249-5.2-4.4a5.958,5.958,0,0,1,3.684-6.1,2.224,2.224,0,0,1,1.948.216" transform="translate(7.468 0.48)" fill="#364350"/>
        <path id="パス_1300-2" data-name="パス 1300" d="M83.691,49.313C82.315,51.36,80.252,51.4,78.3,51.265c-2.255-.154-2.858-2.365-3.475-4.386-.548-2.523,1.348-3.182,2.555-4.366,1.923-1.529,3.872-2.877,6.269-.983,1.889-.2,2.374,1.312,2.634,2.925.27,1.674.308,3.358-1.331,4.257-.408.224-.869.333-1.265.6" transform="translate(8.441 4.586)" fill="#364350"/>
        <path id="パス_1301-2" data-name="パス 1301" d="M79.568,32.846a7.369,7.369,0,0,1-5.12,1.531c-4-.082-6.319-4.3-4.457-8.107.49-1,1.115-1.748,2.262-1.538a6.9,6.9,0,0,1,4.227-1.692c2.433-.47,3.982.392,4.624,2.573,1.054,3.585.5,6.179-1.536,7.232" transform="translate(7.831 2.588)" fill="#364350"/>
        <path id="パス_1302-2" data-name="パス 1302" d="M91.925,11.73a7.7,7.7,0,0,1,.165,4.887c.423,2.327-1.062,3.455-3.112,3.979-3,.768-4.519.047-5.879-2.493-1.4-1.569-1.1-3.458-1.126-5.285,1.071-2.5,2.683-4.248,5.9-4.133,3.363.119,3.374.062,4.056,3.046" transform="translate(9.257 0.98)" fill="#364350"/>
        <path id="パス_1303-2" data-name="パス 1303" d="M23.489,42.827a9.088,9.088,0,0,1,5.261-1.356c2.428-1,3.987.24,5.019,2.2,1.515,2.874,1.076,4.589-1.369,6.592-1.386,1.8-3.5,1.96-5.475,2.431-2.955-.482-5.214-1.7-5.82-5-.634-3.452-.7-3.451,2.383-4.869" transform="translate(2.344 4.644)" fill="#364350"/>
        <path id="パス_1304-2" data-name="パス 1304" d="M61.879,26.622,58.556,27.7a4.527,4.527,0,0,1-5.871-2.171c-1.472-3.021-.854-5.1,2.013-6.761,2.483-2.063,5.1-2.05,7.825-.521,2.694-.036,2.686,2.02,2.779,3.8.149,2.838-.792,3.981-3.423,4.574" transform="translate(5.863 1.938)" fill="#364350"/>
        <path id="パス_1305-2" data-name="パス 1305" d="M7.472,50.912l3.475-.013a4.653,4.653,0,0,1,5.032,3.653c.593,3.149-.561,4.844-3.756,5.515-2.935,1.143-5.441.375-7.633-1.79-2.59-.746-2.024-2.6-1.633-4.229.624-2.6,1.835-3.36,4.515-3.135" transform="translate(0.295 5.746)" fill="#364350"/>
        <path id="パス_1306-2" data-name="パス 1306" d="M64.665,53.477c1.359-1.244,3.2-.62,4.724-1.225,1.77-.431,3.1.117,3.556,1.933.414,1.658.723,3.432-1.439,4.292-1.495,1.213-3.035,2.309-5.123,2-2.156,0-4.13-1.385-4.314-3.164-.2-1.943.292-3.535,2.6-3.833" transform="translate(7.006 5.886)" fill="#364350"/>
        <path id="パス_1307-2" data-name="パス 1307" d="M45.036,20.465c-.812,1.45-2.7,1.216-3.86,2.131-3.343,2.028-4.582-.263-6.267-1.812-1.772-1.63-.927-3.07.68-4.545l.48-.684c.77-3.083,3.865-3.084,6.043-3.145,2.452-.069,5.036.8,5.624,3.376.457,2-.455,3.625-2.7,4.68" transform="translate(3.831 1.401)" fill="#d39c38"/>
        <path id="パス_1308-2" data-name="パス 1308" d="M18.3,26.97c.475-1.321,2.087-1.4,2.923-2.329,2.505-2.168,3.86-.45,5.482.59,1.706,1.094,1.2,2.41.068,3.867l-.3.638c-.21,2.668-2.793,3.12-4.6,3.488-2.036.414-4.314.069-5.164-1.98-.661-1.59-.127-3.073,1.6-4.274" transform="translate(1.855 2.665)" fill="#d39c38"/>
        <path id="パス_1309-2" data-name="パス 1309" d="M3.16,37.648c.957-1.1,2.471-.465,3.606-1.014,3.161-1.039,3.726,1.265,4.807,3.016,1.137,1.841.154,2.921-1.465,3.864l-.533.5c-1.248,2.552-3.8,1.855-5.609,1.418C1.931,44.938-.027,43.587,0,41.177c.022-1.87,1.1-3.1,3.16-3.529" transform="translate(0 4.109)" fill="#364350"/>
      </g>
    </g>
  </g>
</svg>
