<svg id="グループ_117" data-name="グループ 117" xmlns="http://www.w3.org/2000/svg" xmlns:xlink="http://www.w3.org/1999/xlink" width="1366.932" height="364.346" viewBox="0 0 1366.932 364.346">
  <defs>
    <clipPath id="clip-path">
      <rect id="長方形_331" data-name="長方形 331" width="1366.932" height="364.345" fill="#f8f8f8"/>
    </clipPath>
  </defs>
  <g id="グループ_116" data-name="グループ 116" clip-path="url(#clip-path)">
    <path id="パス_2736" data-name="パス 2736" d="M792.131,85.285c-1.208.434-2.324,2.94-3.607,1.694-3.016-3.372-3.483-8.033-2.072-20.7.062-4.936.078-9.737,2.124-12.191,1.891-2.271,2.732,1.267,3.712,4.4,2.587,4.02,2.259,11.731,2.452,18.473.13,4.583-1,7.454-2.61,8.323" transform="translate(572.182 38.867)" fill="#f8f8f8"/>
    <path id="パス_2737" data-name="パス 2737" d="M786.552,174.739c-.88-13.55-.971-28.188-.838-43.372.083-9.445.541-17.258,1.557-19.636,1.225-2.872,1.517,8.057,1.841,14.258.779,14.958,1.224,30.811-.211,45.723-.726,4.523-1.536,3.84-2.349,3.028" transform="translate(572.164 81.024)" fill="#f8f8f8"/>
    <path id="パス_2738" data-name="パス 2738" d="M787.871,189.852q1.281.793,2.56,1.585a5.575,5.575,0,0,1,1.26,3.37c.183,8.116.135,16.256.024,24.4a6.328,6.328,0,0,1-1.2,3.754l-.014.043c-1.787,4.943-4.186,3.885-5.188-2.857a110.087,110.087,0,0,1-.382-24.541c.333-4.215,1.493-5.676,2.936-5.759" transform="translate(571.272 138.261)" fill="#f8f8f8"/>
    <path id="パス_2739" data-name="パス 2739" d="M196.477,191.977a278.32,278.32,0,0,1-1.528,29.6c-.46,4.646-1.341,7.993-2.774,8.042-1.4.048-2.444-3.059-2.71-7.54-.992-16.7-1.279-33.793-1.142-50.958.052-6.27,1.6-10.726,3.332-11.085,2.077-.43,3.607,4.509,4.058,10.857.581,8.154.626,16.828.764,21.088" transform="translate(137.124 116.525)" fill="#f8f8f8"/>
    <path id="パス_2740" data-name="パス 2740" d="M196.506,119.925c-1.208.434-2.324,2.94-3.607,1.694-3.016-3.372-3.482-8.033-2.072-20.7.062-4.936.078-9.737,2.124-12.191,1.891-2.271,2.732,1.267,3.712,4.4,2.587,4.02,2.259,11.731,2.452,18.473.13,4.583-1,7.454-2.61,8.323" transform="translate(138.416 64.094)" fill="#f8f8f8"/>
    <path id="パス_2741" data-name="パス 2741" d="M224.75,85.675c-1.208.434-2.324,2.94-3.607,1.694-3.016-3.372-3.482-8.033-2.072-20.7.062-4.936.078-9.737,2.124-12.191,1.891-2.271,2.732,1.267,3.712,4.4,2.587,4.02,2.259,11.731,2.452,18.473.13,4.583-1,7.454-2.61,8.323" transform="translate(158.985 39.151)" fill="#f8f8f8"/>
    <path id="パス_2742" data-name="パス 2742" d="M156.727,184.079c-1.934-13.441-2.138-28.067-1.849-43.267.18-9.455,1.182-17.326,3.412-19.83,2.691-3.024,3.33,7.869,4.041,14.028,1.716,14.861,2.693,30.659-.451,45.749-1.592,4.613-3.37,4.03-5.152,3.32" transform="translate(112.713 87.727)" fill="#f8f8f8"/>
    <path id="パス_2743" data-name="パス 2743" d="M156.755,82.213c-1.574-9.834-1.721-20.545-1.462-31.679.162-6.927,1-12.7,2.84-14.54,2.221-2.228,2.734,5.748,3.311,10.255,1.391,10.878,2.174,22.443-.439,33.507-1.319,3.386-2.782,2.967-4.25,2.456" transform="translate(113.018 25.933)" fill="#f8f8f8"/>
    <path id="パス_2744" data-name="パス 2744" d="M217.93,161.142c-.861-7.328.859-13.117,2.42-18.594,1.936-6.8,4.57-5.625,5.819,2.06.105.641.149,1.367.194,2.069,1,15.665-.254,31.414-.776,47.041-.161,4.858-2.136,11.035-4.908,8.9-2.449-1.891-3.558-7.58-3.557-13.783,0-9.1.508-18.262.809-27.688" transform="translate(158.119 100.557)" fill="#f8f8f8"/>
    <path id="パス_2745" data-name="パス 2745" d="M25.783,128.538c1.849-.245,2.708,2.871,2.819,7.183.315,12.264.824,24.451.332,37.062-.2,5.086-1.253,7.774-2.807,9.013-1.53,1.222-2.952-.643-3.327-4.281-1.469-14.27-1.092-29.263.173-44.371.2-2.331,1.175-3.152,2.041-3.289.444.5.641-.235.769-1.317" transform="translate(15.913 93.598)" fill="#f8f8f8"/>
    <path id="パス_2746" data-name="パス 2746" d="M84.7,16.358c1.849-.245,2.708,2.871,2.819,7.183.315,12.264.824,24.451.332,37.062-.2,5.086-1.253,7.774-2.807,9.013-1.53,1.222-2.952-.643-3.327-4.281-1.469-14.27-1.092-29.263.173-44.371.2-2.331,1.175-3.152,2.041-3.289.444.5.641-.235.769-1.317" transform="translate(58.817 11.903)" fill="#f8f8f8"/>
    <path id="パス_2747" data-name="パス 2747" d="M28.239,98.7c-1.208.434-2.325,2.94-3.607,1.694-3.016-3.372-3.482-8.033-2.072-20.7.062-4.936.078-9.737,2.124-12.191,1.891-2.271,2.732,1.267,3.712,4.4,2.587,4.02,2.259,11.731,2.452,18.473.13,4.583-1,7.454-2.61,8.323" transform="translate(15.874 48.636)" fill="#f8f8f8"/>
    <path id="パス_2748" data-name="パス 2748" d="M6.467,130.256c-1.208.434-2.325,2.94-3.607,1.694-3.016-3.372-3.482-8.033-2.072-20.7.062-4.936.078-9.737,2.124-12.191,1.891-2.271,2.732,1.267,3.712,4.4,2.587,4.02,2.259,11.731,2.452,18.473.13,4.583-1,7.454-2.61,8.323" transform="translate(0.019 71.618)" fill="#f8f8f8"/>
    <path id="パス_2749" data-name="パス 2749" d="M126.015,57.827c-1.208.434-2.325,2.94-3.607,1.694-3.016-3.372-3.482-8.033-2.072-20.7.062-4.936.078-9.737,2.124-12.191,1.891-2.271,2.732,1.267,3.712,4.4,2.587,4.02,2.259,11.731,2.452,18.473.13,4.583-1,7.454-2.61,8.323" transform="translate(87.08 18.871)" fill="#f8f8f8"/>
    <path id="パス_2750" data-name="パス 2750" d="M87.535,109.236c-1.208.434-2.325,2.94-3.607,1.694-3.016-3.372-3.482-8.033-2.072-20.7.062-4.936.078-9.737,2.124-12.191,1.891-2.271,2.732,1.267,3.712,4.4,2.587,4.02,2.259,11.731,2.452,18.473.13,4.583-1,7.454-2.61,8.323" transform="translate(59.057 56.31)" fill="#f8f8f8"/>
    <path id="パス_2751" data-name="パス 2751" d="M30.212,57.782c-1.208.434-2.325,2.94-3.607,1.694-3.016-3.372-3.482-8.033-2.072-20.7.062-4.936.078-9.737,2.124-12.191,1.891-2.271,2.732,1.267,3.712,4.4,2.587,4.02,2.259,11.731,2.452,18.473.13,4.583-1,7.454-2.61,8.323" transform="translate(17.311 18.838)" fill="#f8f8f8"/>
    <path id="パス_2752" data-name="パス 2752" d="M162.785,94.239a66.93,66.93,0,0,1-3.313,25.519c-.6,1.87-1.488,4.177-2.98,3.489-1.129-.522-1.281-2.6-1.459-4.5A138.735,138.735,0,0,1,157.5,77.06c.582-2.782,1.037-5.29,2.938-4.808,1.656.418,2.366,2.568,2.356,5.575-.019,4.926-.007,9.848-.009,16.411" transform="translate(112.472 52.574)" fill="#f8f8f8"/>
    <path id="パス_2753" data-name="パス 2753" d="M81.2,202.145a157.538,157.538,0,0,1,1.46-22.213c.449-3.491,1.324-6.016,2.757-6.078,1.4-.06,2.452,2.248,2.727,5.6,1.03,12.5,1.357,25.309,1.258,38.179-.036,4.7-1.571,8.069-3.308,8.37-2.076.359-3.617-3.315-4.084-8.066-.6-6.1-.662-12.6-.811-15.795" transform="translate(59.131 126.609)" fill="#f8f8f8"/>
    <path id="パス_2754" data-name="パス 2754" d="M45.913,167.783c-.854-7.335.871-13.112,2.437-18.577,1.943-6.785,4.575-5.591,5.817,2.105.1.643.147,1.369.19,2.07.989,15.675-.283,31.416-.819,47.04-.168,4.858-2.146,11.019-4.917,8.857-2.447-1.91-3.552-7.608-3.543-13.81.012-9.106.525-18.261.835-27.685" transform="translate(32.828 105.421)" fill="#f8f8f8"/>
    <path id="パス_2755" data-name="パス 2755" d="M47.854,23.025C47,15.691,48.725,9.913,50.291,4.448c1.943-6.785,4.575-5.591,5.817,2.105.1.643.147,1.369.19,2.07.989,15.675-.283,31.416-.819,47.04-.168,4.858-2.146,11.019-4.917,8.857-2.447-1.91-3.552-7.608-3.543-13.81.012-9.106.525-18.261.835-27.685" transform="translate(34.242 0)" fill="#f8f8f8"/>
    <path id="パス_2756" data-name="パス 2756" d="M55.917,102.165c.98,9.053-.65,16.386-2.124,23.316-1.828,8.6-4.483,7.342-5.859-2.129-.114-.79-.169-1.69-.226-2.558-1.255-19.419-.249-39.109.022-58.591.083-6.056,1.96-13.888,4.77-11.432,2.482,2.169,3.685,9.165,3.781,16.883.143,11.329-.216,22.761-.365,34.512" transform="translate(34.295 36.637)" fill="#f8f8f8"/>
    <path id="パス_2757" data-name="パス 2757" d="M32.135,32.931c-1.208.434-2.324,2.94-3.607,1.694-3.016-3.372-3.482-8.033-2.072-20.7.062-4.936.078-9.737,2.124-12.191C30.471-.533,31.313,3,32.293,6.135c2.587,4.02,2.259,11.731,2.452,18.473.13,4.583-1,7.454-2.61,8.323" transform="translate(18.712 0.74)" fill="#f8f8f8"/>
    <path id="パス_2758" data-name="パス 2758" d="M128.834,123.225c-.138,14.545-1.775,28.912-1.443,43.581.254,11.32-4.559,11.246-7.3,14.3-2.229,2.478-3.913-4.022-3.98-8.88-.311-22.521-1.125-45.253,3.256-67.027,2.75-.55,5.532-1.863,8.119,1.2,3.081,1.766,2.485,6.331,1.343,11.313q.005,2.753.009,5.508" transform="translate(84.36 76.064)" fill="#f8f8f8"/>
    <path id="パス_2759" data-name="パス 2759" d="M.888,219.71c-.88-13.55-.971-28.188-.838-43.372.083-9.445.541-17.258,1.557-19.636,1.225-2.872,1.517,8.057,1.841,14.258.779,14.958,1.224,30.811-.211,45.723C2.511,221.2,1.7,220.522.888,219.71" transform="translate(0 113.775)" fill="#f8f8f8"/>
    <path id="パス_2760" data-name="パス 2760" d="M2.025,77.683C2,64.041,2.819,49.476,3.9,34.414c.672-9.369,1.614-17.042,2.772-19.2,1.4-2.608,1.006,8.309.94,14.536-.157,15.022-.705,30.865-3.061,45.4-1,4.35-1.766,3.51-2.523,2.541" transform="translate(1.474 10.789)" fill="#f8f8f8"/>
    <path id="パス_2761" data-name="パス 2761" d="M477.08,178.35a278.321,278.321,0,0,1-1.528,29.6c-.46,4.646-1.341,7.993-2.774,8.042-1.4.048-2.444-3.059-2.71-7.54-.992-16.7-1.279-33.793-1.142-50.958.052-6.27,1.6-10.726,3.332-11.085,2.077-.43,3.607,4.509,4.058,10.857.581,8.154.626,16.828.764,21.088" transform="translate(341.475 106.601)" fill="#f8f8f8"/>
    <path id="パス_2762" data-name="パス 2762" d="M477.108,106.3c-1.208.434-2.325,2.94-3.607,1.694-3.016-3.372-3.482-8.033-2.072-20.7.062-4.936.078-9.737,2.124-12.191,1.891-2.271,2.732,1.267,3.712,4.4,2.587,4.02,2.259,11.731,2.452,18.473.13,4.583-1,7.454-2.61,8.323" transform="translate(342.765 54.169)" fill="#f8f8f8"/>
    <path id="パス_2763" data-name="パス 2763" d="M505.352,72.047c-1.208.434-2.325,2.94-3.607,1.694-3.016-3.372-3.482-8.033-2.072-20.7.062-4.936.078-9.737,2.124-12.191,1.891-2.271,2.732,1.267,3.712,4.4,2.587,4.02,2.259,11.731,2.452,18.473.13,4.583-1,7.454-2.61,8.323" transform="translate(363.334 29.227)" fill="#f8f8f8"/>
    <path id="パス_2764" data-name="パス 2764" d="M437.329,170.452c-1.934-13.441-2.138-28.067-1.849-43.267.18-9.455,1.182-17.326,3.412-19.83,2.691-3.024,3.33,7.869,4.041,14.028,1.716,14.861,2.693,30.659-.451,45.749-1.592,4.613-3.37,4.03-5.152,3.32" transform="translate(317.063 77.803)" fill="#f8f8f8"/>
    <path id="パス_2765" data-name="パス 2765" d="M437.357,68.585c-1.574-9.834-1.721-20.545-1.462-31.679.162-6.927,1-12.7,2.84-14.54,2.221-2.228,2.734,5.748,3.311,10.255,1.391,10.878,2.174,22.443-.439,33.507-1.319,3.386-2.783,2.967-4.25,2.456" transform="translate(317.368 16.008)" fill="#f8f8f8"/>
    <path id="パス_2766" data-name="パス 2766" d="M498.532,147.514c-.861-7.328.859-13.117,2.42-18.594,1.936-6.8,4.57-5.625,5.819,2.06.105.641.149,1.367.194,2.069,1,15.665-.254,31.414-.776,47.041-.161,4.858-2.136,11.035-4.908,8.9-2.449-1.891-3.558-7.58-3.557-13.783,0-9.1.508-18.262.809-27.688" transform="translate(362.469 90.632)" fill="#f8f8f8"/>
    <path id="パス_2767" data-name="パス 2767" d="M292.758,129.9c1.849-.245,2.708,2.871,2.819,7.183.315,12.264.824,24.451.332,37.062-.2,5.086-1.253,7.774-2.807,9.013-1.529,1.222-2.952-.643-3.327-4.281-1.469-14.27-1.092-29.263.173-44.371.2-2.331,1.175-3.152,2.041-3.289.444.5.641-.235.769-1.317" transform="translate(210.339 94.591)" fill="#f8f8f8"/>
    <path id="パス_2768" data-name="パス 2768" d="M365.3,28.168c1.849-.245,2.708,2.871,2.819,7.183.314,12.264.824,24.451.332,37.062-.2,5.086-1.253,7.774-2.807,9.013-1.529,1.222-2.952-.643-3.327-4.281-1.469-14.27-1.092-29.263.173-44.371.2-2.331,1.175-3.152,2.041-3.289.444.5.641-.235.769-1.317" transform="translate(263.167 20.503)" fill="#f8f8f8"/>
    <path id="パス_2769" data-name="パス 2769" d="M295.215,100.062c-1.208.434-2.325,2.94-3.607,1.694-3.016-3.372-3.484-8.033-2.072-20.7.062-4.936.076-9.737,2.124-12.191,1.889-2.271,2.731,1.267,3.711,4.4,2.587,4.02,2.259,11.731,2.452,18.473.131,4.583-.994,7.454-2.608,8.323" transform="translate(210.3 49.629)" fill="#f8f8f8"/>
    <path id="パス_2770" data-name="パス 2770" d="M259.939,85.285c-1.208.434-2.324,2.94-3.607,1.694-3.016-3.372-3.482-8.033-2.072-20.7.062-4.936.078-9.737,2.124-12.191,1.891-2.271,2.732,1.267,3.712,4.4,2.587,4.02,2.259,11.731,2.452,18.473.13,4.583-1,7.454-2.61,8.323" transform="translate(184.611 38.867)" fill="#f8f8f8"/>
    <path id="パス_2771" data-name="パス 2771" d="M406.617,44.2c-1.208.434-2.324,2.94-3.607,1.694-3.016-3.372-3.482-8.033-2.072-20.7.062-4.936.078-9.737,2.124-12.191,1.891-2.271,2.732,1.267,3.712,4.4,2.587,4.02,2.259,11.731,2.452,18.473.13,4.583-1,7.454-2.61,8.323" transform="translate(291.43 8.947)" fill="#f8f8f8"/>
    <path id="パス_2772" data-name="パス 2772" d="M368.138,121.046c-1.208.434-2.324,2.94-3.607,1.694-3.016-3.372-3.482-8.033-2.072-20.7.062-4.936.078-9.737,2.124-12.191,1.891-2.271,2.732,1.267,3.712,4.4,2.587,4.02,2.259,11.731,2.452,18.473.13,4.583-1,7.454-2.61,8.323" transform="translate(263.407 64.91)" fill="#f8f8f8"/>
    <path id="パス_2773" data-name="パス 2773" d="M297.187,59.145c-1.208.434-2.324,2.94-3.607,1.694-3.016-3.372-3.482-8.033-2.072-20.7.062-4.936.078-9.737,2.124-12.191,1.891-2.271,2.732,1.267,3.712,4.4,2.587,4.02,2.259,11.731,2.452,18.473.13,4.583-1,7.454-2.61,8.323" transform="translate(211.737 19.831)" fill="#f8f8f8"/>
    <path id="パス_2774" data-name="パス 2774" d="M443.387,80.611a66.9,66.9,0,0,1-3.315,25.519c-.6,1.87-1.486,4.177-2.978,3.489-1.129-.522-1.281-2.6-1.459-4.5A138.736,138.736,0,0,1,438.1,63.432c.582-2.782,1.037-5.29,2.938-4.808,1.656.418,2.366,2.568,2.356,5.575-.019,4.926-.007,9.848-.009,16.411" transform="translate(316.822 42.65)" fill="#f8f8f8"/>
    <path id="パス_2775" data-name="パス 2775" d="M326.516,154.155c-.855-7.335.871-13.112,2.435-18.577,1.944-6.785,4.575-5.591,5.817,2.105.105.643.149,1.369.19,2.07.989,15.675-.283,31.416-.818,47.04-.169,4.858-2.148,11.019-4.919,8.857-2.447-1.91-3.55-7.608-3.541-13.81.012-9.106.524-18.261.835-27.685" transform="translate(237.179 95.496)" fill="#f8f8f8"/>
    <path id="パス_2776" data-name="パス 2776" d="M336.519,88.537c.98,9.053-.65,16.386-2.124,23.316-1.828,8.6-4.483,7.342-5.859-2.129-.114-.79-.169-1.69-.226-2.558-1.255-19.419-.249-39.109.022-58.591.083-6.056,1.96-13.888,4.77-11.432,2.482,2.169,3.685,9.165,3.781,16.883.143,11.329-.216,22.761-.365,34.512" transform="translate(238.644 26.712)" fill="#f8f8f8"/>
    <path id="パス_2777" data-name="パス 2777" d="M299.11,34.293c-1.208.434-2.324,2.94-3.607,1.694-3.016-3.372-3.482-8.033-2.072-20.7.062-4.936.078-9.737,2.124-12.191,1.891-2.271,2.732,1.267,3.712,4.4,2.587,4.02,2.259,11.731,2.452,18.473.13,4.583-1,7.454-2.61,8.323" transform="translate(213.138 1.732)" fill="#f8f8f8"/>
    <path id="パス_2778" data-name="パス 2778" d="M409.436,109.6c-.138,14.545-1.775,28.912-1.443,43.581.254,11.32-4.559,11.246-7.3,14.3-2.229,2.478-3.913-4.022-3.98-8.88-.311-22.521-1.125-45.253,3.256-67.027,2.75-.55,5.532-1.863,8.119,1.2,3.081,1.766,2.485,6.332,1.343,11.313q.005,2.753.009,5.508" transform="translate(288.71 66.14)" fill="#f8f8f8"/>
    <path id="パス_2779" data-name="パス 2779" d="M254.36,174.739c-.88-13.55-.971-28.188-.838-43.372.083-9.445.541-17.258,1.557-19.636,1.225-2.872,1.517,8.057,1.841,14.258.779,14.958,1.224,30.811-.211,45.723-.726,4.523-1.536,3.84-2.349,3.028" transform="translate(184.593 81.024)" fill="#f8f8f8"/>
    <path id="パス_2780" data-name="パス 2780" d="M255.68,189.852q1.281.793,2.56,1.585a5.574,5.574,0,0,1,1.26,3.37c.183,8.116.135,16.256.024,24.4a6.328,6.328,0,0,1-1.2,3.754l-.014.043c-1.787,4.943-4.186,3.885-5.188-2.857a110.093,110.093,0,0,1-.382-24.541c.334-4.215,1.493-5.676,2.936-5.759" transform="translate(183.701 138.261)" fill="#f8f8f8"/>
    <path id="パス_2781" data-name="パス 2781" d="M728.669,191.977a278.849,278.849,0,0,1-1.526,29.6c-.461,4.646-1.343,7.993-2.776,8.042-1.4.048-2.444-3.059-2.71-7.54-.992-16.7-1.279-33.793-1.142-50.958.052-6.27,1.6-10.726,3.332-11.085,2.077-.43,3.607,4.509,4.058,10.857.581,8.154.626,16.828.764,21.088" transform="translate(524.695 116.525)" fill="#f8f8f8"/>
    <path id="パス_2782" data-name="パス 2782" d="M728.7,119.925c-1.208.434-2.324,2.94-3.607,1.694-3.016-3.372-3.483-8.033-2.072-20.7.062-4.936.078-9.737,2.124-12.191,1.891-2.271,2.732,1.267,3.712,4.4,2.587,4.02,2.259,11.731,2.452,18.473.13,4.583-1,7.454-2.61,8.323" transform="translate(525.986 64.094)" fill="#f8f8f8"/>
    <path id="パス_2783" data-name="パス 2783" d="M756.941,85.675c-1.208.434-2.324,2.94-3.609,1.694-3.014-3.372-3.481-8.033-2.07-20.7.062-4.936.078-9.737,2.124-12.191,1.891-2.271,2.732,1.267,3.712,4.4,2.587,4.02,2.259,11.731,2.452,18.473.13,4.583-1,7.454-2.61,8.323" transform="translate(546.555 39.151)" fill="#f8f8f8"/>
    <path id="パス_2784" data-name="パス 2784" d="M688.918,184.079c-1.934-13.441-2.138-28.067-1.849-43.267.18-9.455,1.182-17.326,3.411-19.83,2.691-3.024,3.33,7.869,4.041,14.028,1.716,14.861,2.693,30.659-.451,45.749-1.592,4.613-3.37,4.03-5.152,3.32" transform="translate(500.284 87.727)" fill="#f8f8f8"/>
    <path id="パス_2785" data-name="パス 2785" d="M688.946,82.213c-1.574-9.834-1.721-20.545-1.462-31.679.162-6.927,1-12.7,2.84-14.54,2.221-2.228,2.734,5.748,3.311,10.255,1.391,10.878,2.174,22.443-.439,33.507-1.319,3.386-2.782,2.967-4.25,2.456" transform="translate(500.589 25.933)" fill="#f8f8f8"/>
    <path id="パス_2786" data-name="パス 2786" d="M750.121,161.142c-.861-7.328.859-13.117,2.42-18.594,1.936-6.8,4.569-5.625,5.819,2.06.105.641.149,1.367.194,2.069,1,15.665-.254,31.414-.776,47.041-.161,4.858-2.134,11.035-4.908,8.9-2.449-1.891-3.559-7.58-3.557-13.783,0-9.1.508-18.262.809-27.688" transform="translate(545.69 100.557)" fill="#f8f8f8"/>
    <path id="パス_2787" data-name="パス 2787" d="M557.974,128.538c1.849-.245,2.708,2.871,2.819,7.183.315,12.264.824,24.451.332,37.062-.2,5.086-1.253,7.774-2.8,9.013-1.531,1.222-2.954-.643-3.329-4.281-1.469-14.27-1.09-29.263.173-44.371.2-2.331,1.175-3.152,2.041-3.289.444.5.641-.235.769-1.317" transform="translate(403.484 93.598)" fill="#f8f8f8"/>
    <path id="パス_2788" data-name="パス 2788" d="M616.888,16.358c1.849-.245,2.708,2.871,2.819,7.183.315,12.264.824,24.451.332,37.062-.2,5.086-1.253,7.774-2.8,9.013-1.531,1.222-2.954-.643-3.329-4.281-1.469-14.27-1.092-29.263.173-44.371.2-2.331,1.175-3.152,2.041-3.289.444.5.641-.235.769-1.317" transform="translate(446.388 11.903)" fill="#f8f8f8"/>
    <path id="パス_2789" data-name="パス 2789" d="M560.43,98.7c-1.208.434-2.325,2.94-3.609,1.694-3.014-3.372-3.481-8.033-2.07-20.7.062-4.936.078-9.737,2.124-12.191,1.891-2.271,2.732,1.267,3.712,4.4,2.587,4.02,2.259,11.731,2.452,18.473.13,4.583-1,7.454-2.61,8.323" transform="translate(403.445 48.636)" fill="#f8f8f8"/>
    <path id="パス_2790" data-name="パス 2790" d="M538.658,130.256c-1.208.434-2.324,2.94-3.609,1.694-3.014-3.372-3.481-8.033-2.07-20.7.062-4.936.078-9.737,2.124-12.191,1.891-2.271,2.732,1.267,3.712,4.4,2.587,4.02,2.259,11.731,2.452,18.473.13,4.583-1,7.454-2.61,8.323" transform="translate(387.59 71.618)" fill="#f8f8f8"/>
    <path id="パス_2791" data-name="パス 2791" d="M658.206,57.827c-1.208.434-2.325,2.94-3.609,1.694-3.014-3.372-3.481-8.033-2.07-20.7.062-4.936.078-9.737,2.124-12.191,1.891-2.271,2.732,1.267,3.712,4.4,2.587,4.02,2.259,11.731,2.452,18.473.13,4.583-1,7.454-2.61,8.323" transform="translate(474.651 18.871)" fill="#f8f8f8"/>
    <path id="パス_2792" data-name="パス 2792" d="M619.727,109.236c-1.208.434-2.324,2.94-3.607,1.694-3.016-3.372-3.483-8.033-2.072-20.7.062-4.936.078-9.737,2.124-12.191,1.891-2.271,2.732,1.267,3.712,4.4,2.587,4.02,2.259,11.731,2.452,18.473.13,4.583-1,7.454-2.61,8.323" transform="translate(446.628 56.31)" fill="#f8f8f8"/>
    <path id="パス_2793" data-name="パス 2793" d="M562.4,57.782c-1.208.434-2.325,2.94-3.607,1.694-3.016-3.372-3.483-8.033-2.072-20.7.062-4.936.078-9.737,2.124-12.191,1.891-2.271,2.732,1.267,3.712,4.4,2.587,4.02,2.259,11.731,2.452,18.473.13,4.583-1,7.454-2.61,8.323" transform="translate(404.883 18.838)" fill="#f8f8f8"/>
    <path id="パス_2794" data-name="パス 2794" d="M694.977,94.239a66.9,66.9,0,0,1-3.315,25.519c-.6,1.87-1.486,4.177-2.978,3.489-1.129-.522-1.281-2.6-1.459-4.5a138.734,138.734,0,0,1,2.466-41.685c.582-2.782,1.037-5.29,2.938-4.808,1.656.418,2.366,2.568,2.356,5.575-.019,4.926-.007,9.848-.009,16.411" transform="translate(500.043 52.574)" fill="#f8f8f8"/>
    <path id="パス_2795" data-name="パス 2795" d="M613.388,202.145a157.576,157.576,0,0,1,1.46-22.213c.451-3.491,1.324-6.016,2.757-6.078,1.4-.06,2.452,2.248,2.727,5.6,1.03,12.5,1.357,25.309,1.258,38.179-.036,4.7-1.571,8.069-3.308,8.37-2.076.359-3.617-3.315-4.084-8.066-.6-6.1-.662-12.6-.811-15.795" transform="translate(446.703 126.609)" fill="#f8f8f8"/>
    <path id="パス_2796" data-name="パス 2796" d="M578.1,167.783c-.854-7.335.871-13.112,2.437-18.577,1.943-6.785,4.575-5.591,5.817,2.105.1.643.147,1.369.19,2.07.989,15.675-.283,31.416-.819,47.04-.168,4.858-2.146,11.019-4.917,8.857-2.447-1.91-3.552-7.608-3.543-13.81.012-9.106.525-18.261.835-27.685" transform="translate(420.4 105.421)" fill="#f8f8f8"/>
    <path id="パス_2797" data-name="パス 2797" d="M580.046,23.025c-.854-7.335.871-13.112,2.437-18.577,1.943-6.785,4.575-5.591,5.817,2.105.1.643.147,1.369.19,2.07.988,15.675-.283,31.416-.819,47.04-.168,4.858-2.146,11.019-4.917,8.857-2.447-1.91-3.552-7.608-3.543-13.81.012-9.106.525-18.261.835-27.685" transform="translate(421.813 0)" fill="#f8f8f8"/>
    <path id="パス_2798" data-name="パス 2798" d="M588.109,102.165c.978,9.053-.652,16.386-2.124,23.316-1.83,8.6-4.485,7.342-5.859-2.129-.116-.79-.171-1.69-.226-2.558-1.255-19.419-.251-39.109.021-58.591.085-6.056,1.96-13.888,4.77-11.432,2.484,2.169,3.685,9.165,3.783,16.883.142,11.329-.216,22.761-.365,34.512" transform="translate(421.866 36.637)" fill="#f8f8f8"/>
    <path id="パス_2799" data-name="パス 2799" d="M564.327,32.931c-1.208.434-2.324,2.94-3.607,1.694-3.016-3.372-3.482-8.033-2.072-20.7.062-4.936.078-9.737,2.124-12.191,1.891-2.271,2.732,1.267,3.712,4.4,2.587,4.02,2.259,11.731,2.452,18.473.13,4.583-1,7.454-2.61,8.323" transform="translate(406.283 0.74)" fill="#f8f8f8"/>
    <path id="パス_2800" data-name="パス 2800" d="M661.025,123.225c-.138,14.545-1.775,28.912-1.443,43.581.254,11.32-4.559,11.246-7.3,14.3-2.229,2.478-3.913-4.022-3.98-8.88-.311-22.521-1.125-45.253,3.256-67.027,2.75-.55,5.532-1.863,8.119,1.2,3.081,1.766,2.485,6.331,1.343,11.313q.005,2.753.009,5.508" transform="translate(471.931 76.064)" fill="#f8f8f8"/>
    <path id="パス_2801" data-name="パス 2801" d="M533.079,219.71c-.88-13.55-.971-28.188-.838-43.372.083-9.445.541-17.258,1.557-19.636,1.225-2.872,1.517,8.057,1.841,14.258.78,14.958,1.224,30.811-.211,45.723-.726,4.523-1.536,3.84-2.349,3.028" transform="translate(387.571 113.775)" fill="#f8f8f8"/>
    <path id="パス_2802" data-name="パス 2802" d="M534.216,77.683c-.029-13.641.793-28.207,1.872-43.269.672-9.369,1.614-17.042,2.772-19.2,1.4-2.608,1.006,8.309.94,14.536-.157,15.022-.705,30.865-3.061,45.4-1,4.35-1.766,3.51-2.523,2.541" transform="translate(389.045 10.789)" fill="#f8f8f8"/>
  </g>
</svg>
