<?xml version="1.0" encoding="UTF-8"?>
<svg id="Layer_2" data-name="Layer 2" xmlns="http://www.w3.org/2000/svg" viewBox="0 0 2680 86.13">
  <defs>
    <style>
      .cls-1 {
        fill: #2d653b;
      }
    </style>
  </defs>
  <g id="Layer_1-2" data-name="Layer 1">
    <path class="cls-1" d="m0,39.8c43.08,12.5,108.42,26.96,188.87,26.61,19.84-.09,48.63-2.62,105.39-7.83,86.97-7.97,153.83-15.64,222.78-23.48,66.29-7.53,99.5-14.15,161.74-18.26,43.38-2.87,68.66-2.85,94.43-1.04,26.13,1.83,40.02,4.61,109.57,17.74,115.8,21.86,125.06,23.16,138.26,24.52,14.38,1.48,59.21,5.69,117.39,3.13,15.18-.67,35.49-1.98,142.96-17.74,85.17-12.49,101.34-15.91,148.7-20.87,54.69-5.73,81.76-6.28,104.35-5.74,35.08.83,59.71,4.27,89.74,8.35,104.03,14.11,156.05,21.17,178.43,22.96,88.12,7.04,159.32,2.05,184.17,0,28.23-2.32,20.17-2.78,107.48-12,25.49-2.69,38.09-3.91,128.87-13.04,44.39-4.46,66.58-6.7,72.52-7.3,121.1-12.37,136.61-15.02,175.3-15.65,10.25-.17,55.19-.96,93.39,4.17,24.38,3.28,65.08,11.52,115.65,35.34v46.47H0v-46.33Z"/>
  </g>
</svg>