<svg id="グループ_275" data-name="グループ 275" xmlns="http://www.w3.org/2000/svg" xmlns:xlink="http://www.w3.org/1999/xlink" width="31.094" height="25.875" viewBox="0 0 31.094 25.875">
  <defs>
    <clipPath id="clip-path">
      <rect id="長方形_570" data-name="長方形 570" width="31.094" height="25.875" transform="translate(0 0)" fill="#2d2c2f"/>
    </clipPath>
  </defs>
  <g id="グループ_271" data-name="グループ 271" transform="translate(0 0)" clip-path="url(#clip-path)">
    <path id="パス_5910" data-name="パス 5910" d="M26.591,55.9a2.591,2.591,0,1,0,2.591,2.591A2.575,2.575,0,0,0,26.591,55.9m0,3.7A1.111,1.111,0,1,1,27.7,58.491,1.091,1.091,0,0,1,26.591,59.6" transform="translate(-15.116 -35.207)" fill="#2d2c2f"/>
    <path id="パス_5911" data-name="パス 5911" d="M55.591,55.9a2.591,2.591,0,1,0,2.591,2.591A2.575,2.575,0,0,0,55.591,55.9m0,3.7A1.111,1.111,0,1,1,56.7,58.491,1.091,1.091,0,0,1,55.591,59.6" transform="translate(-33.381 -35.207)" fill="#2d2c2f"/>
    <path id="パス_5912" data-name="パス 5912" d="M31.094,5.182V4.96c0-.037,0-.037-.037-.074,0-.037,0-.037-.037-.074,0-.037-.037-.037-.037-.074s-.037-.037-.037-.074a.036.036,0,0,0-.037-.037l-.037-.037-.037-.037c-.037,0-.037-.037-.074-.037s-.037-.037-.074-.037-.037-.037-.074-.037H6.145L5.182.555A.713.713,0,0,0,4.479,0H.74a.74.74,0,0,0,0,1.481H3.85L8.144,18.694a.713.713,0,0,0,.7.555H25.875a.757.757,0,0,0,.7-.518L31.02,5.4V5.293c.074-.074.074-.074.074-.111m-5.7,12.549H9.476L6.515,5.886h22.84Z" transform="translate(0 0)" fill="#2d2c2f"/>
    <path id="パス_5913" data-name="パス 5913" d="M46.74,23.9a.743.743,0,0,0-.74.74v4.442a.74.74,0,1,0,1.481,0V24.64a.743.743,0,0,0-.74-.74" transform="translate(-28.972 -15.053)" fill="#2d2c2f"/>
    <path id="パス_5914" data-name="パス 5914" d="M34.74,23.9a.743.743,0,0,0-.74.74v4.442a.74.74,0,1,0,1.481,0V24.64a.743.743,0,0,0-.74-.74" transform="translate(-21.414 -15.053)" fill="#2d2c2f"/>
    <path id="パス_5915" data-name="パス 5915" d="M57.74,23.9a.743.743,0,0,0-.74.74v4.442a.74.74,0,1,0,1.481,0V24.64a.743.743,0,0,0-.74-.74" transform="translate(-35.9 -15.053)" fill="#2d2c2f"/>
  </g>
</svg>
