<svg xmlns="http://www.w3.org/2000/svg" xmlns:xlink="http://www.w3.org/1999/xlink" width="176" height="161" viewBox="0 0 176 161">
  <defs>
    <clipPath id="clip-path">
      <rect id="長方形_588" data-name="長方形 588" width="176" height="161" transform="translate(594 4873)" fill="none" stroke="#707070" stroke-width="1"/>
    </clipPath>
    <clipPath id="clip-path-2">
      <rect id="長方形_568" data-name="長方形 568" width="57.643" height="161.564" fill="none"/>
    </clipPath>
  </defs>
  <g id="マスクグループ_120" data-name="マスクグループ 120" transform="translate(-594 -4873)" clip-path="url(#clip-path)">
    <g id="グループ_279" data-name="グループ 279">
      <g id="グループ_262" data-name="グループ 262" transform="translate(650 4872.91)">
        <g id="グループ_261" data-name="グループ 261" clip-path="url(#clip-path-2)">
          <path id="パス_5803" data-name="パス 5803" d="M49.112,29.754a2.458,2.458,0,0,1,2.2-.8c.7.031,1.394.027,2.092.039l.721.011.772.637-5.779.115" transform="translate(-12.214 -7.199)" fill="#413f3f"/>
          <path id="パス_5804" data-name="パス 5804" d="M34.615,175.074l.169-2.3c.971,1.167.545,2.5.457,3.8q-.3-.034-.591-.055-.017-.719-.035-1.438" transform="translate(-8.608 -42.967)" fill="#413f3f"/>
          <path id="パス_5805" data-name="パス 5805" d="M34.814,181.734l-.158-2.313a3.9,3.9,0,0,0,.009-.7q.3-.026.6-.065a3.768,3.768,0,0,1-.455,3.079" transform="translate(-8.619 -44.43)" fill="#413f3f"/>
          <path id="パス_5806" data-name="パス 5806" d="M4.52,160.766q-.287-.036-.572-.08-.081-.715-.164-1.429l.717-.792Z" transform="translate(-0.941 -39.409)" fill="#413f3f"/>
          <path id="パス_5807" data-name="パス 5807" d="M35.271,178.43c-.2.026-.4.047-.6.065q0-.371-.006-.744.3.02.591.054a1.134,1.134,0,0,1,.019.625" transform="translate(-8.62 -44.205)" fill="#413f3f"/>
          <path id="パス_5808" data-name="パス 5808" d="M41.281,37.9q0,1.848.008,3.7c-2.394,3.885-4.776,7.784-9.452,9.367a1.843,1.843,0,0,0-1.512.622c-.824.488-1.627,1.019-2.48,1.449a7.387,7.387,0,0,1-2.008.74c-2.243.39-3.07-.67-2.547-2.928a8.139,8.139,0,0,1,4.754-5.524c2.311-1.128,4.082-2.884,6.075-4.385a1.983,1.983,0,0,0-.174-2.965,11.53,11.53,0,0,0-3.579-4.361c-2.166-.937-4.318-1.226-6.43.147a2.741,2.741,0,0,1-.108.55,1.789,1.789,0,0,0-.6,1.524,11.789,11.789,0,0,1-7.155,7.281l-3.792-.08a3.065,3.065,0,0,1-.651-.091,3.232,3.232,0,0,0-2.2-.66,10.235,10.235,0,0,1-2.786-2.24,1.8,1.8,0,0,0-.806-1.379,1.353,1.353,0,0,1-.11-.541q.03-3.375.062-6.749c1.7-2.439,3.576-4.686,6.53-5.695a4.244,4.244,0,0,0,2.911-.642l.806-.739a4.915,4.915,0,0,0-.055-5.131,1.446,1.446,0,0,0-1.467-.79c-.713.03-1.424.1-2.137.15a1.807,1.807,0,0,0-1.544.521c-2.328.594-4.648,1.246-7.092.768a1.875,1.875,0,0,0-1.53-.587L.766,17.77a1.71,1.71,0,0,0-.618-1.528c-.5-2.577.243-4.583,2.67-5.816l4.5.1c1.748.022,3.5.032,5.246.069a5.025,5.025,0,0,0,2.652-.773.628.628,0,0,0,.593-.752,1,1,0,0,0-.014-.648,1.729,1.729,0,0,0-.513-1.551,4.524,4.524,0,0,0-.8-1.925c-1.122-1.95-1.1-1.961.768-3.745l4.213.036.109-.073a2.649,2.649,0,0,0,.588,2.3q.465,2.389.932,4.779c.591,1.022,1.318.854,2.1.238q.326-.094.651-.192c1.775.151,3.555.358,5.239-.482l1.935-.228A1.965,1.965,0,0,0,32.58,7.04l1.359-.032A3.307,3.307,0,0,0,36.1,7.7l.755.684.636,1.474a3.094,3.094,0,0,1-1.006,2.862,7.261,7.261,0,0,1-3.971,2.1c-.691.114-1.4.122-2.1.177a1.678,1.678,0,0,0-1.609.453c-1.137.246-2.282.464-3.41.745-1.364.34-1.5.507-1.524,1.877-.013.579.077,1.161.121,1.742a2.8,2.8,0,0,0,.478,2.31c.315,1.406.008,2.947.92,4.223.762,1.053,1.832.763,2.86.656a35.287,35.287,0,0,0,3.525.668,8.421,8.421,0,0,1,5.246,2.894c1.957,2.045,3.89,4.287,4.259,7.334M13.1,33.765a1.508,1.508,0,0,0,.643.276,1.235,1.235,0,0,0,1.365-.791,1.213,1.213,0,0,0-.03-1.288c-.062-.094-.142-.22-.235-.243-.748-.183-1.839.844-1.743,2.047" transform="translate(0 -0.289)" fill="#413f3f"/>
          <path id="パス_5809" data-name="パス 5809" d="M7.44,41.379q-.032,3.374-.062,6.748a7.482,7.482,0,0,1,.062-6.748" transform="translate(-1.643 -10.291)" fill="#413f3f"/>
          <path id="パス_5810" data-name="パス 5810" d="M21.282,25.13a4.913,4.913,0,0,1,.054,5.131l-.054-5.131" transform="translate(-5.293 -6.25)" fill="#413f3f"/>
          <path id="パス_5811" data-name="パス 5811" d="M8.252,13.353l-4.5-.1a3.709,3.709,0,0,1,4.5.1" transform="translate(-0.933 -3.119)" fill="#413f3f"/>
          <path id="パス_5812" data-name="パス 5812" d="M24.516.945,20.3.91C21.715-.1,23.123-.5,24.516.945" transform="translate(-5.049 0)" fill="#413f3f"/>
          <path id="パス_5813" data-name="パス 5813" d="M16.35,56.9l3.792.08a3.034,3.034,0,0,1-3.792-.08" transform="translate(-4.066 -14.15)" fill="#413f3f"/>
          <path id="パス_5814" data-name="パス 5814" d="M45.182,50.161a1.984,1.984,0,0,1,.174,2.965l-.174-2.965" transform="translate(-11.236 -12.475)" fill="#413f3f"/>
          <path id="パス_5815" data-name="パス 5815" d="M26.637,3.459a2.649,2.649,0,0,1-.588-2.3,2.934,2.934,0,0,1,.588,2.3" transform="translate(-6.474 -0.289)" fill="#413f3f"/>
          <path id="パス_5816" data-name="パス 5816" d="M30.173,10.817c-.778.616-1.5.784-2.1-.238l2.1.238" transform="translate(-6.983 -2.631)" fill="#413f3f"/>
          <path id="パス_5817" data-name="パス 5817" d="M12.561,55.9a3.225,3.225,0,0,1,2.2.66,2.371,2.371,0,0,1-2.2-.66" transform="translate(-3.124 -13.898)" fill="#413f3f"/>
          <path id="パス_5818" data-name="パス 5818" d="M20.338,8.757a1.731,1.731,0,0,1,.513,1.551,1.924,1.924,0,0,1-.513-1.551" transform="translate(-5.054 -2.178)" fill="#413f3f"/>
          <path id="パス_5819" data-name="パス 5819" d="M.2,21.234a1.712,1.712,0,0,1,.618,1.528A2.018,2.018,0,0,1,.2,21.234" transform="translate(-0.048 -5.281)" fill="#413f3f"/>
          <path id="パス_5820" data-name="パス 5820" d="M40.362,68.07a1.845,1.845,0,0,1,1.512-.622,1.823,1.823,0,0,1-1.512.622" transform="translate(-10.038 -16.772)" fill="#413f3f"/>
          <path id="パス_5821" data-name="パス 5821" d="M14.429,24.792a1.8,1.8,0,0,1,1.544-.521,1.761,1.761,0,0,1-1.544.521" transform="translate(-3.588 -6.032)" fill="#413f3f"/>
          <path id="パス_5822" data-name="パス 5822" d="M2.953,25.21a1.875,1.875,0,0,1,1.53.587,1.671,1.671,0,0,1-1.53-.587" transform="translate(-0.734 -6.269)" fill="#413f3f"/>
          <path id="パス_5823" data-name="パス 5823" d="M30.916,46.809a1.792,1.792,0,0,1,.6-1.524,1.861,1.861,0,0,1-.6,1.524" transform="translate(-7.686 -11.262)" fill="#413f3f"/>
          <path id="パス_5824" data-name="パス 5824" d="M7.78,51.081a1.8,1.8,0,0,1,.805,1.379,1.706,1.706,0,0,1-.805-1.379" transform="translate(-1.935 -12.703)" fill="#413f3f"/>
          <path id="パス_5825" data-name="パス 5825" d="M20.848,11.684a.628.628,0,0,1-.593.752l.593-.752" transform="translate(-5.037 -2.906)" fill="#413f3f"/>
          <path id="パス_5826" data-name="パス 5826" d="M27.123,85.429,30.2,85.4l3.423,1.026a2.226,2.226,0,0,0,3.074.03l3.373-1.021,3.877-.019,2.727.189a5.721,5.721,0,0,0,3.643.663L53.9,89.9a5.618,5.618,0,0,0,.651,2.9l.183.642q.02,1.872.041,3.744-.126,1.013-.253,2.026A1.893,1.893,0,0,0,54,100.772c-.922,1.332-1.9,2.6-3.6,3a1.768,1.768,0,0,0-1.627.4,6,6,0,0,0-.628.224l-11.577.019-.334-.029-.328.075a.677.677,0,0,0-.774.573A45.619,45.619,0,0,0,27.3,118.923a20.349,20.349,0,0,1-.894,1.941,1.828,1.828,0,0,0-.5,1.583,2.372,2.372,0,0,1-.177.6,1.946,1.946,0,0,0-.571,1.56l-1.634,4.909a5.544,5.544,0,0,0-.666,1.469q-.371.683-.743,1.365l-.034.061q-.282.5-.564,1a.483.483,0,0,1-.111.471,3.548,3.548,0,0,0-.724,2.1l-.03.039-.646.6-.707-.04q-.044-1.046-.089-2.092l.032-1.349.153.047.518-1.049a.378.378,0,0,1,.1-.425q.352-.721.7-1.443l1.5-4.288a1.667,1.667,0,0,0,.542-1.554l.219-1.288a1.777,1.777,0,0,0,.566-1.548c.525-1.415,1.531-2.652,1.587-4.243a1.892,1.892,0,0,0,.588-1.527,26.349,26.349,0,0,1,3.932-8.313,9.211,9.211,0,0,0,1.908-4.542,4.568,4.568,0,0,1,.835-2.317,3.922,3.922,0,0,0,.417-3.4,1.892,1.892,0,0,0-.5-1.613l-.089.047q.016-1.454.032-2.908l.693-.764,2.245-.026-.007.05a3.33,3.33,0,0,0,.524,2.287c.056,1.03.12,2.06.165,3.09a2.358,2.358,0,0,0,.713,1.858c1.325,1.08,2.855.669,4.338.6l.349.06.352-.045,3.534-.017a3.121,3.121,0,0,0,2.3-.466,3.2,3.2,0,0,0,2.177-1.516c1.038-.995.713-2.025.079-3.062a7.6,7.6,0,0,0-1-3.291,2.75,2.75,0,0,0-2.232-.86c-1.175-.016-2.352.051-3.527.083l-4.174-.266a3.265,3.265,0,0,0-3.654.016,6.019,6.019,0,0,1-.638.186,2.372,2.372,0,0,0-2.331.5q-.3.079-.593.163l-5.116.026a3.5,3.5,0,0,1-1.483-1.469l0-2.921a5.259,5.259,0,0,1,2.157-1.568" transform="translate(-4.778 -21.238)" fill="#413f3f"/>
          <path id="パス_5827" data-name="パス 5827" d="M62.367,119.487c.764.313,1.52.651,2.3.935a3.034,3.034,0,0,1,2.132,3.283c-.047,1.288-.253,2.6.524,3.772a4.763,4.763,0,0,1-.473,2.5,8.67,8.67,0,0,0,1.1.842c.734.4,1.6.719,1.467,1.747a2.374,2.374,0,0,1-2.038,2.143,6.032,6.032,0,0,1-1.4-.067,2.414,2.414,0,0,0-2.241-.583l-1.322-.179a2.55,2.55,0,0,0-2.269-.524l-.31-.023-.3.08a.866.866,0,0,0-.858.479c-.839.166-1.44-.354-2.089-.73a5.876,5.876,0,0,0-3.7-.59,2.9,2.9,0,0,1-.606-.156,2.728,2.728,0,0,1-.042-2.813l-.026-.038,1.555-.054q.3.1.606.185c.63.485,1.313.693,1.858-.032a.994.994,0,0,0-.309-1.524l-.017-.071c-.627-.61-1.45-.506-2.216-.606-.35-1.847.98-2.687,2.168-3.611.7-.45.689-.975.165-1.555l-.877-1.338c-1.3-1.059-2.828-.657-4.291-.67-1.257,2.372-.928,4.77-.122,7.176a5.033,5.033,0,0,1,.211.594,10.1,10.1,0,0,1-.919,4.224l-.27.106-.28-.077c-.213-1.871.1-3.813-.748-5.6-.03-1.08-.076-2.16-.086-3.24a6.148,6.148,0,0,0-.86-3.793,2.321,2.321,0,0,1-.118-2.387c.48-1.251,1.133-1.468,2.1-.6.446.4.824.872,1.233,1.312,1.361,1.067,2.736,1.491,4.148.086a5.853,5.853,0,0,0-.343-1.721c-.761-1.4-.269-2.548.539-3.66.826-1.136,1.443-1.186,3.394-.381.136,2.171-.342,4.412.73,6.479l.05-.051c.754,1.013,1.826.788,2.854.729m-.071,3.292a1.523,1.523,0,0,0-.9-1.427c-.571-.352-1.174-.4-1.559.2a1.141,1.141,0,0,0,.33,1.575c.7.588,1.557.735,1.9.3a2.221,2.221,0,0,0,.231-.646m-.141,6.369c-.016-.576-.458-.745-.906-.843-.486-.105-1,.374-.871.757.171.523.6.611,1.066.639a.634.634,0,0,0,.711-.554" transform="translate(-11.785 -27.8)" fill="#413f3f"/>
          <path id="パス_5828" data-name="パス 5828" d="M42.312,110.7l11.576-.019a3.051,3.051,0,0,1-.961.455c-3.554.267-7.114.6-10.615-.437" transform="translate(-10.523 -27.525)" fill="#413f3f"/>
          <path id="パス_5829" data-name="パス 5829" d="M50.893,137.676a10.083,10.083,0,0,0,.918-4.224l1.3,1.542a2.73,2.73,0,0,0,.041,2.814l-2.255-.132" transform="translate(-12.657 -33.188)" fill="#413f3f"/>
          <path id="パス_5830" data-name="パス 5830" d="M63.217,118.99c-1.072-2.067-.594-4.307-.73-6.479,1.213,2.05.633,4.3.73,6.479" transform="translate(-15.54 -27.981)" fill="#413f3f"/>
          <path id="パス_5831" data-name="パス 5831" d="M49.153,131.662c.851,1.786.535,3.727.748,5.6a2.31,2.31,0,0,1-.777-1.835c-.027-1.254.015-2.509.029-3.763" transform="translate(-12.215 -32.743)" fill="#413f3f"/>
          <path id="パス_5832" data-name="パス 5832" d="M28.839,93.359l5.116-.025a4.465,4.465,0,0,1-5.116.025" transform="translate(-7.172 -23.211)" fill="#413f3f"/>
          <path id="パス_5833" data-name="パス 5833" d="M56.335,120.153c-1.412,1.4-2.787.981-4.148-.086l4.148.086" transform="translate(-12.979 -29.86)" fill="#413f3f"/>
          <path id="パス_5834" data-name="パス 5834" d="M36.436,92.922a2.372,2.372,0,0,1,2.331-.5l.7,1.3-2.244.026-.79-.817" transform="translate(-9.061 -22.962)" fill="#413f3f"/>
          <path id="パス_5835" data-name="パス 5835" d="M54.7,139.439a5.876,5.876,0,0,1,3.7.59c-1.276.067-2.588.367-3.7-.59" transform="translate(-13.604 -34.665)" fill="#413f3f"/>
          <path id="パス_5836" data-name="パス 5836" d="M73.723,131.423c-.777-1.174-.57-2.484-.524-3.772.965,1.148.5,2.494.524,3.772" transform="translate(-18.189 -31.746)" fill="#413f3f"/>
          <path id="パス_5837" data-name="パス 5837" d="M66.38,121.8c-1.029.059-2.1.283-2.854-.729a4.159,4.159,0,0,1,2.854.729" transform="translate(-15.798 -30.109)" fill="#413f3f"/>
          <path id="パス_5838" data-name="パス 5838" d="M36.361,95.222q-.016,1.454-.032,2.908a2.074,2.074,0,0,1,.032-2.908" transform="translate(-8.89 -23.681)" fill="#413f3f"/>
          <path id="パス_5839" data-name="パス 5839" d="M26.69,87.524l0,2.921a2.24,2.24,0,0,1,0-2.921" transform="translate(-6.502 -21.767)" fill="#413f3f"/>
          <path id="パス_5840" data-name="パス 5840" d="M19.013,150.738l.088,2.092c-.843-.417-.718-1.164-.643-1.893q.279-.095.555-.2" transform="translate(-4.577 -37.487)" fill="#413f3f"/>
          <path id="パス_5841" data-name="パス 5841" d="M21.174,152.029a3.545,3.545,0,0,1,.724-2.1,2.028,2.028,0,0,1-.724,2.1" transform="translate(-5.266 -37.287)" fill="#413f3f"/>
          <path id="パス_5842" data-name="パス 5842" d="M69.141,141.414a2.416,2.416,0,0,1,2.241.583,3.35,3.35,0,0,1-2.241-.583" transform="translate(-17.195 -35.152)" fill="#413f3f"/>
          <path id="パス_5843" data-name="パス 5843" d="M64.362,140.478a2.55,2.55,0,0,1,2.269.524,3.063,3.063,0,0,1-2.269-.524" transform="translate(-16.006 -34.918)" fill="#413f3f"/>
          <path id="パス_5844" data-name="パス 5844" d="M23.752,137.347a1.667,1.667,0,0,1-.542,1.554,1.974,1.974,0,0,1,.542-1.554" transform="translate(-5.771 -34.157)" fill="#413f3f"/>
          <path id="パス_5845" data-name="パス 5845" d="M27.128,137.073a1.946,1.946,0,0,1,.571-1.56,1.84,1.84,0,0,1-.571,1.56" transform="translate(-6.744 -33.701)" fill="#413f3f"/>
          <path id="パス_5846" data-name="パス 5846" d="M24.787,133.573a1.777,1.777,0,0,1-.566,1.548,1.94,1.94,0,0,1,.566-1.548" transform="translate(-6.021 -33.219)" fill="#413f3f"/>
          <path id="パス_5847" data-name="パス 5847" d="M28.117,134.186a1.83,1.83,0,0,1,.5-1.583,1.848,1.848,0,0,1-.5,1.583" transform="translate(-6.986 -32.977)" fill="#413f3f"/>
          <path id="パス_5848" data-name="パス 5848" d="M27.672,125.892a1.893,1.893,0,0,1-.588,1.527,1.822,1.822,0,0,1,.588-1.527" transform="translate(-6.732 -31.308)" fill="#413f3f"/>
          <path id="パス_5849" data-name="パス 5849" d="M58.556,110.235a1.77,1.77,0,0,1,1.627-.4,1.677,1.677,0,0,1-1.627.4" transform="translate(-14.562 -27.305)" fill="#413f3f"/>
          <path id="パス_5850" data-name="パス 5850" d="M65.5,105.343a1.89,1.89,0,0,1,.524-1.561,1.873,1.873,0,0,1-.524,1.561" transform="translate(-16.287 -25.81)" fill="#413f3f"/>
          <path id="パス_5851" data-name="パス 5851" d="M36.637,99.03a1.894,1.894,0,0,1,.5,1.613,2.018,2.018,0,0,1-.5-1.613" transform="translate(-9.109 -24.628)" fill="#413f3f"/>
          <path id="パス_5852" data-name="パス 5852" d="M20.983,145.121l-.7,1.443a1.648,1.648,0,0,1,.7-1.443" transform="translate(-5.043 -36.09)" fill="#413f3f"/>
          <path id="パス_5853" data-name="パス 5853" d="M19.027,150.292q-.276.1-.555.2a1.838,1.838,0,0,1,.586-1.548q-.016.674-.031,1.349" transform="translate(-4.591 -37.041)" fill="#413f3f"/>
          <path id="パス_5854" data-name="パス 5854" d="M22.285,148.975l.564-1-.564,1" transform="translate(-5.542 -36.801)" fill="#413f3f"/>
          <path id="パス_5855" data-name="パス 5855" d="M19.977,147.609q-.26.524-.518,1.049.259-.524.518-1.049" transform="translate(-4.839 -36.709)" fill="#413f3f"/>
          <path id="パス_5856" data-name="パス 5856" d="M20.274,153.375l.645-.6a.633.633,0,0,1-.645.6" transform="translate(-5.042 -37.994)" fill="#413f3f"/>
          <path id="パス_5857" data-name="パス 5857" d="M40.4,111.336a.676.676,0,0,1,.774-.573l-.774.573" transform="translate(-10.047 -27.545)" fill="#413f3f"/>
          <path id="パス_5858" data-name="パス 5858" d="M62.408,141.053a.867.867,0,0,1,.858-.479l-.858.479" transform="translate(-15.52 -34.959)" fill="#413f3f"/>
          <path id="パス_5859" data-name="パス 5859" d="M28.754,174.14a1.134,1.134,0,0,0-.019-.625c.088-1.295.514-2.629-.456-3.8a1.278,1.278,0,0,0-.263-.516,1.912,1.912,0,0,0-1.82-.784c-1.276-.018-2.552.016-3.829.029a2.86,2.86,0,0,1-.678-2.9,2.116,2.116,0,0,0,.672-1.471c.986-1.216,2.258-.67,3.459-.56,2.938,1.1,3.4.83,3.877-2.25l1.341-.769c1.174-.018,2.009.352,2.222,1.675.065.406.47.757.719,1.132a3.139,3.139,0,0,0,2.57-.876,2.13,2.13,0,0,1,2.285-.4l.313,2.134c-.7,1.672-2.3,2.162-3.751,2.849a1.935,1.935,0,0,0-1.494.663l.065.095a1.542,1.542,0,0,0-.737,1.468c-.02.926,0,1.854.005,2.782l-.074,2.152a4.4,4.4,0,0,0-.621,2.975q-.116.649-.233,1.3A1.8,1.8,0,0,0,31.8,180q-.044.314-.117.624a1.832,1.832,0,0,0-.608,1.519,36.455,36.455,0,0,1-3.306,5.959,25.285,25.285,0,0,1-9.638,8.936c-2.46,1.228-4.576,3.092-7.261,3.9l-2.256.028a.839.839,0,0,1,.006-1,10.355,10.355,0,0,1,5.022-4.4c3.35-1.106,5.406-3.824,8.021-5.829a15.8,15.8,0,0,0,3.385-3.643A19.735,19.735,0,0,0,28.2,178.58a.555.555,0,0,0,.081-.939,1.307,1.307,0,0,0,.02-.422,3.766,3.766,0,0,0,.455-3.078" transform="translate(-2.102 -39.915)" fill="#413f3f"/>
          <path id="パス_5860" data-name="パス 5860" d="M26.972,171.067c1.276-.012,2.553-.046,3.828-.028a1.912,1.912,0,0,1,1.82.783c-1.134-.033-2.268-.074-3.4-.1a3.73,3.73,0,0,1-2.246-.658" transform="translate(-6.708 -42.535)" fill="#413f3f"/>
          <path id="パス_5861" data-name="パス 5861" d="M35.446,161.525c-.476,3.08-.938,3.349-3.877,2.251,1.858.225,2.868-1.013,3.877-2.251" transform="translate(-7.851 -40.17)" fill="#413f3f"/>
          <path id="パス_5862" data-name="パス 5862" d="M41.454,163.11c-.249-.376-.654-.727-.72-1.132-.213-1.324-1.047-1.693-2.222-1.675,1.865-.954,2.388-.823,2.732.763a17.4,17.4,0,0,1,.21,2.044" transform="translate(-9.578 -39.716)" fill="#413f3f"/>
          <path id="パス_5863" data-name="パス 5863" d="M41.434,174.436c0-.927-.026-1.855-.006-2.782a1.543,1.543,0,0,1,.737-1.467c-.083,1.444.092,2.932-.731,4.249" transform="translate(-10.301 -42.324)" fill="#413f3f"/>
          <path id="パス_5864" data-name="パス 5864" d="M40.5,181.683a4.4,4.4,0,0,1,.621-2.975,3.686,3.686,0,0,1-.621,2.975" transform="translate(-10.064 -44.443)" fill="#413f3f"/>
          <path id="パス_5865" data-name="パス 5865" d="M49.2,164.679q-.157-1.067-.313-2.134c.812.608,1.033,1.3.313,2.134" transform="translate(-12.159 -40.424)" fill="#413f3f"/>
          <path id="パス_5866" data-name="パス 5866" d="M8.67,214.346l2.256-.028c-.745.6-1.494.837-2.256.028" transform="translate(-2.156 -53.299)" fill="#413f3f"/>
          <path id="パス_5867" data-name="パス 5867" d="M38.564,188.8a1.831,1.831,0,0,1,.608-1.519,1.97,1.97,0,0,1-.608,1.519" transform="translate(-9.589 -46.576)" fill="#413f3f"/>
          <path id="パス_5868" data-name="パス 5868" d="M26.74,165.266a2.119,2.119,0,0,1-.672,1.471,1.6,1.6,0,0,1,.672-1.471" transform="translate(-6.481 -41.1)" fill="#413f3f"/>
          <path id="パス_5869" data-name="パス 5869" d="M42.326,169.841a1.931,1.931,0,0,1,1.494-.662,1.758,1.758,0,0,1-1.494.662" transform="translate(-10.526 -42.074)" fill="#413f3f"/>
          <path id="パス_5870" data-name="パス 5870" d="M39.525,185.943a1.8,1.8,0,0,1,.5-1.546,1.889,1.889,0,0,1-.5,1.546" transform="translate(-9.825 -45.858)" fill="#413f3f"/>
          <path id="パス_5871" data-name="パス 5871" d="M34.813,183.314a.554.554,0,0,1-.081.938l.081-.938" transform="translate(-8.638 -45.589)" fill="#413f3f"/>
          <path id="パス_5872" data-name="パス 5872" d="M49.112,29.983l5.779-.115.628.159a2.179,2.179,0,0,0,1.515.6c1.133.845,2.317,1.631,3.383,2.554.9.779.84,1.569.02,2.447-.861.923-1.5,1-2.4.205a16.167,16.167,0,0,0-3.9-3.025,2.129,2.129,0,0,0-2.213-.6c-.222-.071-.445-.131-.671-.183-.76-.6-1.976-.716-2.108-1.983l-.039-.056" transform="translate(-12.214 -7.428)" fill="#413f3f"/>
          <path id="パス_5873" data-name="パス 5873" d="M49.033,30.1c.133,1.267,1.349,1.382,2.108,1.983a7.136,7.136,0,0,1-1.33.05c-1.312-.191-1.454-.6-.778-2.033" transform="translate(-12.095 -7.484)" fill="#413f3f"/>
          <path id="パス_5874" data-name="パス 5874" d="M36.654,35.343c-1.029.107-2.1.4-2.861-.656a5.215,5.215,0,0,1,2.861.656" transform="translate(-8.404 -8.626)" fill="#413f3f"/>
          <path id="パス_5875" data-name="パス 5875" d="M47.336,9.621a3.308,3.308,0,0,1-2.162-.693,2.187,2.187,0,0,1,2.162.693" transform="translate(-11.234 -2.209)" fill="#413f3f"/>
          <path id="パス_5876" data-name="パス 5876" d="M32.387,28.3a2.8,2.8,0,0,1-.478-2.31,2.987,2.987,0,0,1,.478,2.31" transform="translate(-7.918 -6.464)" fill="#413f3f"/>
          <path id="パス_5877" data-name="パス 5877" d="M52.863,32.957a2.128,2.128,0,0,1,2.213.6,3.5,3.5,0,0,1-2.213-.6" transform="translate(-13.147 -8.18)" fill="#413f3f"/>
          <path id="パス_5878" data-name="パス 5878" d="M49.693,12.252q-.319-.737-.636-1.474a1.355,1.355,0,0,1,.636,1.474" transform="translate(-12.2 -2.68)" fill="#413f3f"/>
          <path id="パス_5879" data-name="パス 5879" d="M38.34,20.018a1.678,1.678,0,0,1,1.609-.453,2.018,2.018,0,0,1-1.609.453" transform="translate(-9.535 -4.854)" fill="#413f3f"/>
          <path id="パス_5880" data-name="パス 5880" d="M59.156,30.676a2.175,2.175,0,0,1-1.515-.6,1.69,1.69,0,0,1,1.515.6" transform="translate(-14.335 -7.477)" fill="#413f3f"/>
          <path id="パス_5881" data-name="パス 5881" d="M4.758,160.044q-.009-1.151-.019-2.3l1.59-2.065,2.219-.117,1.53,2.2c-.068,1.793-.154,3.586-.2,5.379-.031,1.187-.175,2.406.6,3.456l.228,1.231a2.325,2.325,0,0,0,.541,1.558,1.312,1.312,0,0,1-.041.654,1.958,1.958,0,0,0-.576,1.481l-.68.753-2.317.059a3.065,3.065,0,0,1-1.463-2.055,5.788,5.788,0,0,0-.483-3.816l.023-.712a1.682,1.682,0,0,0-.083-2.169l-.872-3.535" transform="translate(-1.179 -38.687)" fill="#413f3f"/>
          <path id="パス_5882" data-name="パス 5882" d="M12.173,167.323c-.778-1.051-.633-2.27-.6-3.456.045-1.794.131-3.587.2-5.379a3.805,3.805,0,0,1,.575,2.739c-.045,2.033-.113,4.065-.171,6.1" transform="translate(-2.87 -39.415)" fill="#413f3f"/>
          <path id="パス_5883" data-name="パス 5883" d="M5.968,170.068a5.788,5.788,0,0,1,.483,3.816c-.883-1.181-.53-2.518-.483-3.816" transform="translate(-1.457 -42.295)" fill="#413f3f"/>
          <path id="パス_5884" data-name="パス 5884" d="M9.074,155.364l-2.219.117c1.08-.925,1.087-.925,2.219-.117" transform="translate(-1.705 -38.491)" fill="#413f3f"/>
          <path id="パス_5885" data-name="パス 5885" d="M5.925,166.233a1.682,1.682,0,0,1,.083,2.169q-.042-1.084-.083-2.169" transform="translate(-1.474 -41.341)" fill="#413f3f"/>
          <path id="パス_5886" data-name="パス 5886" d="M8.6,177.862l2.317-.059c-1.123.888-1.13.888-2.317.059" transform="translate(-2.138 -44.218)" fill="#413f3f"/>
          <path id="パス_5887" data-name="パス 5887" d="M13.224,173.444a2.321,2.321,0,0,1-.54-1.559,1.6,1.6,0,0,1,.54,1.559" transform="translate(-3.152 -42.746)" fill="#413f3f"/>
          <path id="パス_5888" data-name="パス 5888" d="M12.583,176.31a1.962,1.962,0,0,1,.576-1.481,1.521,1.521,0,0,1-.576,1.481" transform="translate(-3.129 -43.479)" fill="#413f3f"/>
          <path id="パス_5889" data-name="パス 5889" d="M59.4,86.319a5.721,5.721,0,0,1-3.643-.663,5.081,5.081,0,0,1,3.643.663" transform="translate(-13.867 -21.289)" fill="#413f3f"/>
          <path id="パス_5890" data-name="パス 5890" d="M50.845,85.221l-3.878.019a3.38,3.38,0,0,1,3.878-.019" transform="translate(-11.681 -21.044)" fill="#413f3f"/>
          <path id="パス_5891" data-name="パス 5891" d="M66.03,94.287a5.616,5.616,0,0,1-.651-2.9,3.043,3.043,0,0,1,.651,2.9" transform="translate(-16.259 -22.726)" fill="#413f3f"/>
          <path id="パス_5892" data-name="パス 5892" d="M41.46,86.794a2.226,2.226,0,0,1-3.074-.029l3.074.029" transform="translate(-9.546 -21.578)" fill="#413f3f"/>
          <path id="パス_5893" data-name="パス 5893" d="M56.567,93.28c-1.152-.072-2.3-.159-3.455-.212a3.682,3.682,0,0,1-2.305-.566c1.176-.032,2.352-.1,3.527-.083a2.752,2.752,0,0,1,2.233.86" transform="translate(-12.635 -22.984)" fill="#413f3f"/>
          <path id="パス_5894" data-name="パス 5894" d="M42.332,103.857a8.225,8.225,0,0,1,4.339.6c-1.484.07-3.014.482-4.339-.6" transform="translate(-10.528 -25.822)" fill="#413f3f"/>
          <path id="パス_5895" data-name="パス 5895" d="M44.042,91.994l-3.654.016a3.263,3.263,0,0,1,3.654-.016" transform="translate(-10.044 -22.741)" fill="#413f3f"/>
          <path id="パス_5896" data-name="パス 5896" d="M49.04,104.488a6.337,6.337,0,0,1,3.689-.544q-.079.263-.155.527l-3.534.017" transform="translate(-12.196 -25.838)" fill="#413f3f"/>
          <path id="パス_5897" data-name="パス 5897" d="M59.7,101.009l.079-3.062c.635,1.038.959,2.068-.079,3.062" transform="translate(-14.846 -24.359)" fill="#413f3f"/>
          <path id="パス_5898" data-name="パス 5898" d="M40.464,94.235a2.372,2.372,0,0,1,.524,2.287,3.328,3.328,0,0,1-.524-2.287" transform="translate(-10.062 -23.436)" fill="#413f3f"/>
          <path id="パス_5899" data-name="パス 5899" d="M53.744,104.487q.076-.264.155-.526l2.14.06a3.121,3.121,0,0,1-2.3.466" transform="translate(-13.366 -25.854)" fill="#413f3f"/>
          <path id="パス_5900" data-name="パス 5900" d="M51.712,123.828q-.057,3.229-.114,6.457c-.805-2.406-1.134-4.8.122-7.176a2.99,2.99,0,0,0-.008.719" transform="translate(-12.654 -30.616)" fill="#413f3f"/>
          <path id="パス_5901" data-name="パス 5901" d="M51.98,123.807a2.99,2.99,0,0,1,.008-.719c1.464.014,2.992-.389,4.292.67l-4.3.049" transform="translate(-12.923 -30.595)" fill="#413f3f"/>
          <path id="パス_5902" data-name="パス 5902" d="M56.681,135.115c.851-.184,1.486-.585,1.548-1.556a.993.993,0,0,1,.308,1.523c-.545.726-1.227.517-1.856.033" transform="translate(-14.096 -33.215)" fill="#413f3f"/>
          <path id="パス_5903" data-name="パス 5903" d="M57.987,133.264c-.794,0-1.684.35-2.217-.606.767.1,1.59,0,2.217.606" transform="translate(-13.87 -32.991)" fill="#413f3f"/>
          <path id="パス_5904" data-name="パス 5904" d="M53.8,135.3c.5-.685,1.018-.582,1.555-.054L53.8,135.3" transform="translate(-13.381 -33.527)" fill="#413f3f"/>
          <path id="パス_5905" data-name="パス 5905" d="M58.657,127.337q.082-.778.165-1.555c.523.58.536,1.105-.165,1.555" transform="translate(-14.588 -31.281)" fill="#413f3f"/>
        </g>
      </g>
      <g id="グループ_156" data-name="グループ 156" transform="translate(1656.092 9568.666) rotate(180)">
        <g id="グループ_35" data-name="グループ 35" transform="translate(886.464 4585.545)">
          <g id="グループ_157" data-name="グループ 157" transform="translate(0 0)">
            <path id="パス_1310" data-name="パス 1310" d="M121.411,31.729a17.661,17.661,0,0,1-6.022.079,42.512,42.512,0,0,0-8.316.391c-4.427.474-8.869.879-13.357.924-4.589.046-9.157.325-13.821-.641-1.714-.354-3.428-.661-5.143-.989l-.02-.619c1.641.013,3.284.036,4.924.038,3.622,0,7.231-.167,10.868.04,2.69.152,5.33-.116,8.014.02,1.817.091,3.543-.479,5.374-.439,3.142.068,6.237-.363,9.376-.341,2.824.018,5.678.356,8.521.575a2.81,2.81,0,0,1,.757.315c-.05,1.133-.667.712-1.156.648" transform="translate(-48.32 -22.987)" fill="#d39c38"/>
            <path id="パス_1311" data-name="パス 1311" d="M111.169,36.471a6.611,6.611,0,0,1-3.612-.018,15.378,15.378,0,0,0-4.939.252,49.013,49.013,0,0,1-7.877.687c-2.756-.026-5.456.172-8.438-.838-1.1-.373-2.185-.7-3.276-1.042-.041-.2-.083-.4-.123-.6.99.038,1.982.086,2.971.113,2.181.06,4.324-.048,6.552.209,1.648.19,3.188-.028,4.83.146,1.111.118,2.049-.409,3.158-.341,1.9.114,3.69-.255,5.585-.185a49.136,49.136,0,0,1,5.235.692c.152.022.341.207.513.316.174,1.1-.275.681-.58.611" transform="translate(-42.958 -19.935)" fill="#364350"/>
            <path id="パス_1313" data-name="パス 1313" d="M99.592,28.025q-14.1.368-28.205.739a.965.965,0,0,1-.114-1.33A220.348,220.348,0,0,1,110.6,26.24c.119.649.132,1.156-.553.747-2.814,1.183-5.861-.051-8.7.881q-.877.077-1.754.157" transform="translate(-50.73 -25.841)" fill="#364350"/>
            <path id="パス_1314" data-name="パス 1314" d="M68.866,28.585c-3.372-.328-6.68,1.148-10.081-.08a1.41,1.41,0,0,0,.046-.641C65.6,26.609,72.5,27.2,79.327,26.8q.057.666.114,1.328c-2.315.923-4.747-.611-7.072.089q-1.751.184-3.5.364" transform="translate(-58.785 -25.211)" fill="#364350"/>
            <path id="パス_1315" data-name="パス 1315" d="M94.6,26.869l.553-.747a160.887,160.887,0,0,1,35.385,2.559l-.015,1.335c-4.361-.535-8.72-1.226-13.083-1.56-4.261-.328-8.511-1.279-12.793-.992A29.435,29.435,0,0,1,94.6,26.869" transform="translate(-35.283 -25.725)" fill="#364350"/>
          </g>
        </g>
      </g>
    </g>
  </g>
</svg>
