<svg xmlns="http://www.w3.org/2000/svg" xmlns:xlink="http://www.w3.org/1999/xlink" width="214.813" height="157.761" viewBox="0 0 214.813 157.761">
  <defs>
    <clipPath id="clip-path">
      <rect id="長方形_273" data-name="長方形 273" width="177.798" height="157.761" fill="#f8f0e1"/>
    </clipPath>
    <clipPath id="clip-path-2">
      <rect id="長方形_191" data-name="長方形 191" width="76.419" height="49.912" fill="none"/>
    </clipPath>
  </defs>
  <g id="グループ_303" data-name="グループ 303" transform="translate(-164.187 -712.684)">
    <g id="グループ_128" data-name="グループ 128" transform="translate(201.202 712.684)">
      <g id="グループ_72" data-name="グループ 72" clip-path="url(#clip-path)">
        <path id="パス_2655" data-name="パス 2655" d="M107.995,156.875c-35.7,2.725-85.275.872-101.4-30.626C-10.273,93.284,7.95,60.72,30.42,45.08,43.513,35.967,59.434,21.424,85.577,7.724c19.61-10.277,44.043-11.8,66.356,4.733,28.85,21.379,28.992,71.765,22.159,97.915-6.718,25.713-40.225,44.528-66.1,46.5" transform="translate(0 0)" fill="#f8f0e1"/>
      </g>
    </g>
    <g id="グループ_235" data-name="グループ 235" transform="matrix(-0.927, -0.375, 0.375, -0.927, 235.042, 823.741)">
      <g id="グループ_29" data-name="グループ 29" transform="translate(0 0)" clip-path="url(#clip-path-2)">
        <path id="パス_1294" data-name="パス 1294" d="M59.72,2.857c-.056.869.87,1.54.309,2.511-.34,1.679-2.477,2.937-5.421,3.183-1.773.148-3.1-.287-3.769-1.544a3.769,3.769,0,0,1-1.067-3.526C49.544,1.455,51.733,1,53.347.462c1.459-.486,3.269-.935,4.085.565l.58.456c.931.172,2.088.166,1.709,1.373" transform="translate(-8.131 0)" fill="#364350"/>
        <path id="パス_1295" data-name="パス 1295" d="M60.621,33.115a1.879,1.879,0,0,0,1.325.207c1.333-.406,2.053.468,2.569,1.605a3.6,3.6,0,0,1-.243,3.842,6.908,6.908,0,0,1-.989.9c-.806,1.455-3.193,2.183-5.064,1.544-1.92-.343-2.77-1.78-2.228-3.765.664-2.433,2.821-4.453,4.63-4.338" transform="translate(-9.134 -5.417)" fill="#364350"/>
        <path id="パス_1296" data-name="パス 1296" d="M41.495,30.149a1.691,1.691,0,0,0,1.258.168c1.239-.444,1.954.409,2.489,1.532a3.788,3.788,0,0,1-.064,3.852,6.462,6.462,0,0,1-.892.934,4.033,4.033,0,0,1-4.708,1.692c-1.824-.287-2.687-1.7-2.262-3.7.522-2.453,2.468-4.538,4.179-4.475" transform="translate(-6.087 -4.932)" fill="#364350"/>
        <path id="パス_1297" data-name="パス 1297" d="M49.048,55.938a6.449,6.449,0,0,1-5.238-1.756c-.994-.36-1.114-1.27-.9-2.168.269-1.152.729-2.279,2.138-2.335.749-.161,1.508-.275,2.247-.49,2.233-.648,2.742-.475,4.081,1.51,1.167,1.049,1.18,2.355.544,3.806-.6,1.368-1.724,1.428-2.867,1.434" transform="translate(-7.005 -7.992)" fill="#364350"/>
        <path id="パス_1298" data-name="パス 1298" d="M24.181,12.21A8.675,8.675,0,0,1,17.5,13.858a1.971,1.971,0,0,1-2.379-1.5c-.473-1.274-.729-2.643.723-3.592.687-.63,1.412-1.222,2.051-1.9,1.932-2.039,2.583-2.2,5.3-1.148,1.92.262,2.794,1.5,3.075,3.3.265,1.69-.882,2.461-2.085,3.193" transform="translate(-2.413 -0.832)" fill="#364350"/>
        <path id="パス_1299" data-name="パス 1299" d="M70.381,4.511l2.337.26c1.657.429,2.257,1.328,2.248,3.371a3.042,3.042,0,0,1-2.558,3.06l-2.353,1.032q-3.489-.187-3.907-3.3a4.478,4.478,0,0,1,2.768-4.581,1.672,1.672,0,0,1,1.464.162" transform="translate(-10.817 -0.695)" fill="#364350"/>
        <path id="パス_1300" data-name="パス 1300" d="M81.465,47.148c-1.035,1.538-2.584,1.567-4.049,1.467-1.695-.115-2.148-1.777-2.611-3.3-.412-1.9,1.013-2.391,1.92-3.281,1.445-1.149,2.91-2.162,4.711-.739,1.419-.149,1.784.986,1.98,2.2.2,1.258.232,2.523-1,3.2-.307.168-.653.25-.951.452" transform="translate(-12.226 -6.642)" fill="#364350"/>
        <path id="パス_1301" data-name="パス 1301" d="M77.026,30.378a5.538,5.538,0,0,1-3.847,1.151c-3-.062-4.749-3.235-3.35-6.092.368-.753.838-1.314,1.7-1.156a5.185,5.185,0,0,1,3.177-1.271c1.828-.353,2.993.294,3.475,1.934.792,2.694.378,4.644-1.154,5.435" transform="translate(-11.344 -3.749)" fill="#364350"/>
        <path id="パス_1302" data-name="パス 1302" d="M89.45,10.971a5.788,5.788,0,0,1,.124,3.673c.318,1.749-.8,2.6-2.339,2.99-2.258.577-3.4.035-4.418-1.874-1.049-1.179-.826-2.6-.846-3.972.8-1.879,2.017-3.193,4.431-3.106,2.528.089,2.536.047,3.048,2.289" transform="translate(-13.409 -1.42)" fill="#364350"/>
        <path id="パス_1303" data-name="パス 1303" d="M22.81,42.4a6.83,6.83,0,0,1,3.954-1.019c1.825-.749,3,.181,3.772,1.654,1.138,2.16.809,3.448-1.029,4.954-1.041,1.354-2.63,1.473-4.114,1.827-2.221-.362-3.919-1.277-4.374-3.756-.477-2.595-.524-2.594,1.791-3.659" transform="translate(-3.396 -6.727)" fill="#364350"/>
        <path id="パス_1304" data-name="パス 1304" d="M59.4,24.269l-2.5.811a3.4,3.4,0,0,1-4.412-1.632c-1.107-2.27-.642-3.832,1.513-5.081a4.787,4.787,0,0,1,5.881-.391c2.025-.027,2.018,1.518,2.088,2.855.112,2.133-.6,2.992-2.573,3.438" transform="translate(-8.493 -2.806)" fill="#364350"/>
        <path id="パス_1305" data-name="パス 1305" d="M6.265,50.9l2.611-.01a3.5,3.5,0,0,1,3.781,2.745c.446,2.366-.422,3.64-2.823,4.144A5.019,5.019,0,0,1,4.1,56.437c-1.946-.56-1.521-1.952-1.227-3.178C3.341,51.3,4.251,50.734,6.265,50.9" transform="translate(-0.428 -8.323)" fill="#364350"/>
        <path id="パス_1306" data-name="パス 1306" d="M64.009,53.138c1.021-.935,2.405-.466,3.551-.921,1.33-.324,2.333.088,2.672,1.453.311,1.246.544,2.579-1.081,3.225-1.123.912-2.281,1.736-3.85,1.5-1.62,0-3.1-1.04-3.242-2.378-.151-1.46.219-2.656,1.95-2.881" transform="translate(-10.148 -8.526)" fill="#364350"/>
        <path id="パス_1307" data-name="パス 1307" d="M42.274,18.462c-.611,1.09-2.032.914-2.9,1.6-2.513,1.524-3.443-.2-4.71-1.362-1.332-1.225-.7-2.307.511-3.416l.36-.514c.579-2.317,2.9-2.318,4.542-2.364,1.843-.052,3.785.6,4.226,2.537.344,1.5-.342,2.724-2.029,3.517" transform="translate(-5.549 -2.029)" fill="#d39c38"/>
        <path id="パス_1308" data-name="パス 1308" d="M17.83,26.132c.357-.993,1.568-1.054,2.2-1.751,1.883-1.629,2.9-.338,4.12.443,1.282.822.9,1.811.051,2.906l-.229.479c-.158,2-2.1,2.344-3.459,2.621-1.53.311-3.242.052-3.881-1.488-.5-1.2-.1-2.309,1.2-3.212" transform="translate(-2.687 -3.86)" fill="#d39c38"/>
        <path id="パス_1309" data-name="パス 1309" d="M2.374,37.332c.719-.826,1.857-.35,2.71-.762,2.375-.781,2.8.951,3.612,2.267.855,1.383.115,2.2-1.1,2.9l-.4.374c-.938,1.918-2.856,1.394-4.215,1.066-1.529-.37-3-1.385-2.98-3.2a2.611,2.611,0,0,1,2.375-2.652" transform="translate(0 -5.951)" fill="#364350"/>
      </g>
    </g>
  </g>
</svg>
