<svg xmlns="http://www.w3.org/2000/svg" xmlns:xlink="http://www.w3.org/1999/xlink" width="428.005" height="331.341" viewBox="0 0 428.005 331.341">
  <defs>
    <clipPath id="clip-path">
      <rect id="長方形_271" data-name="長方形 271" width="244.439" height="239.3" fill="#f8f0e1"/>
    </clipPath>
    <clipPath id="clip-path-2">
      <rect id="長方形_193" data-name="長方形 193" width="157.915" height="41.298" fill="none"/>
    </clipPath>
  </defs>
  <g id="グループ_304" data-name="グループ 304" transform="translate(-1048.61 -687.402)">
    <g id="グループ_131" data-name="グループ 131" transform="translate(1354.396 687.402) rotate(60)">
      <g id="グループ_68" data-name="グループ 68" clip-path="url(#clip-path)">
        <path id="パス_2653" data-name="パス 2653" d="M215.918,21.32c47.024,32.94,26.9,90.805,3.56,143.971C202.589,203.755,169,239.3,123.134,239.3c-51.515,0-94.757-49.293-118.608-132.763-14.493-50.721,6.61-91.988,52-100.531C110.586-4.167,181.372-2.879,215.918,21.32" transform="translate(0 0)" fill="#f8f0e1"/>
      </g>
    </g>
    <g id="グループ_234" data-name="グループ 234" transform="translate(1931.524 5419.076) rotate(180)">
      <g id="グループ_35" data-name="グループ 35" transform="translate(725 4514.567)">
        <g id="グループ_34" data-name="グループ 34" transform="translate(0 0)" clip-path="url(#clip-path-2)">
          <path id="パス_1310" data-name="パス 1310" d="M106.724,31.245a12.1,12.1,0,0,1-4.127.054,29.136,29.136,0,0,0-5.7.268c-3.034.325-6.078.6-9.155.633a43.539,43.539,0,0,1-9.472-.439c-1.175-.243-2.35-.453-3.524-.678l-.014-.425c1.125.009,2.251.025,3.375.026,2.482,0,4.956-.115,7.449.027,1.843.1,3.653-.079,5.493.014,1.245.062,2.428-.328,3.683-.3,2.153.047,4.275-.249,6.426-.234,1.935.012,3.891.244,5.84.394a1.926,1.926,0,0,1,.519.216c-.034.776-.457.488-.792.444" transform="translate(10.096 4.079)" fill="#d39c38"/>
          <path id="パス_1311" data-name="パス 1311" d="M102.276,35.959a4.531,4.531,0,0,1-2.476-.012,10.539,10.539,0,0,0-3.385.173,33.59,33.59,0,0,1-5.4.471,17.283,17.283,0,0,1-5.783-.574c-.751-.255-1.5-.477-2.245-.714-.028-.137-.057-.275-.084-.412.679.026,1.359.059,2.036.077,1.495.041,2.964-.033,4.49.143,1.129.131,2.185-.019,3.31.1.762.081,1.4-.28,2.165-.234,1.305.078,2.529-.175,3.828-.127a33.676,33.676,0,0,1,3.588.474c.1.015.234.142.352.217.119.754-.188.467-.4.419" transform="translate(11.2 4.707)" fill="#364350"/>
          <path id="パス_1312" data-name="パス 1312" d="M142.488,9.137a16.842,16.842,0,0,1-4.534-.053,40.966,40.966,0,0,0-6.281.093c-3.361.207-6.728.373-10.107.325a59.761,59.761,0,0,1-10.346-.61c-1.263-.24-2.531-.448-3.8-.672.009-.121.019-.244.028-.367,1.233.035,2.465.076,3.7.1,2.723.061,5.45.022,8.169.2,2.013.135,4.015.02,6.024.145,1.36.084,2.7-.224,4.072-.17,2.356.093,4.715-.11,7.073-.045,2.123.058,4.245.305,6.367.482a2.209,2.209,0,0,1,.547.2c-.116.671-.552.411-.914.364" transform="translate(14.513 1.061)" fill="#d39c38"/>
          <path id="パス_1313" data-name="パス 1313" d="M90.614,27.338l-19.331.506a.661.661,0,0,1-.078-.911,151.016,151.016,0,0,1,26.953-.818c.082.445.091.792-.379.512-1.929.81-4.017-.035-5.963.6l-1.2.108" transform="translate(9.6 3.491)" fill="#364350"/>
          <path id="パス_1314" data-name="パス 1314" d="M65.694,28.024c-2.311-.225-4.578.787-6.909-.054a.967.967,0,0,0,.032-.439c4.64-.86,9.367-.456,14.047-.728l.078.91c-1.587.632-3.253-.419-4.847.061l-2.4.25" transform="translate(7.942 3.621)" fill="#364350"/>
          <path id="パス_1315" data-name="パス 1315" d="M94.6,26.6l.379-.512a110.264,110.264,0,0,1,24.251,1.754l-.01.915c-2.989-.367-5.976-.84-8.966-1.069-2.921-.225-5.833-.876-8.767-.68A20.174,20.174,0,0,1,94.6,26.6" transform="translate(12.78 3.515)" fill="#364350"/>
          <path id="パス_1316" data-name="パス 1316" d="M89.178,19.266c3.906-.84,7.955-.529,11.94-.68,5.769-.219,11.554-.244,17.333-.347,5.077-.091,10.155-.356,15.233-.2,3.05.1,6.064-.545,9.128.056a1.091,1.091,0,0,0,1.434-1.126,30.778,30.778,0,0,0-7.64-.452c-3.881.288-7.8.392-11.714.312-2.238-.045-4.443.633-6.695,0l-.544-.051c-2.524,1.1-5.259-.037-7.913.3-2.553.324-5.336-.519-7.921-.271-3.636.347-7.241-.165-10.846-.23-3.168-.057-6.285.3-9.464.152-4.372-.2-8.757-.057-13.125.084-8.043.26-16.116-.225-24.164.134-4.82.216-9.712-.292-14.572-.448a6.2,6.2,0,0,0-3.043.145c.553.867,1.413.575,2.112.659a124.629,124.629,0,0,1,13.633.943c6.026-.277,12.055.725,18.1.47,4.833-.205,9.722.034,14.581.278,2.316.117,4.551-.311,6.913-.1,1.81.165,3.728.033,5.6.246l1.63.117" transform="translate(3.594 2.212)" fill="#364350"/>
          <path id="パス_1317" data-name="パス 1317" d="M42.1,18.152a47.724,47.724,0,0,0-13.633-.943l13.633.943" transform="translate(3.846 2.31)" fill="#364350"/>
          <path id="パス_1318" data-name="パス 1318" d="M83.37,4.1c5.184-.764,10.581-.372,15.885-.445,7.677-.1,15.381-.015,23.073,0,6.76.01,13.514-.156,20.279.106,4.064.157,8.064-.427,12.156.236,1.083.176,1.823-.18,1.887-1.1a54.515,54.515,0,0,0-10.181-.6c-5.162.212-10.385.237-15.593.081-2.981-.09-5.9.546-8.914-.131l-.724-.061c-3.339,1.051-7-.142-10.53.142-3.393.274-7.115-.625-10.552-.428-4.836.276-9.646-.309-14.446-.445-4.22-.12-8.363.171-12.6-.036-5.825-.285-11.662-.229-17.475-.175C44.928,1.341,34.171.7,23.461.9,17.048,1.016,10.523.411,4.049.158A10.851,10.851,0,0,0,0,.244c.751.879,1.893.6,2.825.7q9.1.238,18.171,1.213c8.019-.158,16.065.966,24.114.829,6.43-.109,12.945.227,19.42.569,3.086.162,6.052-.222,9.2.04,2.413.2,4.964.108,7.462.358l2.174.15" transform="translate(0 0)" fill="#364350"/>
          <path id="パス_1319" data-name="パス 1319" d="M20.66,2.053A84.516,84.516,0,0,0,2.489.839L20.66,2.053" transform="translate(0.336 0.107)" fill="#364350"/>
          <path id="パス_1320" data-name="パス 1320" d="M129.22,21.926a10.407,10.407,0,0,1,7.022,1.025q.083.283.169.565c.208,1.154-.955,1.016-2.073.724a21.62,21.62,0,0,0-6.518-.762,112.476,112.476,0,0,0-11.407-.156c-2.939-.126-5.875.022-8.814-.087a6.006,6.006,0,0,1-3.276-.7l-6.689-.093c-5.263-.3-10.5.116-15.749.045-2.551.31-5.162-.168-7.714.126-2.563-.487-5.106.048-7.676-.019-4.611-.119-9.229.06-13.846.015-2.439-.024-4.88-.255-7.32-.4a1.429,1.429,0,0,1-1.169-.531c8.152.015,16.267.213,24.326-.313l2.867.036c5.019.229,10.025.151,15.033-.017a14.986,14.986,0,0,1,4.048.309c2.87-.308,5.794.171,8.665-.109,4.865-.042,9.73-.1,14.6-.112a9.882,9.882,0,0,1,3.48.262c4.016-.062,8.031-.05,12.043.188" transform="translate(5.966 2.887)" fill="#364350"/>
          <path id="パス_1321" data-name="パス 1321" d="M70.6,22.493c2.541-.421,5.141-.109,7.714-.126-2.538.486-5.14.135-7.714.126" transform="translate(9.538 3.009)" fill="#364350"/>
          <path id="パス_1322" data-name="パス 1322" d="M120.529,21.907l-12.043-.188a62.888,62.888,0,0,1,12.043.188" transform="translate(14.656 2.906)" fill="#364350"/>
          <path id="パス_1323" data-name="パス 1323" d="M93.593,21.58c-2.857.5-5.78.034-8.665.109,2.855-.527,5.777-.073,8.665-.109" transform="translate(11.474 2.895)" fill="#364350"/>
          <path id="パス_1324" data-name="パス 1324" d="M119.679,22.662l-12.031-.185a62.484,62.484,0,0,1,12.031.185" transform="translate(14.543 3.01)" fill="#364350"/>
          <path id="パス_1325" data-name="パス 1325" d="M88.913,10.969c4.391.8,8.938.505,13.415.649,6.48.211,12.981.236,19.473.336,5.7.089,11.409.343,17.113.192,3.427-.09,6.813.52,10.254-.049.91-.151,1.541.2,1.613,1.069a40.685,40.685,0,0,1-8.581.426c-4.361-.275-8.769-.373-13.161-.3-2.513.042-4.991-.6-7.52,0l-.611.049c-2.838-1.045-5.908.033-8.889-.287-2.87-.309-5.993.491-8.9.255-4.086-.333-8.135.153-12.184.213-3.559.054-7.061-.283-10.632-.146-4.91.187-9.838.051-14.745-.085-9.037-.25-18.1.208-27.145-.136-5.416-.205-10.911.275-16.369.421a8.181,8.181,0,0,1-3.419-.14c.617-.823,1.586-.546,2.37-.624q7.677-.1,15.312-.891c6.771.264,13.541-.684,20.335-.439,5.429.2,10.921-.03,16.379-.26,2.6-.11,5.112.3,7.766.094,2.033-.156,4.187-.031,6.292-.232l1.831-.111" transform="translate(2.516 1.482)" fill="#364350"/>
          <path id="パス_1326" data-name="パス 1326" d="M36.027,11.8a63.106,63.106,0,0,1-15.312.89l15.312-.89" transform="translate(2.799 1.595)" fill="#364350"/>
          <path id="パス_1327" data-name="パス 1327" d="M22.981,6.875c6.565.109,13.132.255,19.7.316,5.982.054,11.961.018,17.939.01A2.091,2.091,0,0,0,61.242,7a6.627,6.627,0,0,1,2.625.317c3.368-.456,6.823-.092,10.243-.059,1.15.213,2.989-.32,3.206.9a7.994,7.994,0,0,1-5.881-.23L68.743,7.84c-4.453-.344-8.8.153-13.21.169-4.22.017-8.379.388-12.623.372-5.358-.022-10.733.114-16.061-.32-4.456-.362-9-.381-13.388-1.252,2.561-.474,5.274.058,7.881-.077.572-.067,1.013.46,1.64.143" transform="translate(1.818 0.893)" fill="#364350"/>
          <path id="パス_1328" data-name="パス 1328" d="M59.535,7.013l8.647.377.375.156-.439.069-10.25-.359,1.667-.243" transform="translate(7.818 0.947)" fill="#364350"/>
          <path id="パス_1329" data-name="パス 1329" d="M66.9,7.571q.031-.112.065-.225l8.626.289a15.294,15.294,0,0,1-5.481.3A13.75,13.75,0,0,0,66.9,7.571" transform="translate(9.038 0.992)" fill="#364350"/>
          <path id="パス_1330" data-name="パス 1330" d="M100.57,8.529c-3.859-.251-7.7-.048-11.555-.047A54.464,54.464,0,0,1,77.85,7.774a3.113,3.113,0,0,1-.57-.356c8.46-.358,16.666.156,24.842.015a24.85,24.85,0,0,1,4.4.388l1.7.423c.335.2.178.513.275.768-.237.553-.612.372-1.124.207a10.729,10.729,0,0,0-1.839-.268,30.051,30.051,0,0,0-4.963-.422" transform="translate(10.44 0.984)" fill="#364350"/>
          <path id="パス_1331" data-name="パス 1331" d="M97.8,8.392a12.639,12.639,0,0,1,4.963.422L97.8,8.392" transform="translate(13.212 1.121)" fill="#364350"/>
          <path id="パス_1332" data-name="パス 1332" d="M103.564,7.814l-4.4-.388a9.89,9.89,0,0,1,4.4.388" transform="translate(13.397 0.991)" fill="#364350"/>
        </g>
      </g>
    </g>
  </g>
</svg>
