<svg xmlns="http://www.w3.org/2000/svg" xmlns:xlink="http://www.w3.org/1999/xlink" width="37" height="37" viewBox="0 0 37 37">
  <defs>
    <clipPath id="clip-path">
      <rect id="長方形_335" data-name="長方形 335" width="37" height="37" transform="translate(-0.429)" fill="none"/>
    </clipPath>
  </defs>
  <g id="グループ_122" data-name="グループ 122" transform="translate(0.429)">
    <g id="グループ_121" data-name="グループ 121" transform="translate(0 0)" clip-path="url(#clip-path)">
      <path id="パス_2806" data-name="パス 2806" d="M37.222,18.611A18.611,18.611,0,1,0,15.7,37V23.991H10.978v-5.38H15.7v-4.1c0-4.664,2.779-7.241,7.03-7.241a28.619,28.619,0,0,1,4.166.363v4.58H24.552a2.69,2.69,0,0,0-3.033,2.906v3.491h5.162l-.825,5.38H21.519V37a18.616,18.616,0,0,0,15.7-18.385" transform="translate(-0.474 -0.177)" fill="#2d2c2f"/>
      <path id="パス_2807" data-name="パス 2807" d="M316.878,216.721l.825-5.38h-5.162V207.85a2.69,2.69,0,0,1,3.033-2.906h2.347v-4.58a28.619,28.619,0,0,0-4.166-.363c-4.251,0-7.03,2.576-7.03,7.241v4.1H302v5.38h4.725v13.005a18.807,18.807,0,0,0,5.816,0V216.721Z" transform="translate(-291.496 -192.907)" fill="#fff"/>
    </g>
  </g>
</svg>
