<svg id="グループ_120" data-name="グループ 120" xmlns="http://www.w3.org/2000/svg" xmlns:xlink="http://www.w3.org/1999/xlink" width="36.275" height="36.275" viewBox="0 0 36.275 36.275">
  <defs>
    <clipPath id="clip-path">
      <rect id="長方形_334" data-name="長方形 334" width="36.275" height="36.275" fill="#2d2c2f"/>
    </clipPath>
  </defs>
  <g id="グループ_119" data-name="グループ 119" clip-path="url(#clip-path)">
    <path id="パス_2803" data-name="パス 2803" d="M18.137,3.268c4.843,0,5.417.019,7.329.106A10.035,10.035,0,0,1,28.834,4a5.62,5.62,0,0,1,2.085,1.357,5.62,5.62,0,0,1,1.357,2.085,10.036,10.036,0,0,1,.625,3.368c.087,1.913.106,2.486.106,7.329s-.018,5.417-.106,7.329a10.036,10.036,0,0,1-.625,3.368,6.007,6.007,0,0,1-3.442,3.442,10.035,10.035,0,0,1-3.368.625c-1.912.087-2.486.106-7.329.106s-5.417-.019-7.329-.106a10.035,10.035,0,0,1-3.368-.625A5.621,5.621,0,0,1,5.354,30.92,5.62,5.62,0,0,1,4,28.834a10.038,10.038,0,0,1-.625-3.368c-.087-1.913-.106-2.486-.106-7.329s.019-5.417.106-7.329A10.038,10.038,0,0,1,4,7.441,5.62,5.62,0,0,1,5.354,5.355,5.621,5.621,0,0,1,7.44,4a10.035,10.035,0,0,1,3.368-.625c1.913-.087,2.486-.106,7.329-.106m0-3.268c-4.926,0-5.544.021-7.478.109a13.314,13.314,0,0,0-4.4.843A8.891,8.891,0,0,0,3.043,3.044,8.891,8.891,0,0,0,.951,6.257a13.313,13.313,0,0,0-.843,4.4C.02,12.594,0,13.212,0,18.138s.021,5.543.109,7.478a13.313,13.313,0,0,0,.843,4.4,8.891,8.891,0,0,0,2.092,3.213,8.891,8.891,0,0,0,3.212,2.092,13.314,13.314,0,0,0,4.4.843c1.934.088,2.552.109,7.478.109s5.543-.021,7.478-.109a13.314,13.314,0,0,0,4.4-.843,9.274,9.274,0,0,0,5.3-5.3,13.313,13.313,0,0,0,.843-4.4c.088-1.935.109-2.552.109-7.478s-.021-5.544-.109-7.478a13.313,13.313,0,0,0-.843-4.4A8.892,8.892,0,0,0,33.23,3.044,8.892,8.892,0,0,0,30.017.952a13.314,13.314,0,0,0-4.4-.843C23.68.021,23.062,0,18.137,0" transform="translate(0.001 0)" fill="#2d2c2f"/>
    <path id="パス_2804" data-name="パス 2804" d="M131.869,122.556a9.314,9.314,0,1,0,9.314,9.314,9.314,9.314,0,0,0-9.314-9.314m0,15.36a6.046,6.046,0,1,1,6.046-6.046,6.046,6.046,0,0,1-6.046,6.046" transform="translate(-113.731 -113.732)" fill="#2d2c2f"/>
    <path id="パス_2805" data-name="パス 2805" d="M360.519,89.391a2.176,2.176,0,1,1-2.176-2.176,2.176,2.176,0,0,1,2.176,2.176" transform="translate(-330.523 -80.936)" fill="#2d2c2f"/>
  </g>
</svg>
