<svg xmlns="http://www.w3.org/2000/svg" width="2202.087" height="205.998" viewBox="0 0 2202.087 205.998">
  <path id="パス_5917" data-name="パス 5917" d="M18.9-202.662V0H38.92V-47.538l5-5L90.072,0H116.2L57.824-65.886l49.484-49.484H81.176L38.92-72.558v-130.1ZM164.576-115.37H144.56v69.5c0,14.178,1.39,24.742,10.564,34.75C165.41-.278,179.032,3.336,190.43,3.336S215.45-.278,225.736-11.12C234.91-21.128,236.3-31.692,236.3-45.87v-69.5H216.284v67.276c0,8.062,0,17.514-5.56,24.742-3.058,3.892-9.174,8.9-20.294,8.9s-17.236-5-20.294-8.9c-5.56-7.228-5.56-16.68-5.56-24.742ZM302.464-16.124c8.618,11.12,21.684,19.46,40.31,19.46C377.8,3.336,398.1-25.3,398.1-56.99c0-31.136-20.016-61.16-56.156-61.16a49.612,49.612,0,0,0-39.476,18.9V-202.662H282.448V0h20.016Zm37.53,1.668c-23.63,0-38.642-19.182-38.642-42.812,0-27.8,19.738-43.09,38.364-43.09s37.808,15.012,37.808,43.368C377.524-33.916,363.346-14.456,339.994-14.456ZM490.948,3.336c35.028,0,61.16-25.576,61.16-60.6s-25.854-60.882-61.16-60.882-61.16,25.854-61.16,60.882S455.92,3.336,490.948,3.336Zm0-103.694c21.128,0,40.588,14.734,40.588,43.09,0,28.078-19.738,42.812-40.588,42.812-20.572,0-40.588-14.456-40.588-42.812C450.36-85.346,469.82-100.358,490.948-100.358ZM654.968-97.3c-9.174-19.738-25.576-20.85-31.692-20.85-19.46,0-33.638,11.954-33.638,32.248,0,5.838.834,11.4,5.282,16.958C600.2-62.55,609.1-58.1,623-51.986c10.842,4.726,18.626,8.34,18.626,19.182,0,8.618-5.838,18.348-18.9,18.348-14.456,0-21.128-12.788-23.352-18.9l-17.236,7.228c9.73,28.912,35.584,29.468,40.31,29.468,22.24,0,39.754-13.622,39.754-37.808,0-6.394-1.112-12.51-6.116-18.626-4.448-5.56-12.232-10.842-28.912-17.792-13.066-5.56-18.626-8.062-18.626-16.4,0-8.9,6.672-13.066,13.9-13.066,7.506,0,13.344,5,16.124,11.676Zm130.66-1.668c-5.282-6.95-17.236-19.182-39.476-19.182C716.684-118.15,690-97.578,690-57.824c0,40.588,26.966,61.16,56.156,61.16,20.294,0,32.8-10.842,39.476-19.46V0h20.016V-115.37H785.628Zm-37.252-1.39c17.792,0,38.364,13.066,38.364,42.812,0,22.8-13.9,43.09-38.364,43.09-23.908,0-37.808-18.626-37.808-43.368C710.568-85.9,728.638-100.358,748.376-100.358ZM851.792,0h20.016V-60.326c0-8.34.556-21.962,8.34-31.136,5.838-6.95,13.344-8.9,20.294-8.9,8.9,0,15.012,3.336,18.9,8.34,4.726,6.116,5.282,14.178,5.282,21.128V0h20.016V-71.446c0-12.788-.834-22.24-6.672-30.858-6.95-10.286-19.46-15.846-33.082-15.846a40.7,40.7,0,0,0-33.082,16.124V-115.37H851.792ZM1031.38-97.022V-115.37h-20.016v-41.7H991.348v41.7H979.116v18.348h12.232V0h20.016V-97.022Zm27.244-18.348V0h20.016V-115.37Zm-4.17-43.646a14.238,14.238,0,0,0,14.178,14.178,14.238,14.238,0,0,0,14.178-14.178,14.238,14.238,0,0,0-14.178-14.178A14.238,14.238,0,0,0,1054.454-159.016ZM1124.788,0H1144.8V-60.326c0-8.34.556-21.962,8.34-31.136,5.838-6.95,13.344-8.9,20.294-8.9,8.9,0,15.012,3.336,18.9,8.34,4.726,6.116,5.282,14.178,5.282,21.128V0h20.016V-71.446c0-12.788-.834-22.24-6.672-30.858-6.95-10.286-19.46-15.846-33.082-15.846a40.7,40.7,0,0,0-33.082,16.124V-115.37h-20.016ZM1317.72,3.336c35.028,0,61.16-25.576,61.16-60.6s-25.854-60.882-61.16-60.882-61.16,25.854-61.16,60.882S1282.692,3.336,1317.72,3.336Zm0-103.694c21.128,0,40.588,14.734,40.588,43.09,0,28.078-19.738,42.812-40.588,42.812-20.572,0-40.588-14.456-40.588-42.812C1277.132-85.346,1296.592-100.358,1317.72-100.358Zm98.968,89.238a14.125,14.125,0,0,0,13.9,13.9,14.125,14.125,0,0,0,13.9-13.9,14.125,14.125,0,0,0-13.9-13.9A14.125,14.125,0,0,0,1416.688-11.12ZM1543.456,3.336c35.028,0,61.16-25.576,61.16-60.6s-25.854-60.882-61.16-60.882S1482.3-92.3,1482.3-57.268,1508.428,3.336,1543.456,3.336Zm0-103.694c21.128,0,40.588,14.734,40.588,43.09,0,28.078-19.738,42.812-40.588,42.812-20.572,0-40.588-14.456-40.588-42.812C1502.868-85.346,1522.328-100.358,1543.456-100.358Zm100.08-102.3V0h20.016V-47.538l5-5L1714.7,0h26.132l-58.38-65.886,49.484-49.484h-26.132l-42.256,42.812v-130.1Zm175.418,206c35.028,0,61.16-25.576,61.16-60.6s-25.854-60.882-61.16-60.882-61.16,25.854-61.16,60.882S1783.926,3.336,1818.954,3.336Zm0-103.694c21.128,0,40.588,14.734,40.588,43.09,0,28.078-19.738,42.812-40.588,42.812-20.572,0-40.588-14.456-40.588-42.812C1778.366-85.346,1797.826-100.358,1818.954-100.358ZM1919.034,0h20.016V-62.828c0-13.9,2.5-37.53,25.3-37.53,21.128,0,20.85,23.908,20.85,31.97V0h20.016V-64.218c0-13.9,2.5-36.14,25.576-36.14,18.9,0,20.572,17.236,20.572,30.3V0h20.016V-73.114c0-16.4-3.336-45.036-37.53-45.036-7.784,0-23.63,1.112-34.75,18.626-2.224-3.892-10.564-18.626-31.414-18.626a33.509,33.509,0,0,0-28.634,15.012V-115.37h-20.016Zm284.394-38.642A45.964,45.964,0,0,1,2191.474-22.8c-6.672,5.56-14.178,8.34-23.63,8.34-20.016,0-36.418-15.29-36.7-39.2h89.794c.556-15.29-3.614-33.082-10.842-43.368-6.95-10.008-21.128-21.128-43.646-21.128-34.75,0-55.878,26.688-55.878,61.16,0,42.812,29.19,60.326,56.99,60.326,14.734,0,27.8-4.726,38.364-14.178a69.025,69.025,0,0,0,14.178-18.626Zm-70.89-31.692c3.058-17.236,16.958-30.024,33.916-30.024s30.58,11.954,33.916,30.024Z" transform="translate(-18.904 202.662)" fill="#efebe4" opacity="0.472" style="mix-blend-mode: multiply;isolation: isolate"/>
</svg>
