<svg id="グループ_141" data-name="グループ 141" xmlns="http://www.w3.org/2000/svg" xmlns:xlink="http://www.w3.org/1999/xlink" width="72.414" height="55.403" viewBox="0 0 72.414 55.403">
  <defs>
    <clipPath id="clip-path">
      <rect id="長方形_353" data-name="長方形 353" width="72.414" height="55.403" transform="translate(0 0)" fill="#d39c38"/>
    </clipPath>
  </defs>
  <path id="パス_2872" data-name="パス 2872" d="M52.733,23.789l19.6.894.076-2.418-19.221-.421Z" fill="#d39c38"/>
  <path id="パス_2873" data-name="パス 2873" d="M38.2,37.837l-.418-2.618-21,.493,1.026,2.847Z" fill="#d39c38"/>
  <path id="パス_2874" data-name="パス 2874" d="M0,13.046l.594,2.383,18.988-2.093L19.5,11.367Z" fill="#d39c38"/>
  <path id="パス_2875" data-name="パス 2875" d="M38.2,30.4,38.8,32.78l18.988-2.093L57.7,28.718Z" fill="#d39c38"/>
  <path id="パス_2876" data-name="パス 2876" d="M10.371,23.027l.155,2.763,22.073.548.788-2.46Z" fill="#d39c38"/>
  <path id="パス_2877" data-name="パス 2877" d="M54.256,15.766l-.22-2.988L30.024,11.03l-.69,2.487Z" fill="#d39c38"/>
  <path id="パス_2878" data-name="パス 2878" d="M47.3,0,21.879,3.521l.306,2.1L47.992,2.1Z" fill="#d39c38"/>
  <g id="グループ_140" data-name="グループ 140">
    <g id="グループ_139" data-name="グループ 139" clip-path="url(#clip-path)">
      <path id="パス_2879" data-name="パス 2879" d="M7.042,47.367s.847-1.794,1.271-2.69c1.178.834,12.111,5.759,17.972,8.412A8.153,8.153,0,0,1,25.269,55.4C19.5,52.171,7.042,47.367,7.042,47.367" fill="#d39c38"/>
      <path id="パス_2880" data-name="パス 2880" d="M44.671,42.551l.882-2.588L60.8,42.455l-.2,2.3Z" fill="#d39c38"/>
    </g>
  </g>
</svg>
